<svg xmlns="http://www.w3.org/2000/svg" xmlns:xlink="http://www.w3.org/1999/xlink" width="331.310302734375" height="327.420166015625" viewBox="0 0 331.310302734375 327.420166015625" fill="none">
<path d="M260.197 252.723C363.416 215.744 330.875 82.7317 277.706 55.43C224.537 28.1304 196.337 82.2912 156.906 94.9715C117.487 107.652 62.4968 34.5709 23.388 82.0316C-15.7207 129.501 50.7261 196.504 50.7261 196.504C124.377 271.425 190.245 277.794 260.197 252.723Z"   fill="#D8E5F5" >
</path>
<rect  x="60" y="102" width="212" height="148" rx="8"    fill="#3D5280" >
</rect>
<path d="M262.99 106.02L69.2596 106.02C66.1697 106.02 63.6699 108.521 63.6699 111.6L63.6699 225.97C63.6699 229.049 66.1799 231.55 69.2596 231.55L262.99 231.55C266.07 231.55 268.57 229.049 268.57 225.97L268.57 111.6C268.57 108.521 266.07 106.02 262.99 106.02Z"   fill="#5A7BBF" >
</path>
<path d="M236.481 163.171C234.28 152.891 230.579 142.242 222.379 135.662C212.561 127.771 197.119 128.002 187.52 136.161C181.639 141.171 178.17 148.362 175.049 155.422C171.931 162.471 168.89 169.781 163.579 175.381C158.27 180.981 150.029 184.55 142.72 182.1C133.57 179.031 129.691 168.581 125.71 159.781C120.96 149.271 113.43 138.762 102.22 136.072C96.0605 134.592 89.5303 135.712 83.5801 137.871C76.0705 140.602 69.2801 145.091 63.6699 150.772L63.6699 225.97C63.6699 229.05 66.1799 231.55 69.2596 231.55L262.99 231.55C266.07 231.55 268.57 229.05 268.57 225.97L268.57 202.04C264.949 203.88 261.3 205.35 257.37 204.8C251.5 204 247.15 198.87 244.511 193.571C239.81 184.161 238.669 173.451 236.481 163.171Z"   fill="#486CB8" >
</path>
<g  clip-path="url(#clip-path-pd0VefSoJb)">
<path d="M123.55 89.2697C123.55 89.2697 115.1 96.9603 108.13 88.5999C102.05 93.37 90.1303 94.5592 90.1303 94.5592C87.6502 101.24 90.09 128.38 89.4398 144.68C89.11 152.83 88.8902 161.3 87.5403 171.65C85.15 189.9 80.7301 206.13 77.26 216.03C85.7197 219.35 99.2603 221.77 115.95 221.77C135.46 221.77 152.34 217.9 161.16 213.91C156.73 189.74 141.26 169.92 139.6 146.599C138.3 128.41 142 114.79 143.2 98.8899C139.88 97.7992 129.93 92.6296 125.6 90.3497C124.93 89.9196 124.25 89.5494 123.55 89.2697Z"   fill="#CED5DB" >
</path>
<path d="M138.784 291.143C138.784 291.143 129.053 296.423 127.853 289.153C127.453 286.683 127.043 297.863 127.473 301.353C127.533 301.864 127.613 302.214 127.713 302.324C128.503 303.214 133.824 304.824 137.054 308.264C139.274 310.624 152.556 315.574 158.637 308.924C159.407 308.084 159.777 307.294 159.807 306.544C160.067 300.854 141.245 297.593 138.784 291.143Z"   fill="#3F3F3F" >
</path>
<path d="M110.629 315.294C112.079 312.814 112.019 309.503 110.589 307.613C108.359 304.683 106.889 299.142 106.96 297.812C107.039 296.222 106.59 295.142 105.8 294.432C103.34 292.211 97.6496 293.612 94.8498 294.492C93.8598 294.802 93.2297 295.052 93.2297 295.052C93.2297 295.052 93.8297 299.722 94.2797 308.063C94.7298 316.404 101.88 319.654 106.799 318.304C108.23 317.904 109.35 317.084 110.139 316.034C110.319 315.794 110.479 315.554 110.629 315.294Z"   fill="#3F3F3F" >
</path>
<path d="M96.8897 311.533C95.8498 308.783 95.1597 299.481 94.8497 294.49C93.8598 294.8 93.2297 295.05 93.2297 295.05C93.2297 295.05 93.8297 299.721 94.2798 308.062C94.7298 316.404 101.88 319.655 106.8 318.304C108.23 317.904 109.35 317.084 110.14 316.034C104.76 319.704 98.3198 315.364 96.8897 311.533Z"   fill="#303030" >
</path>
<path d="M141.57 309.343C138.1 307.882 136.4 304.611 131.67 302.67C130.06 302.01 128.62 301.6 127.47 301.35C127.53 301.86 127.61 302.21 127.71 302.32C128.5 303.211 133.82 304.821 137.05 308.262C139.27 310.623 152.55 315.575 158.63 308.922C159.399 308.082 159.77 307.292 159.8 306.542C156.41 313.004 145.66 311.063 141.57 309.343Z"   fill="#303030" >
</path>
<path d="M145.025 305.029C146.535 308.06 149.325 309.55 152.555 309.55C155.005 309.55 158.705 307.96 157.715 305.249C157.025 303.388 152.765 301.168 148.675 299.657C145.225 298.797 143.295 301.588 145.025 305.029Z"   fill="#4D4D4D" >
</path>
<path d="M110.58 307.6C108.35 304.67 106.88 299.13 106.95 297.8C107.03 296.21 106.58 295.13 105.79 294.42L104.12 295.35L105.34 295.35C105.34 295.35 105.63 296.21 105.63 298.58C105.63 301.02 108.62 306.93 110.14 309.53C111.601 312.04 110.7 315.07 110.63 315.29C112.081 312.81 112.021 309.5 110.58 307.6Z"   fill="#4D4D4D" >
</path>
<path d="M103.681 308.946C100.211 309.436 99.4005 310.406 99.4305 312.227C99.4604 314.047 103.061 315.787 105.212 316.217C107.622 316.697 109.513 315.787 109.733 313.207C109.943 310.626 108.132 308.386 107.912 308.206C106.312 306.856 107.142 308.476 103.681 308.946Z"   fill="#4D4D4D" >
</path>
<g opacity="0.51">
<path d="M149.97 308.486C152.43 309.577 155.779 308.487 156.639 307.836C157.498 307.186 157.069 306.546 156.419 306.326C155.769 306.105 154.909 306.756 154.909 306.756C152.759 308.687 148.021 307.616 149.97 308.486Z"   fill="#7A7A7A" >
</path>
</g>
<g opacity="0.51">
<path d="M107.796 315.799C109.928 315.089 108.507 313.929 107.406 314.549C105.215 315.789 102.293 313.729 102.673 314.549C102.723 315.039 105.645 316.51 107.796 315.799Z"   fill="#7A7A7A" >
</path>
</g>
<path d="M125.128 291.873C129.157 300.973 143.267 295.403 143.267 295.403L144.567 255.291L144.086 250.302C145.357 248.842 145.466 246.692 144.357 245.142L143.327 243.692C145.387 238.361 145.336 164.34 143.377 163.18L91.2998 163.78L92.0996 240.941L91.88 245.031C90.5899 246.971 92.31 249.982 92.31 249.982L91.6195 294.013C97.3196 299.253 108.959 295.492 108.959 295.492C109.679 293.603 110.518 286.893 111.289 279.193C112.599 266.092 113.699 250.132 113.699 250.132L113.878 244.861C114.168 243.742 114.108 242.562 113.679 241.492L113.138 240.131L116.958 201.79L117.188 199.46L117.188 199.491L117.258 200.001L117.278 200.151L117.278 200.181L122.528 237.302L122.968 242.801C122.188 245.852 122.338 263.633 123.648 273.553C123.958 275.842 124.198 278.032 124.388 280.053L124.388 280.062C125.048 286.962 125.128 291.873 125.128 291.873Z"   fill="url(#linear_fill_CVxaoXXOGM)" >
</path>
<g opacity="0.24">
<path d="M124.783 240.93C124.583 240.52 118.09 204.52 117.26 199.92C117.27 200 117.28 200.08 117.28 200.17L122.532 237.29L122.972 242.79C122.192 245.84 122.342 263.62 123.652 273.54C123.963 275.83 124.203 278.02 124.393 280.04C123.782 268.17 125.003 241.35 124.783 240.93Z"   fill="#000000" >
</path>
</g>
<g opacity="0.24">
<path d="M111.68 239.98C112.3 244.55 111.29 278.79 111.28 279.16C112.59 266.06 113.69 250.1 113.69 250.1L113.87 244.83C114.16 243.71 114.1 242.53 113.67 241.46L113.13 240.1L116.95 201.76C115.69 209.11 111.15 236.02 111.68 239.98Z"   fill="#000000" >
</path>
</g>
<path d="M121.76 83.151C121.49 81.1804 121.44 79.6899 121.44 79.6899L111.01 79.77C110.99 80.2501 110.95 80.7403 110.89 81.2105C110.43 85.1115 108.86 88.5926 108.86 88.5926C115.65 99.3657 124.1 90.6832 124.1 90.6832C122.77 88.7426 122.1 85.5817 121.76 83.151Z"   fill="#F6ACAC" >
</path>
<path d="M118.835 93.7379C118.294 92.3988 115.842 90.6699 115.842 90.6699C115.842 90.6699 113.911 91.8491 112.93 93.558C112.79 93.8078 112.67 94.0576 112.58 94.3175C112.58 94.3175 113.701 96.9957 114.441 97.1855C115.182 97.3754 116.993 97.1855 116.993 97.1855C116.993 97.1855 118.785 95.6566 118.935 94.3175C118.955 94.1376 118.915 93.9477 118.835 93.7379Z"   fill="#71C6DA" >
</path>
<path d="M124.098 90.67C124.158 90.56 124.178 90.4301 124.188 90.2801C124.198 90.09 124.178 89.87 124.098 89.62C124.078 89.5501 124.048 89.4701 124.018 89.38C123.888 89.0601 123.658 88.6701 123.408 88.3001C122.908 87.5701 122.328 86.91 122.228 87.0101C122.148 87.0901 121.628 87.41 120.909 87.8301C120.519 88.0501 120.089 88.3001 119.639 88.5601C118.379 89.2801 116.99 90.0601 116.32 90.43C116.32 90.44 116.31 90.4401 116.31 90.4401C116.07 90.58 115.92 90.66 115.92 90.66C115.92 90.66 115.95 90.7201 116.02 90.82C116.49 91.54 118.379 94.56 118.709 96.8C118.709 96.8 123.538 91.82 124.098 90.67Z"   fill="#CED5DB" >
</path>
<path d="M107.786 89.3767C107.766 89.4167 107.756 89.4567 107.736 89.5068C107.636 89.7868 107.576 90.047 107.556 90.2971C107.536 90.5172 107.566 90.7173 107.646 90.8874C108.206 92.0279 113.039 97.02 113.039 97.02C113.409 94.4689 115.83 90.8874 115.83 90.8874C115.83 90.8874 115.8 90.8673 115.74 90.8173C115.64 90.7573 115.48 90.6772 115.28 90.5572C115.24 90.5372 115.2 90.5072 115.15 90.4872C114.349 90.047 112.998 89.2867 111.818 88.6164C111.368 88.3563 110.937 88.1162 110.577 87.9061C109.987 87.5659 109.577 87.3058 109.507 87.2358C109.337 87.0557 108.796 87.576 108.336 88.3063C108.136 88.6264 107.946 88.9765 107.806 89.3267C107.796 89.3467 107.796 89.3567 107.786 89.3767Z"   fill="#CED5DB" >
</path>
<path d="M116.662 97.2L114.433 97.2C114.433 97.2 114.423 97.2202 114.423 97.2498C114.233 98.9801 109.415 143.584 109.595 144.114C109.775 144.654 114.613 154.835 114.982 155.105C115.352 155.375 120.93 144.914 120.93 144.914L116.662 97.2Z"   fill="#64C4DA" >
</path>
<path d="M118.835 93.7398C118.664 93.8697 118.474 94.0395 118.264 94.2492C114.742 97.755 113.39 93.7498 113.39 93.7498L112.93 93.5601C112.79 93.8097 112.67 94.0595 112.58 94.3192C112.58 94.3192 113.701 96.9959 114.441 97.1857C115.182 97.3755 116.993 97.1857 116.993 97.1857C116.993 97.1857 118.785 95.6575 118.935 94.3192C118.955 94.1394 118.915 93.9496 118.835 93.7398Z"   fill="#48BEDA" >
</path>
<path d="M114.531 97.2L114.43 97.2501C114.241 98.9802 109.425 143.58 109.605 144.11C109.785 144.65 114.62 154.83 114.99 155.1L115.26 97.1901L115.26 96.8101L114.531 97.2Z"   fill="#39BBDA" >
</path>
<path d="M107.784 89.39C107.784 89.3801 107.773 89.3701 107.764 89.3601C107.753 89.3401 107.743 89.32 107.733 89.3101C107.723 89.33 107.723 89.3501 107.713 89.3701C107.593 89.71 107.534 90.04 107.554 90.3201C107.564 90.4601 107.594 90.5801 107.644 90.6901C108.203 91.83 113.031 96.8201 113.031 96.8201C113.361 94.58 115.26 91.5601 115.72 90.8401C115.78 90.74 115.82 90.68 115.82 90.68C115.82 90.68 115.61 90.5601 115.26 90.3801C115.22 90.4301 115.17 90.4701 115.13 90.5201C110.852 95.1201 108.233 90.16 107.784 89.39Z"   fill="#C5CBD1" >
</path>
<path d="M124.095 89.8501C123.186 91.0601 121.097 93.6401 119.688 93.9701C118.428 94.2601 117.049 92.0901 116.3 90.6701C116.06 90.8101 115.91 90.8901 115.91 90.8901C115.91 90.8901 118.328 94.4701 118.698 97.0201C118.698 97.0201 123.525 92.0401 124.085 90.8901C124.215 90.6201 124.205 90.2501 124.095 89.8501Z"   fill="#C5CBD1" >
</path>
<path d="M102.84 163.89L128.66 163.89L128.66 158.08L102.84 158.08L102.84 163.89Z"   fill="#794E29" >
</path>
<path d="M207.483 159.949C207.483 159.949 209.723 160.439 209.393 158.799C208.903 156.4 198.772 152.82 196.672 152.15C197.712 152.31 199.532 151.67 200.652 150.81C202.772 149.17 201.592 148.37 200.322 148.38C199.052 148.39 196.662 149.13 192.291 149.4C189.831 149.55 188.111 150.37 187.081 151.05C186.291 151.57 185.9 152.02 185.9 152.02C184.12 153.26 184.59 156.869 185.661 159.489C186.731 162.109 193.611 164.619 195.492 164.869C197.372 165.119 206.083 167.139 206.683 166.129C206.953 165.659 206.593 165.199 206.153 164.859C207.173 165.199 208.663 165.439 208.803 164.489C208.943 163.579 207.633 162.789 207.323 162.619C207.763 162.839 210.224 164.019 210.534 162.509C210.703 161.679 207.483 159.949 207.483 159.949Z"   fill="#F6ACAC" >
</path>
<path d="M191.86 161.879C186.931 159.179 186.831 153.59 187.071 151.05C186.28 151.57 185.891 152.02 185.891 152.02C184.11 153.26 184.58 156.869 185.65 159.489C186.72 162.109 193.6 164.619 195.48 164.869C197.36 165.119 206.07 167.139 206.67 166.129C205.8 166.409 198.35 165.429 191.86 161.879Z"   fill="#F49897" >
</path>
<path d="M125.133 178.43C131.482 200.62 131.253 212.68 131.253 212.68C131.253 212.68 154.87 207.35 161.17 210.6C161.18 193.67 148.871 173.32 141.842 151.91C135.142 131.5 144.981 107.65 143.192 98.8106L123.643 89.51C123.643 89.51 128.813 94.39 119.144 123.029C119.144 123.029 118.783 156.24 125.133 178.43Z"   fill="#EDF5FD" >
</path>
<path d="M185.672 164.32L186.752 164.75C186.752 164.75 196.521 154.04 192.991 145.39L162.703 136.41C162.703 136.41 150.364 104.74 143.215 98.5801C143.215 98.5801 138.915 104.39 138.485 110.64C137.805 120.61 151.224 150.6 151.224 150.6L185.672 164.32Z"   fill="#EDF5FD" >
</path>
<path d="M90.1193 94.5605L91.2392 104.12C91.2392 104.12 92.5793 137.52 84.4696 175.461C80.5999 193.59 77.26 216.03 77.26 216.03C86.0494 208.16 106.278 216.04 106.278 216.04C106.278 216.04 110.368 207.519 112.138 189.55C113.808 172.47 110.708 151.241 108.108 120.819C105.859 94.5095 108.118 88.6001 108.118 88.6001L90.1193 94.5605Z"   fill="#EDF5FD" >
</path>
<path d="M87.3499 182.142L87.9198 184.332C87.8799 185.133 101.478 190.534 101.658 183.252C101.738 180.241 99.408 176.15 98.9381 175.89L87.3499 182.142Z"   fill="#F6ACAC" >
</path>
<path d="M86.36 182.22L85.8901 189.4L84.99 203.13L99.49 204.72L102.04 205L104.57 185.16C92.7477 186.288 86.3692 182.232 86.36 182.22ZM86.36 182.22C86.36 182.22 86.36 182.22 86.36 182.22L86.36 182.22Z" fill-rule="evenodd"  fill="#F7FBFF" >
</path>
<path d="M85.88 189.4L84.98 203.13L99.48 204.72C95.0599 203.93 86.3699 200.92 85.88 189.4Z"   fill="#D2D9E0" >
</path>
<path d="M99.8599 204.72C101.27 204.99 102.22 205 102.22 205L99.8599 204.72Z"   fill="#D2D9E0" >
</path>
<path d="M136.11 202.81L138.64 202.14L153.02 198.31L150.02 184.88L148.45 177.86C148.45 177.86 142.63 182.87 130.53 183.6L136.11 202.81Z"   fill="#F7FBFF" >
</path>
<path d="M153.01 198.3L150.01 184.87C151.28 196.34 142.98 200.67 138.63 202.13L153.01 198.3Z"   fill="#D2D9E0" >
</path>
<path d="M91.6799 140.07C91.6799 140.07 102.26 101.569 90.1198 94.3787C84.8099 91.2389 76.1499 142.35 76.1599 142.389C76.33 143.589 81.8098 166.12 85.0299 180.85C85.1598 181.45 85.2899 182.04 85.4098 182.61C85.4098 182.61 100.31 181.74 103.91 175.94C103.91 175.94 94.2998 145.459 91.6799 140.07Z"   fill="#EDF5FD" >
</path>
<path d="M98.6299 103.8C98.6299 103.8 100.92 104.04 103.13 106.78L98.6299 110.03C98.6299 110.03 104.47 131.39 109.88 138.58L105.79 89.3C105.79 89.3 101.43 89.8801 98.6299 103.8Z"   fill="#D2D9E0" >
</path>
<path d="M103.17 92.2862C101.59 95.5367 99.7899 102.957 99.7899 102.957C99.7899 102.957 103.61 105.637 103.95 107.317L99.1099 110.148C99.1099 110.148 102.48 123.139 109.88 138.79C109.88 138.78 104.85 91.5965 108 88.5864C108.33 88.2662 104.74 89.0463 103.17 92.2862Z"   fill="#EDF5FD" >
</path>
<path d="M120.019 139.909C122.025 130.894 130.55 110.4 130.55 110.4L127.76 107.96L131.88 106.52C130.55 89.8799 123.64 89.51 123.64 89.51C128.704 90.8093 121.64 131.076 120.019 139.909ZM119.7 141.61C119.701 141.611 119.818 141 120.019 139.909C119.879 140.535 119.771 141.105 119.7 141.61Z" fill-rule="evenodd"  fill="#D2D9E0" >
</path>
<path d="M121.829 106.91C117.329 119.2 119.709 141.19 119.709 141.19C119.709 141.19 124.969 116.89 129.48 110.4L127.199 107.8L131.28 105.3C131.28 105.29 131.29 92.0702 123.639 89.51C123.639 89.51 126.339 94.6098 121.829 106.91Z"   fill="#EDF5FD" >
</path>
<path d="M92.74 140.28C92.74 140.28 94.0599 134.58 95.7699 116.35C97.6199 96.5697 90.1199 94.3899 90.1199 94.3899C100.48 99.9296 93.4099 132.53 91.2198 136.81C89.04 141.08 84.1501 140.32 84.1501 140.32C86.62 141.5 89.66 140.32 89.66 140.32C88.3599 141.73 83.45 142.79 83.45 142.79C83.45 142.79 90.08 142.11 90.1199 141.89C90.16 141.67 103.91 175.94 103.91 175.94L92.74 140.28Z"   fill="#D2D9E0" >
</path>
<path d="M137.413 110.19C137.193 116.12 150.292 150.88 150.292 150.88L186.75 164.75L151.332 149.86L139.172 115.43C136.743 108.14 138.513 104.03 143.212 98.5801C143.212 98.5801 137.632 104.26 137.413 110.19Z"   fill="#D2D9E0" >
</path>
<path d="M113.91 163.03L119.93 163.03C120.46 163.03 120.89 162.6 120.89 162.07L120.89 159.68C120.89 159.15 120.46 158.72 119.93 158.72L113.91 158.72C113.38 158.72 112.95 159.15 112.95 159.68L112.95 162.07C112.95 162.6 113.38 163.03 113.91 163.03Z"   fill="#B5743D" >
</path>
<path d="M120.05 161.67L120.05 159.88C120.05 159.48 119.73 159.16 119.33 159.16L114.53 159.16C114.13 159.16 113.81 159.48 113.81 159.88L113.81 161.67C113.81 162.07 114.13 162.39 114.53 162.39L119.33 162.39C119.73 162.39 120.05 162.06 120.05 161.67Z"   fill="#945F32" >
</path>
<path d="M85.0303 180.85C85.1602 181.45 85.2902 182.04 85.4101 182.61C85.4101 182.61 100.31 181.74 103.91 175.94C100.274 180.652 85.0968 180.888 85.0303 180.85ZM85.0302 180.85C85.03 180.85 85.0301 180.85 85.0303 180.85C85.0303 180.85 85.0303 180.85 85.0302 180.85Z" fill-rule="evenodd"  fill="#D2D9E0" >
</path>
<path d="M121.44 79.8899L111.01 79.9699C110.99 80.45 110.95 80.94 110.89 81.4101C112.67 82.9703 116.4 85.2606 121.76 83.3603C121.49 81.4001 121.44 79.8999 121.44 79.8899Z"   fill="#F49897" >
</path>
<path   fill-rule="evenodd"  fill="#F6ACAC"  d="M106.345 67.0833C106.345 67.0833 106.345 67.0833 106.345 67.0833ZM110.265 52.731C109.225 53.4311 108.315 54.2712 107.625 55.1712C107.375 55.5015 107.155 55.8413 106.975 56.2116C104.795 60.442 106.345 67.0832 106.345 67.0833C106.345 67.0833 106.195 66.843 105.935 66.513C105.015 65.3327 102.755 62.9725 101.305 66.0431C99.4451 69.9737 104.755 70.4035 104.755 70.4035C104.945 74.4141 108.465 79.0051 110.615 80.2451C117.655 84.1256 125.225 81.1653 124.985 76.8647C124.835 74.2142 125.005 68.3633 125.515 63.0125C125.545 62.7424 125.565 62.4725 125.595 62.2023C126.175 56.6415 122.005 53.4112 121.705 52.9912C119.195 49.3604 113.935 50.2405 110.265 52.731Z">
</path>
<path d="M106.964 56.2414C104.784 60.4709 106.334 67.11 106.334 67.11C106.334 67.11 106.184 66.87 105.924 66.54C106.334 67.5 106.554 68.2398 106.554 68.2398C107.724 66.89 108.974 62.1006 109.704 58.9011C113.284 61.9907 119.233 65.6801 125.503 63.0305C125.533 62.7605 125.553 62.4905 125.583 62.2205C126.173 56.6412 122.003 53.4117 121.703 52.9919C119.193 49.3723 113.934 50.2521 110.264 52.7418C110.254 52.7519 110.254 52.7519 110.244 52.7618C110.214 52.7818 110.194 52.8019 110.164 52.8219C110.054 52.9017 109.934 52.9818 109.824 53.0618C109.784 53.0919 109.754 53.1217 109.714 53.1518C109.614 53.2217 109.524 53.3018 109.424 53.3718C109.384 53.4018 109.344 53.4417 109.304 53.4718C109.214 53.5417 109.124 53.6218 109.044 53.6918C109.004 53.7216 108.964 53.7617 108.924 53.8017C108.844 53.8817 108.754 53.9517 108.674 54.0317C108.634 54.0717 108.594 54.1017 108.564 54.1416C108.484 54.2217 108.404 54.3016 108.324 54.3816C108.294 54.4215 108.254 54.4516 108.224 54.4917C108.144 54.5816 108.064 54.6716 107.984 54.7516C107.954 54.7816 107.934 54.8115 107.904 54.8415C107.804 54.9615 107.704 55.0815 107.614 55.2015C107.364 55.5215 107.154 55.8714 106.964 56.2414Z"   fill="#F49897" >
</path>
<path d="M126.608 53.5633C124.988 49.6141 116.739 45.8749 109.8 50.5639C109.8 50.5639 109.79 50.5639 109.76 50.554C109.271 50.4339 104.891 49.4042 103.931 52.0636C102.911 54.8828 102.311 62.0312 104.331 65.0306C104.941 65.4004 105.951 66.5303 106.561 68.2199C106.561 68.2199 108.93 59.4119 109.29 56.3925C109.3 56.3326 109.3 56.2826 109.31 56.2326C109.31 56.2326 122.509 67.5001 129.438 60.5116C132.347 57.5823 129.068 59.5619 126.608 53.5633Z"   fill="#18325C" >
</path>
<path d="M125.63 59.8599L125 71.0399C129.816 64.6199 126.669 59.5799 126.429 59.2L125.63 59.8599Z"   fill="#18325C" >
</path>
<path d="M117.84 62.4598C109.91 59.4998 108.52 54.6298 108.51 54.5798L108.31 54.6298C108.33 54.6698 109.73 59.6398 117.77 62.6298L117.84 62.4598Z"   fill="#262F59" >
</path>
<path d="M113.82 61.6199C108.9 58.0899 108.95 54.7099 108.95 54.6799L108.75 54.6699C108.75 54.6999 108.7 58.1699 113.7 61.7599L113.82 61.6199Z"   fill="#262F59" >
</path>
<path d="M126.598 53.5742C124.978 49.6244 116.729 45.8844 109.79 50.5743C109.79 50.5743 109.78 50.5743 109.75 50.5642C108.71 51.4442 107.84 52.3842 107.57 53.1942C107.31 53.9641 108.09 55.1441 109.29 56.3941C109.3 56.3341 109.3 56.2841 109.31 56.2341C109.31 56.2341 122.509 67.5036 129.438 60.5139C132.348 57.584 129.068 59.564 126.598 53.5742Z"   fill="#214580" >
</path>
<path d="M113.33 65.9818C111.7 66.0318 110.14 67.301 110.14 67.301L112.33 67.9107L112.34 67.9107L113.2 68.1505L115.66 68.8301L116.58 69.09C116.55 69 116.53 68.9101 116.5 68.8301C116.43 68.6203 116.36 68.4204 116.28 68.2305C115.98 67.5009 115.6 66.9812 115.19 66.6215C115.14 66.5815 115.09 66.5415 115.04 66.5015C114.78 66.3116 114.5 66.1717 114.22 66.0918C113.93 66.0018 113.63 65.9718 113.33 65.9818Z"   fill="#FFFFFF" >
</path>
<path d="M116.51 68.8201C116.44 68.6101 116.37 68.4101 116.29 68.2201C115.99 67.4901 115.61 66.9701 115.2 66.6101C115.15 66.5701 115.1 66.5301 115.05 66.4901C114.79 66.3001 114.51 66.1601 114.23 66.0801C113.66 66.6301 113.29 67.3501 113.2 68.1501L115.66 68.8301L116.58 69.0901C116.55 69.0001 116.53 68.9101 116.51 68.8201Z"   fill="#18325C" >
</path>
<path d="M119.45 69.4598L121.21 69.0891L122.05 68.9087L122.07 68.9087L123.8 68.538L124.28 68.4378C124.09 68.2474 123.9 68.0771 123.72 67.9268C123.68 67.8867 123.63 67.8566 123.59 67.8266C123.57 67.8165 123.56 67.7965 123.54 67.7865L123.53 67.7765C123.09 67.4458 122.69 67.2554 122.33 67.1552C122.28 67.1452 122.23 67.1352 122.19 67.1251C121.83 67.055 121.51 67.0951 121.24 67.1953C119.96 67.6462 119.45 69.4598 119.45 69.4598Z"   fill="#FFFFFF" >
</path>
<path d="M123.8 68.5285L124.28 68.4283C124.04 68.1977 123.81 67.9872 123.591 67.8168C123.571 67.8068 123.561 67.7868 123.541 67.7767L123.531 67.7667C123.091 67.4359 122.691 67.2455 122.332 67.1452C122.282 67.1352 122.232 67.1252 122.192 67.1152C121.832 67.045 121.513 67.0851 121.243 67.1853C120.953 67.7667 120.923 68.4584 121.213 69.0798L122.052 68.8994L122.072 68.8994L123.8 68.5285Z"   fill="#18325C" >
</path>
<path d="M120.03 74.8099L120.09 74.76L118.42 68.23L118.18 68.3L119.81 74.67C119.59 74.82 118.78 75.23 117.49 73.96L117.32 74.1499C118.09 74.9 118.72 75.11 119.18 75.11C119.71 75.11 120.01 74.83 120.03 74.8099Z"   fill="#F6798F" >
</path>
<path d="M112.104 64.8685C115.002 63.0059 116.82 65.9699 116.82 65.9699C115.134 62.6603 112.228 64.7833 112.104 64.8685ZM112.1 64.8711C112.1 64.8711 112.101 64.8702 112.104 64.8685C112.103 64.8693 112.101 64.8702 112.1 64.8711Z" fill-rule="evenodd"  fill="#18325C" >
</path>
<path d="M119.22 66.7699C121.19 64.4316 124.1 66.3302 124.1 66.3302C120.77 63.892 119.22 66.7699 119.22 66.7699Z"   fill="#18325C" >
</path>
<path d="M118.82 77.2598L118.74 77.0198C118.15 77.2498 116.95 77.3798 115.44 75.7698L115.27 75.9498C116.35 77.1098 117.3 77.4098 118 77.4098C118.34 77.4098 118.62 77.3398 118.82 77.2598Z"   fill="#F6798F" >
</path>
<path d="M121.936 71.5331C120.936 71.7656 120.216 72.3466 120.328 72.8307C120.441 73.3149 121.343 73.5189 122.344 73.2864C123.344 73.054 124.064 72.473 123.952 71.9889C123.839 71.5047 122.937 71.3007 121.936 71.5331Z"   fill="#F67D93" >
</path>
<path d="M111.45 70.9321C111.259 71.5436 112.232 72.392 113.624 72.827C115.015 73.2621 116.298 73.119 116.49 72.5075C116.681 71.896 115.708 71.0477 114.316 70.6127C112.924 70.1777 111.641 70.3206 111.45 70.9321Z"   fill="#F67D93" >
</path>
</g>
<path d="M94 196.745L94 166.255C94 159.483 88.5037 154 81.7389 154L13.2611 154C6.48607 154 1 159.493 1 166.255L1 196.745C1 203.517 6.4963 209 13.2611 209L81.7389 209C88.5139 209 94 203.517 94 196.745Z"   fill="#63B2DC" >
</path>
<path d="M302 123.745L302 93.2545C302 86.4829 296.503 81 289.737 81L208.263 81C201.487 81 196 86.4929 196 93.2545L196 123.745C196 130.517 201.497 136 208.263 136L289.737 136C296.513 136 302 130.517 302 123.745Z"   fill="#63B2DC" >
</path>
<g  mask="url(#mask-yR91m2L-t7)">
<path d="M237.895 46.9198C231.245 54.6597 236.315 67.579 246.415 66.9695C252.745 66.5891 256.974 51.9996 269.134 57.9593C281.294 63.9196 288.544 47.4098 279.734 42.3794C272.494 38.25 264.915 31.8498 263.855 24.9297C262.805 18.0101 258.435 10.0199 250.904 8.25027C246.205 7.14019 241.835 12.5504 241.835 12.5504C234.515 11.5104 245.365 38.25 237.895 46.9198Z"   fill="#18325C" >
</path>
<path d="M253.527 181.49C253.897 171.44 253.887 158.24 249.906 146.79C249.906 146.79 242.713 141.74 238.442 146.26C238.162 146.55 242.764 167.7 245.284 183.419C245.444 184.389 245.584 185.329 245.724 186.249C246.665 192.559 247.165 197.608 246.705 199.439C245.204 205.338 239.512 211.018 239.512 211.018C239.512 211.018 247.775 214.328 253.637 202.629C253.637 202.629 255.287 200.989 253.567 196.629C252.937 195.039 253.117 191.039 253.357 185.679C253.407 184.359 253.477 182.959 253.527 181.49Z"   fill="#F6B3B3" >
</path>
<path d="M250.17 207.711L251.24 211.951L251.95 214.74L254.44 214.56L254.89 204.312L254.98 202.322C254.98 202.322 251.83 201.082 250.17 207.711Z"   fill="#E65783" >
</path>
<path d="M250.18 207.701L251.25 211.94C252.27 209.171 253.02 206.011 254.89 204.312L254.98 202.322C254.98 202.322 251.83 201.083 250.18 207.701Z"   fill="#DE4373" >
</path>
<path d="M250.311 209.51C251.351 206.451 252.33 203.301 254.98 202.322C254.98 202.322 255.1 200.322 254.75 198.752C254.61 198.153 254.41 197.623 254.1 197.283C254 197.173 253.88 197.073 253.74 197.013C253.39 196.853 249.631 204.141 247.101 208.13C244.571 212.119 241.602 211.649 239.792 210.42C239.792 210.42 238.892 210.83 237.822 211.429C237.342 211.689 236.832 211.999 236.342 212.319C234.773 213.359 233.502 214.579 234.682 215.298C235.122 215.558 246.011 216.688 247.871 214.559C248.991 213.279 249.661 211.409 250.311 209.51Z"   fill="#E65783" >
</path>
<path d="M253.73 197.013C253.38 196.853 249.62 204.141 247.09 208.13C244.56 212.12 241.59 211.65 239.78 210.42C239.78 210.42 238.88 210.83 237.81 211.43C239.04 212.629 242.71 213.859 245.73 210.67C249.25 206.951 248.8 204.811 254.1 197.283C253.99 197.163 253.87 197.063 253.73 197.013Z"   fill="#ED6890" >
</path>
<path d="M247.69 214.039C245.91 216.348 235.772 215.458 235.072 214.749C234.382 214.039 236.342 212.329 236.342 212.329C234.772 213.369 233.502 214.589 234.682 215.309C235.122 215.568 246.01 216.698 247.87 214.569C248.99 213.289 249.66 211.42 250.31 209.52C250.26 209.65 249.41 211.8 247.69 214.039Z"   fill="#DE4373" >
</path>
<path d="M270.612 208.49C270.612 208.5 270.612 208.5 270.612 208.5C270.932 209.56 271.332 210.63 271.822 211.65C273.661 215.45 276.511 217.76 278.111 218.29C279.55 218.77 280.57 218.61 281.49 216.34C282.55 213.72 281.58 209.56 280.22 205.83C280.21 205.83 280.21 205.82 280.21 205.82C278.62 201.47 276.511 197.71 276.511 197.71L269.392 197.18C269.392 197.18 268.913 202.85 270.612 208.49Z"   fill="#E65783" >
</path>
<path d="M274.921 182.208C274.991 173.948 274.841 163.039 272.031 155.139C267.761 143.18 268.321 140.03 268.321 140.03L257.15 142.9C257.1 143.7 264.141 169.899 265.551 176.608C265.871 178.108 266.31 180.398 266.801 183.048C267.031 184.287 267.271 185.598 267.52 186.947C268.701 193.427 269.971 200.707 270.531 203.877C270.841 205.646 271.441 207.346 272.371 208.876C273.611 210.926 275.571 212.966 278.111 211.896C282.671 209.976 275.491 198.197 274.971 192.087C274.861 190.857 274.851 189.107 274.871 187.007C274.881 185.557 274.901 183.937 274.921 182.208Z"   fill="#F6B3B3" >
</path>
<path d="M274.749 212.679C277.259 214.689 280.058 214.569 280.418 210.309C280.778 206.05 276.519 197.71 276.519 197.71C276.519 197.71 281.488 210.659 278.109 211.899C272.47 213.969 269.57 198.42 269.57 198.42C270.81 207.47 272.239 210.659 274.749 212.679Z"   fill="#ED6890" >
</path>
<path d="M280.22 205.84C280.35 206.28 283.52 216.88 278.64 217.23C273.74 217.58 270.7 208.77 270.61 208.5C270.93 209.56 271.33 210.63 271.82 211.65C273.66 215.45 276.51 217.76 278.11 218.29C279.55 218.77 280.57 218.61 281.49 216.34C282.55 213.72 281.58 209.56 280.22 205.84Z"   fill="#DE4373" >
</path>
<g opacity="0.15">
<path d="M251.43 181.03L245.29 183.418C245.45 184.387 245.59 185.327 245.73 186.246C247.61 186.466 250.92 186.645 253.36 185.686C253.41 184.367 253.48 182.969 253.53 181.5C252.46 181.17 251.44 181.03 251.43 181.03Z"   fill="#6E341D" >
</path>
</g>
<g opacity="0.15">
<path d="M272.25 182.271L266.81 183.052C267.04 184.292 267.28 185.603 267.53 186.954C269.3 187.565 271.9 187.965 274.87 187.004C274.88 185.553 274.9 183.932 274.92 182.201C273.46 182.191 272.25 182.281 272.25 182.271Z"   fill="#6E341D" >
</path>
</g>
<path d="M276.01 162.923C274.569 152.133 272.949 140.623 272.239 137.713C270.819 131.893 276.18 101.514 273.589 102.694C270.999 103.863 256.948 102.694 256.948 102.694L254.808 109.463C254.808 109.463 253.977 135.173 254.658 143.733C255.338 152.293 264.189 183.772 264.189 183.772C265.198 184.463 267.389 185.763 270.459 186.003C274.689 186.332 277.77 184.413 278.72 183.772C278.16 179.012 277.2 171.772 276.01 162.923Z"   fill="url(#linear_fill_4dnWPPt_lF)" >
</path>
<path d="M243.248 183.877C243.958 185.116 255.44 185.477 257.08 181.487C257.08 181.487 248.939 112.209 248.399 111.499C247.879 110.788 232.257 111.569 232.257 111.569C231.506 112.209 242.538 182.637 243.248 183.877Z"   fill="url(#linear_fill_sM_YtQRQR8)" >
</path>
<path d="M216.385 93.18L217.774 92.5698L245.022 80.5702C245.022 80.5702 250.492 62.3102 252.562 51.1801C253.332 47.0401 253.632 43.8803 252.992 43.0198C250.972 40.2701 247.542 40.26 247.542 40.26C245.902 41.9799 243.992 45.77 242.152 50.1201C242.052 50.3698 241.943 50.6202 241.843 50.8699C238.113 59.86 234.773 70.8102 234.773 70.8102L211.485 79.3499C210.005 81.6101 212.135 86.23 214.035 89.51C215.255 91.6199 216.385 93.18 216.385 93.18Z"   fill="#EDF5FD" >
</path>
<path d="M241.85 50.8703C240.56 55.7902 233.92 82.7602 233.92 82.7602L214.04 89.5101C215.26 91.6201 216.39 93.1801 216.39 93.1801L217.78 92.5702L245.03 80.5701C245.03 80.5701 250.5 62.3101 252.57 51.18L242.16 50.12L242.06 50.1101C242.04 50.1601 241.97 50.4202 241.85 50.8703Z"   fill="#D2D9E0" >
</path>
<path d="M227.07 150.869C227.07 150.869 230.89 152.459 235.99 153.049C237.76 153.259 239.68 153.349 241.65 153.21L243.18 136.309L243.25 135.569L246.99 154.279C246.99 154.279 272.93 158.439 279.8 151.339C279.8 151.339 277.38 44.2703 260.7 38.2302C260.7 38.2302 252.32 42.9206 247.71 39.4908C247.46 39.7007 245.2 42.7201 242 53.8106C241.94 54.0205 241.88 54.2304 241.82 54.4402C241.61 55.2001 241.39 55.9799 241.17 56.8101C241.08 57.1302 240.99 57.4702 240.9 57.8103C236.83 73.3496 231.59 101.34 227.07 150.869Z"   fill="#EDF5FD" >
</path>
<path d="M240.76 46.0403L243 46.7803L240.2 50.3303L245.89 64.8302C245.89 64.8302 245.95 41.4301 247.7 39.4802L245.74 39.6503C242 42.1303 240.76 46.0403 240.76 46.0403Z"   fill="#EDF5FD" >
</path>
<path d="M256.65 33.1498C256.65 32.2999 256.74 31.5101 256.98 30.8601C256.98 30.8601 253.09 32.9298 249.94 33.4298C249.94 33.4298 249.96 35.3594 249.48 37.3292C249.19 38.4889 248.73 39.6689 247.98 40.4787C247.98 40.4787 249.47 49.1674 257.99 40.1687C257.99 40.1687 256.67 36.2793 256.65 33.1498Z"   fill="#F6ACAC" >
</path>
<path d="M256.98 30.8601C256.98 30.8601 253.09 32.9301 249.94 33.4301C249.94 33.4301 249.96 35.3601 249.48 37.3301C250.81 37.0401 254.36 35.8901 256.65 33.1501C256.64 32.3001 256.74 31.5001 256.98 30.8601Z"   fill="#F49897" >
</path>
<path d="M254.631 100.862C254.781 106.865 265.51 102.413 265.48 101.753L265.93 99.9421L256.781 94.79C256.411 95.0001 254.571 98.3715 254.631 100.862Z"   fill="#F4A284" >
</path>
<path d="M245.965 64.5455C245.965 64.7056 247.395 60.5648 250.006 57.3942C255.337 50.913 258.238 39.1809 258.018 39.3011C255.478 40.5613 253.527 41.0913 252.057 41.2112L250.366 43.8519L250.366 41.1514C249.236 40.9612 248.946 40.4711 248.556 40.081C248.496 40.0212 248.436 39.9611 248.366 39.9111C248.065 39.671 247.735 39.4909 247.695 39.471C244.134 40.8913 246.035 64.1354 245.965 64.5357L245.965 64.5455Z"   fill="#498DE6" >
</path>
<path d="M253.04 114.69L266.19 114.69L266.19 98.2201C257.3 100.21 252.05 97.4502 252.05 97.4502L253.04 114.69Z"   fill="#F7FBFF" >
</path>
<path d="M252.49 114.707L265.089 114.707C261.839 114.565 252.488 113.041 252.05 100.044C252.04 99.7642 252.49 114.707 252.49 114.707ZM266.186 114.707L265.089 114.707C265.738 114.736 266.144 114.709 266.186 114.707ZM266.19 114.707C266.19 114.707 266.189 114.707 266.186 114.707L266.19 114.707Z" fill-rule="evenodd"  fill="#D2D9E0" >
</path>
<path d="M248.362 39.9102C248.062 39.6703 247.732 39.4903 247.692 39.4702C244.136 40.8902 246.034 64.1293 245.964 64.5294L245.964 64.5395C245.984 64.6194 247.752 59.1594 250 57.3895C244.376 56.8695 247.752 42.1502 248.362 39.9102Z"   fill="#417DCC" >
</path>
<path d="M241.82 54.4302C241.61 55.1902 241.39 55.9702 241.17 56.8002C241.08 57.1202 240.99 57.4602 240.9 57.8002L245.96 64.7702L241.82 54.4302Z"   fill="#D2D9E0" >
</path>
<path d="M261.22 48.34L260.51 46.4L261.14 46.16L260.65 43.51L258.02 45.1799C258.02 45.19 247.7 55.7899 245.92 64.84C245.92 64.84 248.77 55.7899 261.22 48.34Z"   fill="#D2D9E0" >
</path>
<path d="M258.019 39.3002C258.019 39.3002 258.019 39.6502 254.999 44.44C247.35 56.55 245.93 64.8401 245.93 64.8401C247.13 60.2002 249.69 57.6401 252.189 54.8502C252.239 54.79 257.678 49.0401 260.158 47.4501L259.618 45.5401L261.578 44.6101C261.57 44.6085 262.255 40.6677 259.798 39.1201C259.438 39.1201 258.578 39.2801 258.019 39.3002ZM261.578 44.6101L261.578 44.6101C261.578 44.6101 261.578 44.6101 261.578 44.6101Z" fill-rule="evenodd"  fill="#EDF5FD" >
</path>
<path d="M266.74 37.3337C263.5 36.2536 260.69 38.2235 260.69 38.2235C259.62 45.5028 267.98 70.5117 267.98 70.5117L253.93 90.9102C254.1 95.3503 265.95 99.37 265.95 99.37L266.73 98.0698L282 72.5714C282 72.5714 270.47 38.5834 266.74 37.3337Z"   fill="#EDF5FD" >
</path>
<path d="M261.151 46.2174C261.054 45.8516 261 45.6501 261 45.6501C261.004 45.687 261.057 45.8857 261.151 46.2174ZM265.85 67.3302C266.38 73.0101 253.93 90.9301 253.93 90.9301C253.93 90.9301 265.3 75.6604 266.92 73.9003C268.788 71.8701 271.801 70.285 272.062 70.1755C271.771 70.2296 268.08 70.4803 268.08 70.4803C267.63 69.4602 275.28 69.28 275.28 69.28C275.28 69.28 270.69 68.6003 269.05 66.9702C266.796 64.725 262.058 49.3895 261.151 46.2174C261.92 49.111 265.371 62.2876 265.85 67.3302ZM272.08 70.1702C272.081 70.1683 272.075 70.1701 272.062 70.1755C272.073 70.1734 272.079 70.1716 272.08 70.1702Z" fill-rule="evenodd"  fill="#D2D9E0" >
</path>
<path d="M253.93 90.9202C254.1 95.3601 265.95 99.3802 265.95 99.3802L266.73 98.0802C265.33 96.1802 256.66 96.0601 253.93 90.9202Z"   fill="#D2D9E0" >
</path>
<path d="M245.93 65.2206C243.62 76.4318 237.58 136.952 236 153.053C237.77 153.263 239.69 153.352 241.66 153.212L243.19 136.312L243.25 135.563C241.992 111.843 245.906 65.3848 245.93 65.2206ZM245.93 65.2202C245.93 65.2202 245.93 65.2204 245.93 65.2206C245.93 65.2205 245.93 65.2204 245.93 65.2202Z" fill-rule="evenodd"  fill="#D2D9E0" >
</path>
<path d="M256.779 12.9159C256.779 12.9159 250.468 8.41624 244.858 12.016C241.587 14.1157 241.687 16.0457 242.527 19.5854C242.707 20.3454 242.927 21.1654 243.147 22.0854C244.407 27.2948 240.737 31.8945 245.028 34.2545C248.308 36.0543 253.058 34.4745 256.349 31.2545C257.369 30.2548 258.249 29.0948 258.899 27.8348C261.659 22.5051 261.169 16.1057 256.779 12.9159Z"   fill="#F6ACAC" >
</path>
<path d="M256.779 12.9166C256.779 12.9166 250.468 8.41553 244.858 12.0164C241.587 14.1167 241.687 16.0472 242.527 19.5879C243.738 20.3679 245.598 20.288 248.048 19.778C252.318 18.8877 253.388 25.399 254.279 27.7595C254.808 29.1798 255.879 30.9501 256.589 30.9501C257.609 29.9499 258.249 29.0997 258.899 27.8394C261.659 22.5085 261.169 16.1072 256.779 12.9166Z"   fill="#F49897" >
</path>
<path d="M241.52 34.1C241.51 34.0501 240.279 29.629 239.419 24.368C238.569 19.1767 238.179 15.5658 238.889 13.5855C239.549 11.7351 241.7 12.3352 241.79 12.3652L241.84 12.1951C241.82 12.1851 239.449 11.5151 238.729 13.5254C238.009 15.546 238.389 19.1767 239.249 24.3978C240.109 29.669 241.34 34.1101 241.35 34.1501L241.52 34.1Z"   fill="#18325C" >
</path>
<path d="M256.94 9.72012C256.8 9.70006 256.65 9.69022 256.62 9.67017L256.54 9.83022C256.6 9.86012 256.7 9.87033 256.92 9.90023C258.209 10.0603 262.13 10.52 263.319 16.16C263.799 18.3903 265.139 19.3 266.569 20.2702C268.369 21.4901 270.229 22.7502 270.669 26.8002C271.618 35.5003 273.749 36.5 276.218 37.6601C276.478 37.7903 276.748 37.9103 277.018 38.0503C281.348 40.2401 283.168 42.6603 283.098 46.1302L283.278 46.1302C283.348 42.5801 281.498 40.1103 277.088 37.8902C276.818 37.7502 276.548 37.62 276.288 37.5001C273.869 36.3603 271.779 35.3803 270.839 26.7801C270.389 22.6401 268.409 21.3002 266.659 20.1203C265.269 19.1702 263.949 18.2802 263.489 16.1203C262.979 13.6702 261.879 11.8902 260.229 10.8201C258.9 9.95018 257.58 9.80033 256.94 9.72012Z"   fill="#214580" >
</path>
<path d="M246.78 20.1401C245.169 20.0901 243.919 19.5401 243.079 18.5101C241.368 16.3901 241.898 12.9201 241.908 12.8901L241.738 12.8601C241.728 12.9001 241.178 16.4501 242.949 18.6201C243.819 19.6901 245.109 20.2601 246.78 20.3101L246.78 20.1401Z"   fill="#1D417A" >
</path>
<path d="M245.97 21.49C244.399 21.1 243.299 20.29 242.699 19.1001C241.468 16.6601 242.729 13.39 242.739 13.36L242.579 13.29C242.569 13.33 241.278 16.67 242.549 19.18C243.179 20.4201 244.319 21.26 245.94 21.67L245.97 21.49Z"   fill="#1D417A" >
</path>
<path d="M271.503 33.2262C270.713 30.9062 270.503 28.446 269.972 26.0559C269.402 23.5061 267.982 21.9158 265.492 20.4958C263.302 19.2461 263.012 18.156 262.471 15.7059C261.761 12.5156 260.161 11.0956 257.851 9.85557C255.831 8.76552 251.711 7.61548 249.13 7.90574C246.06 8.24543 241.3 9.23577 241.3 13.9357C241.3 14.1156 241.32 14.6657 241.34 14.6759C241.55 16.9958 243.73 18.9858 246.07 18.9558C246.981 18.9461 247.86 18.6761 248.77 18.6461C249.93 18.6157 251.09 19.0158 251.981 19.756C253.501 21.0058 254.121 23.0262 254.501 24.946C254.891 26.8663 255.151 28.8862 256.211 30.5361C257.231 32.1163 258.871 33.1962 260.581 33.9964C262.282 34.7966 264.092 35.3763 265.762 36.2466C266.932 36.8563 271.583 36.6966 274.993 42.6166C274.993 42.6268 275.003 42.6268 275.003 42.6365C275.433 43.4667 275.813 44.3066 276.143 45.1766C276.943 47.2667 277.933 49.857 280.163 50.097C282.124 50.2969 283.754 48.1966 283.633 46.2366C283.514 44.2766 282.134 42.5968 280.543 41.4366C278.963 40.2667 277.133 39.4665 275.523 38.3266C273.733 37.0464 272.213 35.3066 271.503 33.2262Z"   fill="#214580" >
</path>
<path d="M250.98 22.4309C250.61 22.4208 250.23 22.5208 249.89 22.8007C249.86 22.8207 249.83 22.8507 249.8 22.8807C249.53 23.1306 249.29 23.4905 249.1 24.0104C249.05 24.1403 249 24.2803 248.96 24.4302C248.94 24.4902 248.93 24.5502 248.91 24.6102L249.5 24.4302L251.62 23.7804L251.63 23.7804L253.03 23.3506C253.03 23.3506 252.04 22.4608 250.98 22.4309Z"   fill="#FFFFFF" >
</path>
<path d="M251.63 23.7804L251.64 23.7804L251.65 23.7704C251.6 23.2406 251.36 22.7708 250.99 22.4309C250.62 22.4208 250.24 22.5208 249.9 22.8007C249.87 22.8207 249.84 22.8507 249.81 22.8807C249.54 23.1306 249.3 23.4905 249.11 24.0104C249.06 24.1403 249.01 24.2803 248.97 24.4302C248.95 24.4902 248.94 24.5502 248.92 24.6102L249.51 24.4302L251.63 23.7804Z"   fill="#18325C" >
</path>
<path d="M244.15 23.5586C244.14 23.5686 244.13 23.5786 244.12 23.5886C244.09 23.6087 244.06 23.6287 244.03 23.6487C243.91 23.7388 243.79 23.849 243.66 23.9691L243.97 24.0492L245.09 24.3296L245.1 24.3296L245.64 24.4598L246.77 24.7401C246.77 24.7401 246.47 23.5586 245.66 23.2182C245.48 23.1481 245.27 23.118 245.04 23.1581C245.01 23.1681 244.98 23.1681 244.95 23.1781C244.71 23.2382 244.45 23.3483 244.16 23.5586C244.15 23.5586 244.15 23.5586 244.15 23.5586Z"   fill="#FFFFFF" >
</path>
<path d="M245.043 23.1681C245.013 23.1781 244.983 23.1781 244.953 23.1881C244.712 23.2482 244.452 23.3584 244.161 23.5687C244.151 23.5687 244.151 23.5687 244.151 23.5687C244.141 23.5787 244.131 23.5888 244.121 23.5988C243.971 23.7089 243.82 23.8291 243.66 23.9794L243.971 24.0595L245.093 24.34L245.103 24.34L245.644 24.4701C245.835 24.0695 245.835 23.6188 245.665 23.2282C245.484 23.1581 245.274 23.128 245.043 23.1681Z"   fill="#18325C" >
</path>
<path d="M248.37 28.1402L248.25 28.0102C247.3 28.9003 246.69 28.6203 246.53 28.5103L247.74 24.0502L247.56 24.0002L246.32 28.5702L246.36 28.6102C246.38 28.6302 246.6 28.8202 246.99 28.8202C247.33 28.8202 247.8 28.6702 248.37 28.1402Z"   fill="#F67D93" >
</path>
<path d="M252.223 21.6405C252.017 21.5089 249.946 20.1808 248.74 22.4201C248.74 22.4201 250.083 20.3521 252.223 21.6405ZM252.24 21.6506C252.234 21.6472 252.229 21.6438 252.223 21.6405C252.234 21.6475 252.24 21.6511 252.24 21.6506Z" fill-rule="evenodd"  fill="#18325C" >
</path>
<path d="M247.1 22.9702C247.1 22.9702 245.83 21.1507 243.83 22.4204C243.83 22.4204 245.65 21.3306 247.1 22.9702Z"   fill="#18325C" >
</path>
<path d="M249.89 29.42L249.76 29.29C248.64 30.41 247.74 30.32 247.31 30.16L247.25 30.33C247.4 30.38 247.61 30.43 247.86 30.43C248.38 30.43 249.09 30.22 249.89 29.42Z"   fill="#F6798F" >
</path>
<path d="M243.44 26.7859C243.367 27.1263 243.909 27.5296 244.649 27.6865C245.389 27.8434 246.048 27.6946 246.12 27.3542C246.192 27.0138 245.651 26.6108 244.91 26.4539C244.17 26.297 243.512 26.4455 243.44 26.7859Z"   fill="#F67D93" >
</path>
<path d="M250.733 25.602C249.698 25.8992 248.96 26.493 249.085 26.9283C249.21 27.3636 250.151 27.4755 251.186 27.1783C252.221 26.8811 252.959 26.2873 252.834 25.852C252.709 25.4167 251.768 25.3048 250.733 25.602Z"   fill="#F67D93" >
</path>
<path d="M230.04 90.7302L222.98 65.3701C222.98 65.3701 212.3 66.3501 205.8 66.98C203.11 67.2401 201.13 67.4501 200.92 67.5002L213.73 97.8401L231.87 97.3102L230.04 90.7302Z"   fill="#F6B84A" >
</path>
<path d="M216.399 66.1902L216.349 65.6006C216.329 65.4707 216.219 65.3708 216.089 65.3808L207.52 66.0703C207.39 66.0903 207.291 66.2002 207.301 66.3301L207.35 66.9196C207.371 67.0495 207.481 67.1494 207.61 67.1394L216.179 66.45C216.319 66.44 216.409 66.3201 216.399 66.1902Z"   fill="#F5943B" >
</path>
<path d="M230.04 90.7301C214.55 96.2503 207.29 73.3902 205.8 66.9802C203.11 67.2404 201.13 67.4502 200.92 67.5002L213.73 97.8402L231.87 97.3104L230.04 90.7301Z"   fill="#F6B036" >
</path>
<path d="M230.03 90.7302L222.97 65.3701C222.97 65.3701 212.29 66.35 205.79 66.9802C203.1 67.2402 201.12 67.4501 200.91 67.5002L222.31 66.26L231.87 97.3101L230.03 90.7302Z"   fill="#F5A153" >
</path>
<path d="M215.867 85.2505C214.787 85.2505 211.418 84.7203 211.418 84.7203C211.168 84.6803 210.918 84.6203 210.658 84.5704C210.629 84.5603 210.609 84.5603 210.589 84.5503C209.609 84.3403 208.609 84.0502 207.5 83.5801C207.34 83.5801 207.19 83.5901 207.04 83.6C206.31 83.6401 205.97 84.3202 205.98 84.7203C206 85.3305 206.25 85.8307 206.19 86.3807C206.16 86.6509 205.91 87.2709 206.08 87.7311C206.41 88.6013 206.86 88.7613 206.79 89.1514C206.6 90.2017 207.08 90.5117 207.68 90.9219C207.73 90.9519 207.57 92.2622 209.279 92.6923C210.139 92.9023 211.948 92.6923 212.658 92.5123C213.428 92.3222 213.987 91.8621 214.727 91.632C215.327 91.442 215.977 91.3119 216.037 91.0919C216.107 90.8219 215.997 90.6218 215.827 90.4918C215.487 90.3817 214.577 90.2918 212.168 91.0819C212.228 91.0619 212.378 91.0019 212.758 90.8418C214.197 90.2317 215.567 90.2117 215.987 89.5815C216.087 89.1715 215.727 88.7213 215.507 88.6113C217.646 87.9011 215.687 86.8408 215.687 86.8408C217.286 86.6608 217.286 85.2405 215.867 85.2505Z"   fill="#F6B3B3" >
</path>
<path d="M212.166 91.0659C212.226 91.0459 212.376 90.9859 212.757 90.826C214.197 90.216 215.567 90.1961 215.988 89.5662C216.008 89.5461 216.028 89.5162 216.038 89.4861C216.068 89.4261 216.098 89.3661 216.128 89.3162C216.158 88.9462 215.878 88.6062 215.507 88.6062C217.648 87.8963 215.687 86.8364 215.687 86.8364C217.288 86.6565 217.288 85.2367 215.858 85.2367C214.777 85.2367 211.406 84.7067 211.406 84.7067C211.156 84.6668 210.906 84.6068 210.646 84.5568C210.616 84.5468 210.586 84.5167 210.576 84.5368C210.166 85.0567 210.346 85.8866 210.696 86.4765L210.516 86.8265C210.516 86.8265 210.166 88.0663 210.876 88.9562C210.796 89.1362 210.516 89.4961 210.696 90.1961C210.875 90.9011 211.34 91.3793 211.405 91.2584C211.405 91.2576 211.406 91.2567 211.406 91.2559C211.406 91.2568 211.405 91.2576 211.405 91.2584C210.878 92.3163 211.937 92.6756 212.656 92.4957C213.427 92.3057 213.987 91.8458 214.727 91.6158C215.327 91.4259 215.978 91.2959 216.038 91.076C216.108 90.8059 215.998 90.606 215.828 90.476C215.488 90.366 214.577 90.276 212.166 91.0659ZM211.406 91.2559C211.406 91.2567 211.405 91.2576 211.405 91.2584C211.405 91.2576 211.406 91.2568 211.406 91.2559Z" fill-rule="evenodd"  fill="#F89797" >
</path>
</g>
<g  mask="url(#mask-aviQdFewBX)">
<path d="M42.1 141.71C36.9598 145.54 24.1198 147.26 24.1198 147.26C22.0303 152.63 24.09 174.46 23.5398 187.56C23.2704 194.12 23.0797 200.93 21.9396 209.25C19.9303 223.93 16.1903 236.98 13.26 244.94C20.4003 247.62 31.8401 249.56 45.9499 249.56C62.4398 249.56 76.7098 246.45 84.16 243.24C80.4101 223.8 67.3397 207.869 65.9302 189.12C64.8298 174.49 67.9601 163.54 68.9697 150.75C66.1599 149.87 57.7498 145.71 54.0899 143.88C53.5298 143.53 50.9299 142.23 50.34 142C50.34 142 47.9897 148.43 42.1 141.71Z"   fill="#FF96C4" >
</path>
<path d="M65.2351 305.355C65.2351 305.355 57.0142 309.595 56.0041 303.755C55.6639 301.764 55.3239 310.765 55.6839 313.565C55.7441 313.975 55.804 314.255 55.8939 314.345C56.5641 315.065 61.0546 316.355 63.785 319.125C65.6553 321.025 76.8768 325.005 82.0175 319.655C82.6775 318.975 82.9776 318.335 83.0076 317.735C83.2376 313.155 67.3255 310.535 65.2351 305.355Z"   fill="#3F3F3F" >
</path>
<path d="M41.0389 325.341C41.1888 325.151 41.3287 324.962 41.4487 324.752C42.6686 322.762 42.6187 320.103 41.4088 318.573C39.529 316.224 38.2891 311.765 38.3491 310.695C38.419 309.415 38.0392 308.545 37.3691 307.976C35.2893 306.196 30.4799 307.316 28.1101 308.026C27.2702 308.276 26.7402 308.476 26.7402 308.476C26.7402 308.476 27.2502 312.235 27.6302 318.933C28.0101 325.631 34.0594 328.251 38.209 327.161C39.429 326.851 40.3689 326.181 41.0389 325.341Z"   fill="#3F3F3F" >
</path>
<path d="M29.8302 321.751C28.9602 319.531 28.3703 312.05 28.1102 308.04C27.2702 308.29 26.7402 308.49 26.7402 308.49C26.7402 308.49 27.2503 312.25 27.6303 318.951C28.0102 325.651 34.0601 328.271 38.2101 327.181C39.4302 326.871 40.3703 326.201 41.0402 325.361C36.4903 328.311 31.0503 324.821 29.8302 321.751Z"   fill="#303030" >
</path>
<path d="M67.5901 319.977C64.6701 318.807 63.2301 316.179 59.2301 314.619C57.8701 314.09 56.6503 313.76 55.6802 313.56C55.7403 313.97 55.8001 314.25 55.8903 314.34C56.5602 315.059 61.0502 316.349 63.7803 319.117C65.6501 321.016 76.8701 324.994 82.0101 319.647C82.6702 318.967 82.9701 318.328 83.0002 317.728C80.14 322.915 71.0501 321.356 67.5901 319.977Z"   fill="#303030" >
</path>
<path d="M70.5187 316.518C71.7989 318.949 74.1492 320.15 76.8797 320.15C78.9499 320.15 82.0803 318.869 81.2402 316.688C80.6601 315.187 77.0497 313.396 73.5991 312.186C70.6887 311.495 69.0485 313.747 70.5187 316.518Z"   fill="#4D4D4D" >
</path>
<path d="M41.4089 318.59C39.5294 316.24 38.2896 311.78 38.3496 310.71C38.4196 309.43 38.0397 308.56 37.3699 307.99L35.9602 308.73L36.99 308.73C36.99 308.73 37.2299 309.43 37.2299 311.33C37.2299 313.29 39.7593 318.04 41.039 320.13C42.2687 322.15 41.5088 324.59 41.4489 324.76C42.6685 322.77 42.6186 320.11 41.4089 318.59Z"   fill="#4D4D4D" >
</path>
<path d="M35.5723 319.67C32.6413 320.05 31.9511 320.84 31.9812 322.299C32.0012 323.769 35.0421 325.159 36.8626 325.509C38.8933 325.899 40.5038 325.169 40.6839 323.089C40.874 321.02 39.3435 319.22 39.1534 319.07C37.803 317.99 38.5031 319.29 35.5723 319.67Z"   fill="#4D4D4D" >
</path>
<g opacity="0.51">
<path d="M74.6823 319.286C76.7715 320.166 79.5903 319.286 80.32 318.765C81.0497 318.245 80.69 317.724 80.1401 317.554C79.6003 317.384 78.8706 317.904 78.8706 317.904C77.0513 319.466 73.0529 318.595 74.6823 319.286Z"   fill="#7A7A7A" >
</path>
</g>
<g opacity="0.51">
<path d="M39.0384 325.173C40.8383 324.602 39.6383 323.659 38.7083 324.17C36.8683 325.173 34.3984 323.509 34.7184 324.17C34.7584 324.561 37.2284 325.755 39.0384 325.173Z"   fill="#7A7A7A" >
</path>
</g>
<path d="M53.7002 305.923C57.1103 313.243 69.0302 308.763 69.0302 308.763L70.1303 276.512L69.7305 272.501C70.8002 271.332 70.8903 269.602 69.9602 268.322L69.0902 267.162C70.8302 262.872 70.7902 203.35 69.1302 202.42L25.1201 202.91L25.79 264.961L25.6099 268.252C24.5202 269.812 25.9701 272.232 25.9701 272.232L25.3903 307.643C30.2102 311.863 40.0503 308.833 40.0503 308.833C40.6602 307.313 41.3701 301.913 42.02 295.723C43.1202 285.192 44.0503 272.361 44.0503 272.361L44.2003 268.121C44.45 267.222 44.3904 266.272 44.0302 265.411L43.57 264.312L46.8004 233.481L47.0001 231.601L47.0001 231.621L47.0601 232.031L47.0801 232.151L47.0801 232.181L51.5103 262.032L51.8801 266.452C51.2302 268.902 51.3503 283.202 52.4604 291.182C52.7101 293.023 52.9202 294.792 53.0803 296.413L53.0803 296.423C53.6302 301.972 53.7002 305.923 53.7002 305.923Z"   fill="url(#linear_fill_LDRsBtW3IT)" >
</path>
<g opacity="0.24">
<path d="M53.4209 264.96C53.2509 264.64 47.7701 235.69 47.0701 231.99C47.0701 232.05 47.0801 232.12 47.0801 232.19L51.5107 262.04L51.8807 266.46C51.2306 268.91 51.3506 283.21 52.4607 291.19C52.7107 293.03 52.9207 294.8 53.0807 296.42C52.5607 286.87 53.5909 265.3 53.4209 264.96Z"   fill="#000000" >
</path>
</g>
<g opacity="0.24">
<path d="M42.35 264.2C42.87 267.88 42.02 295.41 42.01 295.71C43.11 285.18 44.04 272.35 44.04 272.35L44.1899 268.11C44.4399 267.21 44.38 266.26 44.02 265.4L43.5601 264.3L46.79 233.47C45.72 239.38 41.89 261.02 42.35 264.2Z"   fill="#000000" >
</path>
</g>
<path d="M38.0057 147.04C39.1563 150.451 42.8482 150.781 44.5892 149.701C45.9799 148.841 46.3301 146.82 46.3301 146.82L41.2374 143.37C41.0773 143.43 36.8651 143.63 38.0057 147.04Z"   fill="#FF69AB" >
</path>
<path d="M46.3201 146.79C46.3201 146.79 46.6802 148.711 47.9904 149.621C49.6507 150.771 52.4011 150.531 54.0413 147.32C55.6816 144.11 51.7409 143.94 51.5909 143.86L46.3201 146.79Z"   fill="#FF69AB" >
</path>
<path d="M34.8701 203.02L56.6901 203.02L56.6901 198.35L34.8701 198.35L34.8701 203.02Z"   fill="#794E29" >
</path>
<path d="M46.4763 212.81C55.1973 229.41 52.2971 245.98 52.2971 245.98C52.2971 245.98 78.8295 237.97 84.15 240.58C84.15 226.96 73.7488 210.6 67.8185 193.389C62.1577 176.98 70.4685 157.8 68.9585 150.69L52.4372 143.21C52.4661 143.227 56.7994 147.181 48.6367 170.16C48.6367 170.16 35.8156 192.51 46.4763 212.81ZM52.4371 143.21L52.4372 143.21C52.4372 143.21 52.4371 143.21 52.4371 143.21Z" fill-rule="evenodd"  fill="#EDF5FD" >
</path>
<path d="M24.1206 147.26L25.0707 154.95C25.0707 154.95 26.2007 181.811 19.3504 212.32C16.0801 226.9 13.26 244.94 13.26 244.94C20.6803 238.61 37.7816 244.95 37.7816 244.95C37.7816 244.95 41.2416 238.1 42.7318 223.65C44.1419 209.91 47.3221 186.97 42.6318 169.34C37.1613 148.76 41.9517 142.07 41.9517 142.07L24.1206 147.26Z"   fill="#EDF5FD" >
</path>
<path d="M21.76 217.701L22.25 219.461C22.2299 220.101 33.7082 224.442 33.8682 218.591C33.9382 216.171 31.9684 212.88 31.5685 212.67L21.76 217.701Z"   fill="#F6ACAC" >
</path>
<path d="M20.93 217.76L20.53 223.53L19.77 234.57L32.0301 235.85L34.19 236.07L36.33 220.12C26.32 221.03 20.93 217.76 20.93 217.76Z"   fill="#F7FBFF" >
</path>
<path d="M20.53 223.53L19.77 234.57L32.03 235.85C28.29 235.22 20.95 232.79 20.53 223.53Z"   fill="#D2D9E0" >
</path>
<path d="M32.3401 235.86C33.5401 236.07 34.3401 236.08 34.3401 236.08L32.3401 235.86Z"   fill="#D2D9E0" >
</path>
<path d="M62.9699 234.32L65.1101 233.78L77.26 230.7L74.73 219.9L73.4 214.25C73.3932 214.264 68.4725 218.281 58.26 218.87L62.9699 234.32ZM73.4 214.25L73.4 214.25C73.4 214.25 73.4 214.25 73.4 214.25Z" fill-rule="evenodd"  fill="#F7FBFF" >
</path>
<path d="M77.2701 230.69L74.7401 219.89C75.8001 229.11 68.7901 232.59 65.1201 233.77L77.2701 230.69Z"   fill="#D2D9E0" >
</path>
<path d="M34.96 155.42C34.96 155.42 36.9099 155.45 38.97 157.48L35.4301 160.41C35.4301 160.41 39.4799 174.56 44.58 179.93L39.89 143.29C39.89 143.29 36.26 144.07 34.96 155.42Z"   fill="#D2D9E0" >
</path>
<path d="M37.9099 145.869C36.8299 148.58 35.8799 154.66 35.8799 154.66C35.8799 154.66 39.2999 156.53 39.7099 157.85L35.8499 160.47C35.8499 160.47 37.1699 167.92 44.5899 179.92C44.5899 179.92 39.2799 145.2 41.6998 142.56C41.9498 142.28 38.9899 143.159 37.9099 145.869Z"   fill="#EDF5FD" >
</path>
<path d="M45.2268 178.165C47.9586 171.633 56.4275 160.84 56.4275 160.84L54.308 158.65L57.8972 157.86C58.3271 144.44 52.5584 143.53 52.5584 143.53C56.5668 144.964 47.6987 171.09 45.2268 178.165ZM44.6111 179.916C44.6284 179.862 44.8554 179.228 45.2268 178.165C44.9645 178.793 44.7551 179.381 44.6111 179.916ZM44.6101 179.92C44.6105 179.919 44.6108 179.917 44.6111 179.916C44.6103 179.919 44.61 179.92 44.6101 179.92Z" fill-rule="evenodd"  fill="#D2D9E0" >
</path>
<path d="M49.4305 157.27C44.5103 166.7 44.6002 179.92 44.6002 179.92C44.6002 179.92 51.1404 165.52 55.5306 160.73L53.8604 158.45L57.5205 156.81C57.5106 156.81 59.0806 145.1 50.6504 142.4C50.6504 142.4 54.5006 147.54 49.4305 157.27Z"   fill="#EDF5FD" >
</path>
<path d="M25.4401 183.881C25.4401 183.881 34.38 152.932 24.1201 147.142C19.6301 144.613 12.31 185.711 12.3201 185.741C12.45 186.701 17.0903 204.82 19.8102 216.66C19.9202 217.14 20.0302 217.61 20.1301 218.07C20.1301 218.07 32.73 217.37 35.7701 212.71C35.7701 212.71 27.65 188.201 25.4401 183.881Z"   fill="#EDF5FD" >
</path>
<path d="M18.49 186.06C18.49 186.06 18.49 186.06 18.49 186.06ZM18.49 186.06C18.49 186.06 18.49 186.06 18.49 186.06ZM24.12 147.13C32.8699 151.58 26.89 177.8 25.06 181.25C23.22 184.69 19.0799 184.08 19.0799 184.08C21.1699 185.03 23.7399 184.08 23.7399 184.08C22.6399 185.21 18.49 186.06 18.49 186.06C18.49 186.06 24.1001 185.51 24.13 185.33C24.1601 185.15 35.78 212.71 35.78 212.71L26.34 184.04C26.34 184.04 27.46 179.45 28.9 164.79C30.46 148.88 24.12 147.13 24.12 147.13Z" fill-rule="evenodd"  fill="#D2D9E0" >
</path>
<path d="M19.8103 216.66C19.9202 217.14 20.0302 217.61 20.1301 218.07C20.1301 218.07 32.73 217.37 35.7701 212.71C32.6912 216.496 19.8635 216.689 19.8103 216.66ZM19.8102 216.66C19.8101 216.66 19.8101 216.66 19.8103 216.66C19.8103 216.66 19.8102 216.66 19.8102 216.66Z" fill-rule="evenodd"  fill="#D2D9E0" >
</path>
<path d="M38.0014 181L38.6914 181.28C39.7414 178.941 40.3415 175.301 40.2514 171.782C40.1514 167.913 39.2415 164.814 37.7614 163.284C36.6713 162.165 35.2713 161.825 33.6912 162.325C32.5812 162.685 31.7312 163.414 31.1712 164.514C28.5911 169.593 32.9012 180.98 33.0812 181.46L33.7913 181.2C33.7513 181.09 29.4111 169.613 31.8512 164.814C32.3211 163.884 33.0013 163.284 33.9313 162.994C35.2413 162.585 36.3113 162.835 37.2113 163.764C40.1014 166.763 40.1115 176.321 38.0014 181Z"   fill="#000000" >
</path>
<path d="M41.7503 183.95L41.6404 183.81C39.6904 185.17 37.9804 185.59 36.5604 185.07C34.0804 184.16 33.2804 180.66 33.2704 180.62L33.0903 180.66C33.1203 180.81 33.9103 184.3 36.4903 185.24C36.8103 185.36 37.1604 185.43 37.5104 185.46C38.7703 185.55 40.1804 185.05 41.7503 183.95Z"   fill="#000000" >
</path>
<path d="M34.2402 184.972C37.0802 184.462 38.6702 180.7 38.7402 180.54L38.5702 180.47C38.5602 180.51 36.9402 184.302 34.2102 184.792C32.8202 185.042 31.3702 184.402 29.8902 182.901L29.7502 183.021C30.9703 184.262 32.1802 184.932 33.3603 185.012C33.6603 185.032 33.9503 185.012 34.2402 184.972Z"   fill="#000000" >
</path>
<path d="M41.3028 184.776C41.7634 185.057 42.4443 184.656 42.8849 184.255C43.1352 184.035 43.3055 183.544 43.1754 183.244C43.0452 182.943 42.8949 182.773 42.264 182.723C41.7333 182.683 40.802 183.073 40.7219 183.504C40.6919 183.674 40.6719 184.396 41.3028 184.776Z"   fill="#000000" >
</path>
<path d="M29.4693 181.809C28.8292 181.759 28.6492 181.919 28.4792 182.189C28.3092 182.469 28.3992 182.969 28.6092 183.229C28.9793 183.69 29.5993 184.18 30.0894 183.97C30.7794 183.68 30.8795 182.969 30.8695 182.789C30.8495 182.359 29.9994 181.839 29.4693 181.809Z"   fill="#000000" >
</path>
<path d="M33.4131 163.02L34.1429 162.84C34.1229 162.8 32.9832 158.59 33.1331 154.05C33.3331 148.06 35.5724 144.39 39.791 143.12C40.5708 142.88 41.3405 142.68 42.1002 142.51C42.1103 142.49 42.1103 142.48 42.1203 142.46C42.1203 142.47 42.1303 142.48 42.1403 142.5C42.1503 142.5 42.1603 142.49 42.1703 142.49C42.2903 142.21 42.4502 141.92 42.6201 141.67C41.5805 141.88 40.5607 142.13 39.571 142.44C35.0724 143.79 32.5934 147.8 32.3834 154.04C32.2335 158.67 33.4031 162.98 33.4131 163.02Z"   fill="#000000" >
</path>
<path d="M36.5701 142.65C36.5801 142.65 36.6001 142.64 36.6101 142.64C36.6001 142.62 36.6001 142.61 36.5901 142.6C36.5801 142.62 36.5801 142.64 36.5701 142.65Z"   fill="#000000" >
</path>
<path d="M56.9769 145.39C55.8774 143.89 53.1886 142.56 49.8301 141.82C50.05 142.13 50.2399 142.44 50.3499 142.69C53.3885 143.46 55.5475 144.68 56.3672 145.8C60.7852 151.8 50.8197 175.95 50.7197 176.19L51.4194 176.45C51.8393 175.44 61.6348 151.7 56.9769 145.39Z"   fill="#000000" >
</path>
<path d="M51.0099 173.281C49.4307 173.171 47.9814 173.871 47.1119 175.01C46.6521 175.62 46.3523 176.35 46.2923 177.149C46.1124 179.458 47.9314 181.467 50.3602 181.637C51.9794 181.757 53.4487 181.027 54.3082 179.848C54.7381 179.248 55.0178 178.538 55.0778 177.769C55.2577 175.47 53.4387 173.451 51.0099 173.281Z"   fill="#000000" >
</path>
<path d="M50.59 175.76C49.5572 175.76 48.72 176.557 48.72 177.54C48.72 178.523 49.5572 179.32 50.59 179.32C51.6227 179.32 52.46 178.523 52.46 177.54C52.46 176.557 51.6227 175.76 50.59 175.76Z"   fill="#6C7078" >
</path>
<g opacity="0.34">
<path d="M51.026 173.291C49.4453 173.181 47.9946 173.881 47.1242 175.021C47.0542 175.291 46.9941 175.571 46.9741 175.861C46.774 178.32 48.7149 180.46 51.2961 180.64C52.4066 180.709 53.4671 180.42 54.3175 179.85C54.7477 179.25 55.0277 178.54 55.0877 177.77C55.2677 175.471 53.4471 173.451 51.026 173.291Z"   fill="#6C7078" >
</path>
</g>
<path d="M26.984 142.148C27.3744 142.348 28.1444 142.688 29.1742 142.728C30.3941 142.768 31.294 142.358 31.6943 142.148C31.6544 141.698 31.6544 140.999 31.8944 140.209C32.2543 139.059 32.9344 138.309 33.3145 137.949C33.1045 138.299 32.6143 139.209 32.7343 140.428C32.8144 141.218 33.1144 141.818 33.3145 142.158C33.5142 142.318 34.1141 142.748 34.9942 142.808C36.1144 142.878 36.8844 142.298 37.0541 142.158C36.8343 141.698 36.5245 140.888 36.5142 139.858C36.4945 138.429 37.0541 137.379 37.3442 136.909C37.1942 137.359 36.9041 138.459 37.2641 139.788C37.6043 141.029 38.3242 141.818 38.6743 142.158C41.1645 142.428 43.9644 142.598 47.0141 142.588C49.8942 142.578 52.5342 142.408 54.9044 142.158C55.2643 141.788 55.6941 141.268 56.0845 140.578C56.5044 139.838 56.7243 139.149 56.8442 138.639C57.0444 139.079 57.3645 139.929 57.2942 141.008C57.2445 141.778 57.0242 142.388 56.8442 142.778C57.3045 142.988 58.2142 143.338 59.4145 143.308C60.4742 143.288 61.2845 142.978 61.7242 142.778C61.8343 142.418 61.9444 141.958 61.9843 141.438C62.0541 140.508 61.8845 139.738 61.7242 139.229C62.0344 139.658 62.4244 140.339 62.6643 141.228C62.8242 141.828 62.8645 142.368 62.8645 142.788C63.0243 142.868 63.3543 143.018 63.8042 143.028C64.2743 143.038 64.6244 142.888 64.7842 142.808C65.9343 142.148 67.3943 140.978 67.9844 139.239C68.7643 136.929 68.1943 133.419 63.1241 128.49C61.2142 126.63 62.5945 122.95 60.5543 117.551C57.8543 110.391 49.3744 106.932 45.0545 113.431C45.0545 113.431 41.5141 108.692 36.8943 113.421C30.6941 119.76 35.3743 124.95 29.2543 127.9C23.1244 130.849 21.1643 139.479 26.984 142.148Z"   fill="#85483C" >
</path>
<path d="M41.3401 143.52C41.3401 143.52 42.6301 146.9 45.8801 146.9C49.8201 146.9 51.47 144.23 51.4801 144.16C50.8001 142.62 50.3301 141.01 50.0901 139.37C49.7801 137.33 49.7401 136.62 49.7401 136.55C49.7401 136.54 49.7301 136.54 49.7301 136.54L42.9102 136.6C42.9001 136.6 42.9001 136.61 42.9001 136.61C42.8801 137 42.8601 137.38 42.82 137.76C42.5201 140.9 41.3401 143.52 41.3401 143.52Z"   fill="#F6ACAC" >
</path>
<path d="M49.73 136.7L42.9001 136.76C42.8801 137.15 42.8601 137.54 42.8201 137.921C43.9801 139.171 46.6001 141.083 50.1101 139.552C49.8901 138.191 49.7401 136.71 49.73 136.7Z"   fill="#F49897" >
</path>
<path d="M37.7088 126.669C37.7088 126.669 34.1492 123.719 33.4694 126.669C32.7893 129.618 34.1492 131.708 37.7088 129.909C37.7088 129.909 39.7985 138.617 47.1078 137.897C54.4169 137.178 55.7066 129.768 55.7066 129.768C55.7066 129.768 57.9765 130.558 58.9562 128.689C59.9361 126.819 56.9867 124.159 54.8768 125.739C54.8768 125.739 47.9976 122.789 47.1078 115.63C47.1078 115.63 38.4587 115.59 37.7088 126.669Z"   fill="#F6ACAC" >
</path>
<path d="M45.9498 111.491C45.1199 112.471 45.02 113.411 45.02 113.421L45.1 113.431C45.1 113.421 45.1899 112.501 46.0198 111.541C46.7796 110.661 48.3394 109.551 51.4487 109.331C54.938 109.081 57.3478 111.051 58.7573 112.751C60.487 114.841 61.6669 117.711 61.9167 120.451C62.6066 128.08 63.6464 128.77 66.1459 130.451C66.476 130.671 66.8158 130.9 67.1857 131.161C68.7555 132.28 68.8053 134.34 68.5754 135.88C68.1456 138.71 66.4359 141.61 65.336 142L65.3661 142.07C66.4859 141.67 68.2057 138.83 68.6454 135.89C68.8855 134.33 68.8255 132.24 67.2256 131.1C66.8559 130.84 66.5158 130.61 66.1858 130.39C63.7064 128.721 62.6766 128.031 61.9867 120.441C61.7468 117.691 60.557 114.791 58.8174 112.701C57.3976 110.991 54.9581 109.001 51.4387 109.251C48.2993 109.471 46.7196 110.591 45.9498 111.491Z"   fill="#85483C" >
</path>
<path d="M34.2406 115.644C35.6005 113.315 37.3403 112.345 38.5702 111.945C39.9002 111.515 40.9202 111.635 40.9302 111.635L40.9401 111.565C40.9301 111.565 39.8904 111.445 38.5505 111.885C37.3105 112.285 35.5406 113.265 34.1708 115.614C33.4707 116.804 33.2008 118.274 32.9107 119.833C32.4809 122.183 32.0309 124.613 30.0211 126.172C29.691 126.422 29.371 126.672 29.0511 126.912C26.0913 129.152 23.2916 131.271 23.6515 136.42L23.7315 136.42C23.3814 131.311 26.1613 129.202 29.101 126.972C29.4209 126.732 29.7509 126.482 30.071 126.232C32.1007 124.652 32.5508 122.203 32.9908 119.843C33.2807 118.294 33.5507 116.824 34.2406 115.644Z"   fill="#85483C" >
</path>
<path d="M55.4599 125.39C51.2798 124.96 49.13 122.28 48.0599 120.1C46.8899 117.74 46.7199 115.44 46.7199 115.42L46.6399 115.42C46.6399 115.44 46.8099 117.74 47.9798 120.12C48.6598 121.51 49.5499 122.66 50.6199 123.53C51.9599 124.61 53.5798 125.26 55.4399 125.45L55.4599 125.39Z"   fill="#85483C" >
</path>
<path d="M43.98 125.181C43.93 125.141 43.8899 125.111 43.8399 125.071C43.59 124.892 43.3299 124.772 43.0699 124.702C42.8 124.622 42.52 124.592 42.24 124.602C40.71 124.642 39.26 125.771 39.26 125.771L41.3 126.311L41.3101 126.311L42.11 126.52L44.41 127.13L45.27 127.36C45.24 127.28 45.2199 127.2 45.1999 127.14C45.14 126.95 45.07 126.78 45 126.61C44.72 125.961 44.36 125.501 43.98 125.181Z"   fill="#FFFFFF" >
</path>
<path d="M45.2001 127.12C45.14 126.93 45.0701 126.76 45.0001 126.59C44.7201 125.94 44.3601 125.48 43.9801 125.16C43.9301 125.12 43.8901 125.09 43.8401 125.05C43.5901 124.87 43.3301 124.75 43.0701 124.68C42.5401 125.17 42.1901 125.81 42.1101 126.52L44.4101 127.13L45.2701 127.36C45.2401 127.28 45.2201 127.2 45.2001 127.12Z"   fill="#18325C" >
</path>
<path d="M52.8899 125.648C52.8699 125.638 52.8498 125.618 52.8298 125.608L52.8198 125.598C52.3198 125.237 51.8598 125.027 51.4398 124.927C51.3898 124.917 51.3299 124.897 51.2699 124.887C50.8599 124.817 50.4999 124.847 50.1799 124.967C48.7299 125.468 48.1499 127.44 48.1499 127.44L50.1599 127.029L51.1198 126.829L51.1399 126.829L53.1298 126.429L53.6799 126.319C53.4599 126.108 53.2399 125.918 53.0399 125.758C52.9899 125.718 52.9399 125.678 52.8899 125.648Z"   fill="#FFFFFF" >
</path>
<path d="M50.1601 127.04L51.12 126.84L51.1401 126.84L53.1299 126.439L53.6799 126.329C53.4099 126.079 53.1399 125.858 52.89 125.658C52.8699 125.648 52.8499 125.628 52.8299 125.618L52.8199 125.608C52.3199 125.248 51.8599 125.037 51.44 124.937C51.39 124.927 51.3301 124.907 51.2701 124.897C50.8601 124.827 50.5002 124.857 50.1802 124.977C49.8602 125.598 49.8402 126.359 50.1601 127.04Z"   fill="#18325C" >
</path>
<path d="M48.4102 131.96L48.4601 131.92L47.0502 126.67L46.8501 126.72L48.2301 131.84C48.0501 131.96 47.3602 132.29 46.2701 131.27L46.1301 131.42C46.7701 132.03 47.3001 132.2 47.6901 132.2C48.1401 132.2 48.3902 131.98 48.4102 131.96Z"   fill="#F6798F" >
</path>
<path d="M40.21 123.722C42.6499 122.215 45.05 124.37 45.05 124.37C42.7 121.427 40.21 123.722 40.21 123.722Z"   fill="#18325C" >
</path>
<path d="M47.8406 124.589C49.7407 122.721 52.7601 123.94 52.7601 123.94C49.3093 122.018 47.8742 124.547 47.8406 124.589ZM47.8401 124.59C47.8402 124.59 47.8404 124.59 47.8406 124.589C47.8405 124.59 47.8403 124.59 47.8401 124.59Z" fill-rule="evenodd"  fill="#18325C" >
</path>
<path d="M47.3999 133.93L47.3298 133.73C46.8398 133.91 45.8099 134.02 44.5399 132.73L44.3899 132.88C45.2999 133.81 46.1098 134.05 46.6998 134.05C46.9798 134.05 47.2199 133.99 47.3999 133.93Z"   fill="#F6798F" >
</path>
<path d="M50.6928 128.369C49.6239 128.6 48.8367 129.154 48.9347 129.608C49.0327 130.061 49.9786 130.242 51.0475 130.011C52.1163 129.78 52.9034 129.225 52.8054 128.772C52.7075 128.318 51.7616 128.138 50.6928 128.369Z"   fill="#F67D93" >
</path>
<path d="M41.1682 128.84C41.0232 129.339 41.8602 130.02 43.0375 130.362C44.2148 130.705 45.2867 130.578 45.4317 130.08C45.5766 129.581 44.7396 128.899 43.5623 128.557C42.385 128.215 41.3131 128.342 41.1682 128.84Z"   fill="#F67D93" >
</path>
<path d="M71.3102 221.61C71.4202 221.15 71.54 220.68 71.66 220.2C74.6001 208.409 79.58 190.368 79.74 189.408C79.7501 189.378 73.21 148.155 68.67 150.605C58.3001 156.215 66.66 187.318 66.66 187.318C64.3699 191.608 55.78 215.98 55.78 215.98C58.74 220.69 71.3102 221.61 71.3102 221.61Z"   fill="#EDF5FD" >
</path>
<path d="M68.3701 187.56C68.3701 187.56 70.9201 188.55 73.0302 187.64C73.0302 187.64 68.8801 188.18 67.11 184.71C65.32 181.23 59.8401 154.91 68.6801 150.61C68.6801 150.61 62.3099 152.26 63.57 168.19C64.73 182.87 65.7701 187.48 65.7701 187.48L55.79 215.99C55.79 215.99 67.9299 188.63 67.96 188.81C67.9901 188.99 73.58 189.63 73.58 189.63C73.58 189.63 69.4501 188.71 68.3701 187.56Z"   fill="#D2D9E0" >
</path>
<path d="M71.3099 221.61C71.4199 221.15 71.5398 220.68 71.6598 220.2C71.5962 220.226 58.7866 219.813 55.78 215.98C58.7401 220.69 71.3099 221.61 71.3099 221.61ZM71.6599 220.2C71.6598 220.2 71.6598 220.2 71.6598 220.2C71.6601 220.2 71.6601 220.2 71.6599 220.2Z" fill-rule="evenodd"  fill="#D2D9E0" >
</path>
<path d="M44.9301 185.61C44.1569 185.61 43.53 186.205 43.53 186.94C43.53 187.674 44.1569 188.27 44.9301 188.27C45.7033 188.27 46.33 187.674 46.33 186.94C46.33 186.205 45.7033 185.61 44.9301 185.61Z"   fill="#00D5DF" >
</path>
<path d="M44.56 193.88C43.7867 193.88 43.1599 194.475 43.1599 195.21C43.1599 195.944 43.7867 196.54 44.56 196.54C45.3332 196.54 45.9599 195.944 45.9599 195.21C45.9599 194.475 45.3332 193.88 44.56 193.88Z"   fill="#00D5DF" >
</path>
<path d="M44.41 202.16C43.6368 202.16 43.01 202.755 43.01 203.49C43.01 204.224 43.6368 204.82 44.41 204.82C45.1832 204.82 45.81 204.224 45.81 203.49C45.81 202.755 45.1832 202.16 44.41 202.16Z"   fill="#00D5DF" >
</path>
</g>
<path d="M136.33 276.52L184.49 276.52L184.49 249.93L136.33 249.93L136.33 276.52Z"   fill="#3D5280" >
</path>
<path d="M107.26 284.22L107.26 293.88L213.48 293.88L213.48 284.22C213.48 279.93 210 276.45 205.71 276.45L115.03 276.45C110.74 276.45 107.26 279.93 107.26 284.22Z"   fill="#3D5280" >
</path>
<path d="M219.69 180.94L252.49 180.94L252.49 174.78L219.69 174.78L219.69 180.94Z"   fill="#FDEB84" >
</path>
<g opacity="0.69">
<path d="M252.49 170.89L219.69 171.21L219.69 177.37L252.49 177.05L252.49 170.89Z"   fill="#DF9D51" >
</path>
</g>
<path d="M253.02 166.03L219.15 166.03C217.21 166.03 215.63 167.29 215.63 168.84L215.63 171.97C215.63 173.52 217.21 174.78 219.15 174.78L253.02 174.78C254.96 174.78 256.54 173.52 256.54 171.97L256.54 168.84C256.54 167.29 254.97 166.03 253.02 166.03Z"   fill="#FDF1A3" >
</path>
<path d="M250.8 179.32L221.78 179.32C219.5 179.32 217.66 180.8 217.66 182.62L217.66 223.69C217.66 225.51 219.5 226.99 221.78 226.99L250.8 226.99C253.08 226.99 254.92 225.51 254.92 223.69L254.92 182.62C254.92 180.8 253.08 179.32 250.8 179.32Z"   fill="url(#linear_fill_3GVkHp6tuU)" >
</path>
<path d="M217.66 192.815L217.66 211.695C233.56 213.505 247.89 212.465 254.92 211.705L254.92 192.795C239.03 190.095 224.65 191.685 217.66 192.815Z"   fill="#FEF5D8" >
</path>
<g opacity="0.21">
<path d="M254.92 223.68L254.92 222.32C217.45 225.14 223.33 191.89 223.33 186.12C223.33 182.55 227.34 180.34 230.03 179.31L221.78 179.31C219.5 179.31 217.66 180.79 217.66 182.61L217.66 223.68C217.66 225.5 219.5 226.98 221.78 226.98L250.8 226.98C253.08 226.98 254.92 225.5 254.92 223.68Z"   fill="#C97610" >
</path>
</g>
<path d="M217.66 177.05L218.47 177.05L218.47 165.38L217.66 165.38L217.66 177.05Z"   fill="#FEF5D8" >
</path>
<path d="M220.9 176.72L221.71 176.72L221.71 165.05L220.9 165.05L220.9 176.72Z"   fill="#FEF5D8" >
</path>
<path d="M224.14 176.72L224.95 176.72L224.95 165.05L224.14 165.05L224.14 176.72Z"   fill="#FEF5D8" >
</path>
<path d="M227.38 176.72L228.19 176.72L228.19 165.05L227.38 165.05L227.38 176.72Z"   fill="#FEF5D8" >
</path>
<path d="M230.62 176.4L231.43 176.4L231.43 164.73L230.62 164.73L230.62 176.4Z"   fill="#FEF5D8" >
</path>
<path d="M233.86 176.4L234.67 176.4L234.67 164.73L233.86 164.73L233.86 176.4Z"   fill="#FEF5D8" >
</path>
<path d="M237.1 176.4L237.91 176.4L237.91 164.73L237.1 164.73L237.1 176.4Z"   fill="#FEF5D8" >
</path>
<path d="M240.34 176.08L241.15 176.08L241.15 164.41L240.34 164.41L240.34 176.08Z"   fill="#FEF5D8" >
</path>
<path d="M243.58 176.08L244.39 176.08L244.39 164.41L243.58 164.41L243.58 176.08Z"   fill="#FEF5D8" >
</path>
<path d="M247.23 176.4L248.04 176.4L248.04 164.73L247.23 164.73L247.23 176.4Z"   fill="#FEF5D8" >
</path>
<path d="M250.47 176.08L251.28 176.08L251.28 164.41L250.47 164.41L250.47 176.08Z"   fill="#FEF5D8" >
</path>
<path d="M253.71 176.08L254.52 176.08L254.52 164.41L253.71 164.41L253.71 176.08Z"   fill="#FEF5D8" >
</path>
<g opacity="0.56">
<path d="M224.05 166.03L219.15 166.03C217.21 166.03 215.63 167.29 215.63 168.84L215.63 171.97C215.63 173.52 217.21 174.78 219.15 174.78L253.02 174.78C254.96 174.78 256.54 173.52 256.54 171.97L256.54 171.21C235.32 174.78 226.88 169.49 224.05 166.03Z"   fill="#EAC27D" >
</path>
</g>
<path d="M241.68 202.26L241.68 201.02C241.68 200.74 241.46 200.52 241.18 200.52L231.04 200.52C230.76 200.52 230.54 200.74 230.54 201.02L230.54 202.26C230.54 202.54 230.76 202.76 231.04 202.76L241.18 202.76C241.46 202.76 241.68 202.54 241.68 202.26Z"   fill="#FF5E7F" >
</path>
<path d="M236.79 196.5L235.44 196.5C235.14 196.5 234.9 196.74 234.9 197.04L234.9 206.24C234.9 206.54 235.14 206.78 235.44 206.78L236.79 206.78C237.09 206.78 237.33 206.54 237.33 206.24L237.33 197.04C237.33 196.74 237.08 196.5 236.79 196.5Z"   fill="#FF5E7F" >
</path>
<path d="M193.521 224.36C193.731 226.22 195.301 227.62 197.171 227.62L210.969 227.62C212.839 227.62 214.409 226.22 214.619 224.36C215.469 216.76 217.068 198.34 213.049 195.56C211.149 194.24 209.74 192.16 208.83 190.48C208.51 189.89 208.26 189.36 208.06 188.92C207.74 188.21 207.58 187.75 207.58 187.75L205.66 187.75L205.62 186.19L203.86 186.58L202.101 186.97L202.08 187.75L200.561 187.75C200.561 187.75 200.401 188.21 200.081 188.92C199.881 189.36 199.631 189.9 199.311 190.48C198.401 192.17 196.991 194.25 195.091 195.56C192.862 197.1 192.362 203.44 192.502 210.08C192.612 215.43 193.142 220.97 193.521 224.36Z"   fill="#C754A8" >
</path>
<path d="M197.26 227.63L211.349 227.63C212.999 227.63 214.399 226.39 214.579 224.75C215.409 217.41 217.139 198.4 213.049 195.57C209.409 193.05 207.579 187.75 207.579 187.75L205.66 187.75L205.62 186.19L203.86 186.58C206.12 189.98 211.509 199.26 210.289 209.05C208.759 221.38 198.89 226.91 192.88 211.04C192.74 210.69 192.62 210.38 192.5 210.08C192.61 215.38 193.13 220.87 193.51 224.27C193.72 226.18 195.34 227.63 197.26 227.63Z"   fill="#BF3D9D" >
</path>
<path d="M197.02 186.58C197.02 187.87 198.06 188.91 199.35 188.91L209.17 188.91C210.45 188.91 211.5 187.87 211.5 186.58L211.5 183.8C211.5 182.51 210.46 181.47 209.17 181.47L199.35 181.47C198.06 181.48 197.02 182.52 197.02 183.8L197.02 186.58Z"   fill="#E0DDDE" >
</path>
<g opacity="0.11">
<path d="M197.02 186.58C197.02 187.87 198.06 188.91 199.35 188.91L209.17 188.91C210.45 188.91 211.5 187.87 211.5 186.58L211.5 183.8C211.5 182.51 210.46 181.47 209.17 181.47L206.43 181.47C206.26 183.59 204.95 187.64 197.02 186.17L197.02 186.58Z"   fill="#000000" >
</path>
</g>
<g opacity="0.36">
<path d="M208.83 190.47C208.51 189.88 208.26 189.35 208.06 188.91L200.09 188.91C199.88 189.35 199.63 189.89 199.31 190.47L208.83 190.47Z"   fill="#A33486" >
</path>
</g>
<path d="M195.45 209.24L212.66 209.24L212.66 201.42L195.45 201.42L195.45 209.24Z"   fill="#FF9C6B" >
</path>
<path d="M195.45 209.24L212.66 209.24L212.66 201.42L207.13 201.42C204.53 204.06 199.47 208.35 195.84 206.11C195.71 206.03 195.58 205.95 195.45 205.88L195.45 209.24Z"   fill="#FF8B52" >
</path>
<path d="M195.45 209.24L212.66 209.24L212.66 201.42L211.67 201.42C212.34 203.14 213.43 210.47 195.45 208.03L195.45 209.24Z"   fill="#E37F4D" >
</path>
<path d="M173.5 191.171C173.2 192.791 175.8 196.24 173.89 196.82C171.98 197.41 171.94 202.01 171.94 202.01L172.65 227.63L175.87 227.61L176.55 227.61L179.77 227.59L179.89 201.841C179.89 201.848 179.74 197.25 177.82 196.711C175.9 196.17 178.41 192.661 178.08 191.05C177.79 189.671 177.62 183.23 176.38 181.211C176.37 181.201 176.37 181.19 176.36 181.181C176.11 180.791 175.87 180.691 175.68 180.7C175.67 180.7 175.67 180.7 175.66 180.7C175.6 180.711 175.54 180.721 175.49 180.741C175.4 180.791 175.31 180.851 175.23 180.941C173.79 182.441 173.77 189.701 173.5 191.171ZM179.89 201.841C179.89 201.841 179.89 201.841 179.89 201.841L179.89 201.841Z" fill-rule="evenodd"  fill="url(#linear_fill_-b5ViIyaIE)" >
</path>
<path d="M172.58 206.44L173.15 226.72L179.21 226.68L179.3 206.64L179.3 206.36C178.59 206.21 177.28 205.87 175.83 205.86L175.79 205.86C174.46 205.88 173.28 206.25 172.59 206.4C172.58 206.41 172.58 206.42 172.58 206.43L172.58 206.44Z"   fill="url(#linear_fill_-simxQCqMM)" >
</path>
<path d="M175.8 205.851C174.7 205.871 173.74 205.97 173.16 206.11C172.83 206.19 172.63 206.29 172.6 206.39C172.59 206.4 172.59 206.41 172.59 206.42C172.59 206.43 172.59 206.43 172.59 206.43C172.6 206.54 172.81 206.65 173.17 206.729C173.77 206.869 174.77 206.959 175.9 206.949C177.12 206.949 178.24 206.819 178.84 206.64C179.13 206.56 179.3 206.46 179.3 206.36C179.3 206.27 179.13 206.18 178.84 206.08C178.24 205.93 177.12 205.841 175.89 205.851L175.8 205.851Z"   fill="url(#linear_fill_DFZxv98S9C)" >
</path>
<g opacity="0.23">
<path d="M174.069 198.08C173.611 198.083 173.262 201.511 173.29 205.736C173.318 209.96 173.712 213.383 174.171 213.38C174.629 213.377 174.978 209.949 174.95 205.725C174.922 201.5 174.528 198.077 174.069 198.08Z"   fill="#FFFFFF" >
</path>
</g>
<g opacity="0.23">
<path d="M174.106 214.29C173.742 214.292 173.452 215.212 173.46 216.344C173.467 217.477 173.769 218.392 174.134 218.39C174.498 218.388 174.787 217.468 174.78 216.336C174.772 215.203 174.471 214.288 174.106 214.29Z"   fill="#FFFFFF" >
</path>
</g>
<g opacity="0.23">
<path d="M174.472 185.513C174.325 187.207 174.499 188.607 174.863 188.638C175.226 188.67 175.64 187.322 175.787 185.627C175.935 183.932 175.76 182.533 175.397 182.502C175.034 182.47 174.62 183.818 174.472 185.513Z"   fill="#FFFFFF" >
</path>
</g>
<g opacity="0.23">
<path d="M174.132 190.197C174.083 190.764 174.267 191.243 174.542 191.266C174.818 191.29 175.08 190.849 175.128 190.283C175.177 189.716 174.993 189.237 174.718 189.214C174.442 189.19 174.18 189.631 174.132 190.197Z"   fill="#FFFFFF" >
</path>
</g>
<path d="M186.52 180.851C186.51 180.851 186.51 180.851 186.5 180.851C186.44 180.851 186.38 180.871 186.33 180.891C186.23 180.931 186.15 181.001 186.06 181.081C184.56 182.551 184.47 189.731 184.17 191.18C183.85 192.781 186.47 196.221 184.51 196.781C182.54 197.34 182.45 201.89 182.45 201.89L182.89 227.25L186.2 227.26L186.9 227.26L190.21 227.27L190.62 201.8C190.6 201.82 190.51 197.271 188.54 196.71C186.57 196.151 189.19 192.71 188.87 191.111C188.59 189.751 188.48 183.371 187.24 181.361C187.23 181.351 187.23 181.341 187.22 181.331C186.97 180.941 186.72 180.841 186.52 180.851Z"   fill="url(#linear_fill_jAKfeHVqyH)" >
</path>
<path d="M189.95 206.55L189.95 206.28C189.23 206.12 187.88 205.76 186.4 205.76L186.36 205.76C185 205.76 183.78 206.11 183.07 206.25C183.06 206.25 183.06 206.26 183.06 206.27L183.06 206.28L183.42 226.35L189.64 226.38L189.95 206.55Z"   fill="url(#linear_fill_dT3GNQF2FC)" >
</path>
<path d="M183.08 206.26C183.07 206.26 183.07 206.27 183.07 206.28C183.07 206.29 183.07 206.29 183.07 206.29C183.08 206.4 183.29 206.5 183.66 206.59C184.27 206.73 185.29 206.82 186.45 206.83C187.7 206.83 188.85 206.72 189.47 206.55C189.77 206.47 189.95 206.38 189.95 206.28C189.95 206.18 189.78 206.09 189.49 206.03C188.87 205.88 187.72 205.78 186.46 205.77L186.37 205.77C185.24 205.77 184.25 205.85 183.66 205.99C183.32 206.07 183.11 206.16 183.08 206.26Z"   fill="url(#linear_fill_RoUV3zEOV5)" >
</path>
<g opacity="0.33">
<path d="M183.75 205.556C183.732 209.737 184.098 213.128 184.567 213.13C185.036 213.132 185.432 209.744 185.45 205.564C185.468 201.383 185.103 197.992 184.633 197.99C184.164 197.988 183.768 201.375 183.75 205.556Z"   fill="#FFFFFF" >
</path>
</g>
<g opacity="0.23">
<path d="M183.81 216.057C183.805 217.178 184.105 218.088 184.481 218.09C184.857 218.092 185.165 217.184 185.17 216.063C185.175 214.942 184.874 214.032 184.499 214.03C184.123 214.029 183.815 214.936 183.81 216.057Z"   fill="#FFFFFF" >
</path>
</g>
<g opacity="0.51">
<path d="M185.134 185.591C184.962 187.267 185.127 188.656 185.5 188.694C185.874 188.732 186.315 187.405 186.487 185.729C186.658 184.053 186.493 182.664 186.12 182.626C185.746 182.588 185.305 183.915 185.134 185.591Z"   fill="#FFFFFF" >
</path>
</g>
<g opacity="0.51">
<path d="M184.773 190.338C184.715 190.899 184.896 191.376 185.176 191.405C185.456 191.433 185.73 191.002 185.787 190.442C185.844 189.882 185.664 189.404 185.384 189.375C185.103 189.347 184.83 189.778 184.773 190.338Z"   fill="#FFFFFF" >
</path>
</g>
<path d="M285.72 255.37L282.91 255.38L280.1 255.37L280.1 255.39L259.65 255.48L269.08 293.89L282.91 293.72L296.74 293.89L306.17 255.48L285.72 255.39L285.72 255.37Z"   fill="#F5C476" >
</path>
<path d="M273.557 228.356C270.138 224.965 265.979 225.275 264.42 225.395C264.24 225.415 264.08 225.425 263.98 225.425L263.98 226.696C264.11 226.696 264.3 226.686 264.53 226.666C266.059 226.556 269.628 226.286 272.617 229.246C276.846 233.437 278.245 242.248 276.776 255.43L278.085 255.57C279.595 241.998 278.075 232.847 273.557 228.356Z"   fill="#069176" >
</path>
<path d="M280.601 255.49C279.531 214.39 300.26 209.95 300.47 209.91L300.22 208.67C299.32 208.84 278.181 213.26 279.281 255.52L280.601 255.49Z"   fill="#069176" >
</path>
<path d="M300.4 237.93L300.29 236.67C300.12 236.68 283.33 238.27 283.17 255.5L284.49 255.51C284.63 239.45 299.76 237.98 300.4 237.93Z"   fill="#069176" >
</path>
<path d="M256.29 257.22L309.05 257.22L309.05 253.53L256.29 253.53L256.29 257.22Z"   fill="#EDB358" >
</path>
<path d="M240.783 222.777C227.591 234.698 240.783 261.57 240.783 261.57C243.423 245.089 284.327 228.597 276.416 219.727C268.505 210.856 260.585 222.267 260.585 222.267C260.585 222.267 253.974 210.856 240.783 222.777Z"   fill="#12A86F" >
</path>
<path d="M286.841 238.961C284.331 255.23 325.229 272.98 327.869 283.13C327.869 283.13 337.139 236.571 325.249 230.05C313.36 223.541 308.08 233.68 308.08 233.68C308.08 233.68 289.361 222.691 286.841 238.961Z"   fill="#12A86F" >
</path>
<path d="M328.71 227.91C328.71 227.91 326.07 203.819 306.278 198.749C286.487 193.679 289.127 212.7 289.127 212.7C302.328 203.829 328.71 227.91 328.71 227.91Z"   fill="#12A86F" >
</path>
<path d="M238.258 231.73C237.115 236.834 237.966 241.369 240.159 241.861C242.353 242.352 245.058 238.614 246.201 233.51C247.345 228.407 246.494 223.871 244.301 223.379C242.107 222.888 239.402 226.627 238.258 231.73Z"   fill="#15C280" >
</path>
<path d="M239.26 243.85C238.332 243.85 237.58 244.88 237.58 246.15C237.58 247.42 238.332 248.45 239.26 248.45C240.188 248.45 240.94 247.42 240.94 246.15C240.94 244.88 240.188 243.85 239.26 243.85Z"   fill="#15C280" >
</path>
<path d="M296.82 235.09C294.037 235.09 291.78 237.257 291.78 239.93C291.78 242.603 294.037 244.77 296.82 244.77C299.604 244.77 301.86 242.603 301.86 239.93C301.86 237.257 299.604 235.09 296.82 235.09Z"   fill="#15C280" >
</path>
<path d="M301.992 248.782C300.493 250.73 303.218 255.339 308.077 259.077C312.935 262.815 318.089 264.266 319.588 262.318C321.086 260.37 318.362 255.761 313.503 252.023C308.644 248.285 303.49 246.834 301.992 248.782Z"   fill="#15C280" >
</path>
<path d="M295.14 201.45C293.814 201.45 292.74 202.48 292.74 203.75C292.74 205.02 293.814 206.05 295.14 206.05C296.465 206.05 297.54 205.02 297.54 203.75C297.54 202.48 296.465 201.45 295.14 201.45Z"   fill="#15C280" >
</path>
<path d="M299.151 203.772C298.899 205.023 301.846 206.671 305.734 207.455C309.621 208.238 312.976 207.859 313.228 206.608C313.48 205.357 310.533 203.709 306.646 202.926C302.759 202.142 299.403 202.522 299.151 203.772Z"   fill="#15C280" >
</path>
<path d="M60.43 21.95C42.3981 21.95 27.78 29.2881 27.78 38.34C27.78 47.3918 42.3981 54.7299 60.43 54.7299C78.462 54.7299 93.08 47.3918 93.08 38.34C93.08 29.2881 78.462 21.95 60.43 21.95Z"   fill="#3D5280" >
</path>
<path d="M82.2599 64.01L79.3599 47.29L71.9299 50.31C72.16 51.24 82.2599 64.01 82.2599 64.01Z"   fill="#3D5280" >
</path>
<path d="M36.1401 34.2699L61.7101 34.2699L61.7101 33.1099L36.1401 33.1099L36.1401 34.2699Z"   fill="#F5F5F5" >
</path>
<path d="M63.8 34.2699L77.05 34.2699L77.05 33.1099L63.8 33.1099L63.8 34.2699Z"   fill="#F5F5F5" >
</path>
<path d="M36.1401 37.5299L77.0501 37.5299L77.0501 36.3699L36.1401 36.3699L36.1401 37.5299Z"   fill="#F5F5F5" >
</path>
<path d="M36.1401 41.4798L39.3901 41.4798L39.3901 40.3198L36.1401 40.3198L36.1401 41.4798Z"   fill="#F5F5F5" >
</path>
<path d="M40.79 41.4798L44.74 41.4798L44.74 40.3198L40.79 40.3198L40.79 41.4798Z"   fill="#F5F5F5" >
</path>
<path d="M46.8301 41.4798L77.0401 41.4798L77.0401 40.3198L46.8301 40.3198L46.8301 41.4798Z"   fill="#F5F5F5" >
</path>
<path d="M22.6599 297.38L316.67 297.38L316.67 293.89L22.6599 293.89L22.6599 297.38Z"   fill="#5A7BBF" >
</path>
<path d="M140.02 61.97L140.02 67.0299L134.59 67.0299L134.59 71.0799L140.02 71.0799L140.02 76.13L144.36 76.13L144.36 71.0799L149.8 71.0799L149.8 67.0299L144.36 67.0299L144.36 61.97L140.02 61.97Z"   fill="#8EB9F5" >
</path>
<path d="M139.93 38.0199L139.93 41.2699L142.72 41.2699L142.72 38.0199L146.21 38.0199L146.21 35.43L142.72 35.43L142.72 32.1799L139.93 32.1799L139.93 35.43L136.44 35.43L136.44 38.0199L139.93 38.0199Z"   fill="#8EB9F5" >
</path>
<path d="M68.1301 77.4399L65.3401 77.4399L65.3401 80.69L61.8501 80.69L61.8501 83.2799L65.3401 83.2799L65.3401 86.5299L68.1301 86.5299L68.1301 83.2799L71.6101 83.2799L71.6101 80.69L68.1301 80.69L68.1301 77.4399Z"   fill="#8EB9F5" >
</path>
<path d="M294.72 173.33L300.32 173.33L300.32 166.8L307.33 166.8L307.33 161.58L300.32 161.58L300.32 155.06L294.72 155.06L294.72 161.58L287.71 161.58L287.71 166.8L294.72 166.8L294.72 173.33Z"   fill="#8EB9F5" >
</path>
<path d="M302.77 137.67L302.77 140.99L307.23 140.99L307.23 145.14L310.8 145.14L310.8 140.99L315.26 140.99L315.26 137.67L310.8 137.67L310.8 133.52L307.23 133.52L307.23 137.67L302.77 137.67Z"   fill="#8EB9F5" >
</path>
<defs>
<clipPath id="clip-path-pd0VefSoJb">
<path d="M64 232L267 232L267 41L64 41L64 232Z" fill="white"/>
</clipPath>
<linearGradient id="linear_fill_CVxaoXXOGM" x1="122.19677734375" y1="309.95556640625" x2="114.283935546875" y2="165.7548828125" gradientUnits="userSpaceOnUse">
<stop offset="0.00534759322181344" stop-color="#3A5A92"  />
<stop offset="0.3012000024318695" stop-color="#334A7D"  />
<stop offset="0.7387999892234802" stop-color="#293663"  />
<stop offset="1" stop-color="#262F59"  />
</linearGradient>
<mask id="mask-yR91m2L-t7" style="mask-type:alpha" maskUnits="userSpaceOnUse">
<path d="M301 105.698L301 30.3022C301 13.5578 295.503 0 288.737 0L207.263 0C200.487 0 195 13.5823 195 30.3022L195 105.698C195 122.442 200.497 136 207.263 136L288.737 136C295.513 136 301 122.442 301 105.698Z"   fill="#63B2DC" >
</path>
</mask>
<linearGradient id="linear_fill_4dnWPPt_lF" x1="281.246337890625" y1="188.883056640625" x2="273.740478515625" y2="160.739013671875" gradientUnits="userSpaceOnUse">
<stop offset="0.00534759322181344" stop-color="#3A5A92"  />
<stop offset="0.3012000024318695" stop-color="#334A7D"  />
<stop offset="0.7387999892234802" stop-color="#293663"  />
<stop offset="1" stop-color="#262F59"  />
</linearGradient>
<linearGradient id="linear_fill_sM_YtQRQR8" x1="249.43359375" y1="189.23779296875" x2="245.289794921875" y2="152.60400390625" gradientUnits="userSpaceOnUse">
<stop offset="0.00534759322181344" stop-color="#3A5A92"  />
<stop offset="0.3012000024318695" stop-color="#334A7D"  />
<stop offset="0.7387999892234802" stop-color="#293663"  />
<stop offset="1" stop-color="#262F59"  />
</linearGradient>
<mask id="mask-aviQdFewBX" style="mask-type:alpha" maskUnits="userSpaceOnUse">
<path d="M93 184.937L93 125.063C93 111.767 87.5037 101 80.7389 101L12.2611 101C5.48607 101 0 111.786 0 125.063L0 184.937C0 198.233 5.4963 209 12.2611 209L80.7389 209C87.5139 209 93 198.233 93 184.937Z"   fill="#63B2DC" >
</path>
</mask>
<linearGradient id="linear_fill_LDRsBtW3IT" x1="51.054931640625" y1="320.52197265625" x2="44.685791015625" y2="204.45947265625" gradientUnits="userSpaceOnUse">
<stop offset="0.00534759322181344" stop-color="#3A5A92"  />
<stop offset="0.3012000024318695" stop-color="#334A7D"  />
<stop offset="0.7387999892234802" stop-color="#293663"  />
<stop offset="1" stop-color="#262F59"  />
</linearGradient>
<linearGradient id="linear_fill_3GVkHp6tuU" x1="236.146728515625" y1="174.7294921875" x2="236.4619140625" y2="236.1572265625" gradientUnits="userSpaceOnUse">
<stop offset="0.13120000064373016" stop-color="#FFE68D"  />
<stop offset="0.7407000064849854" stop-color="#FEC569"  />
<stop offset="1" stop-color="#FEB658"  />
</linearGradient>
<linearGradient id="linear_fill_-b5ViIyaIE" x1="175.617431640625" y1="181.73779296875" x2="176.488525390625" y2="232.265869140625" gradientUnits="userSpaceOnUse">
<stop offset="0.18150000274181366" stop-color="#E89660"  />
<stop offset="1" stop-color="#C26F39"  />
</linearGradient>
<linearGradient id="linear_fill_-simxQCqMM" x1="176.091064453125" y1="226.743896484375" x2="176.010009765625" y2="208.67822265625" gradientUnits="userSpaceOnUse">
<stop offset="0.18150000274181366" stop-color="#734A2F"  />
<stop offset="1" stop-color="#C26F39"  />
</linearGradient>
<linearGradient id="linear_fill_DFZxv98S9C" x1="176.00244140625" y1="206.98486328125" x2="175.998291015625" y2="206.0458984375" gradientUnits="userSpaceOnUse">
<stop offset="0.18150000274181366" stop-color="#734A2F"  />
<stop offset="1" stop-color="#C26F39"  />
</linearGradient>
<linearGradient id="linear_fill_jAKfeHVqyH" x1="186.409423828125" y1="181.82666015625" x2="186.7080078125" y2="231.82080078125" gradientUnits="userSpaceOnUse">
<stop offset="0.18150000274181366" stop-color="#1CE5E8"  />
<stop offset="1" stop-color="#00C0C2"  />
</linearGradient>
<linearGradient id="linear_fill_dT3GNQF2FC" x1="186.377685546875" y1="226.350830078125" x2="186.4990234375" y2="208.480224609375" gradientUnits="userSpaceOnUse">
<stop offset="0.18150000274181366" stop-color="#0D7173"  />
<stop offset="1" stop-color="#00C0C2"  />
</linearGradient>
<linearGradient id="linear_fill_RoUV3zEOV5" x1="186.51025390625" y1="206.805908203125" x2="186.516845703125" y2="205.875732421875" gradientUnits="userSpaceOnUse">
<stop offset="0.18150000274181366" stop-color="#0D7173"  />
<stop offset="1" stop-color="#00C0C2"  />
</linearGradient>
</defs>
</svg>
