<svg xmlns="http://www.w3.org/2000/svg" xmlns:xlink="http://www.w3.org/1999/xlink" width="310.610107421875" height="278.39013671875" viewBox="0 0 310.610107421875 278.39013671875" fill="none">
<path d="M147.172 19.3976C89.803 44.1878 125.792 122.667 62.9531 139.687C0.113869 156.708 7.80246 269.289 72.6732 248.499C137.541 227.708 169.212 188.867 227.279 217.638C285.359 246.409 293.178 153.809 239.031 69.9364C239.031 69.9364 204.541 -5.39488 147.172 19.3976Z"   fill="#D8E5F5" >
</path>
<g opacity="0.3">
<path d="M192.914 58.9182C169.105 97.5081 236.354 105.429 241.565 123.409C246.774 141.389 213.994 154.269 224.555 178.819C235.104 203.369 319.254 182.548 309.883 106.268C302.734 47.9992 261.284 37.5386 261.284 37.5386C261.284 37.5386 216.724 20.319 192.914 58.9182Z"   fill="#64A3F5" >
</path>
</g>
<g opacity="0.3">
<path d="M126.65 9.11284C83.4215 17.3227 87.6214 72.8495 118.39 80.4489C149.159 88.0489 136.739 59.0507 152.878 53.1709C163.518 49.2808 191.316 67.33 185.897 41.0214C184.127 32.4121 167.528 1.35331 126.65 9.11284Z"   fill="#64A3F5" >
</path>
</g>
<g opacity="0.3">
<path d="M66.8685 184.191C134.099 179.901 126.758 106.53 103.748 92.3299C84.7581 80.6199 70.1883 85.8799 66.8685 74.3397C63.5487 62.7906 77.9384 34.4707 48.6879 36.8402C19.4386 39.2008 12.5483 91.6803 12.5179 92.3195C12.5179 92.3195 -0.361633 188.481 66.8685 184.191Z"   fill="#64A3F5" >
</path>
</g>
<path d="M160.69 257.53C87.2644 257.53 27.74 262.2 27.74 267.96C27.74 273.72 87.2644 278.39 160.69 278.39C234.116 278.39 293.64 273.72 293.64 267.96C293.64 262.2 234.116 257.53 160.69 257.53Z"   fill="#D8E5F5" >
</path>
<path d="M81.2101 52.6101C60.2001 52.6101 43.0098 68.9497 41.6597 89.6101C41.6002 90.4798 41.5701 91.3598 41.5701 92.2501C41.5701 114.14 59.3201 131.89 81.2101 131.89C98.8705 131.89 113.83 120.34 118.95 104.39C120.19 100.57 120.85 96.4805 120.85 92.2501C120.85 70.3601 103.11 52.6101 81.2101 52.6101Z"   fill="#E3E2E0" >
</path>
<path d="M106.72 98.5402C100.83 115.02 77.3003 123.48 73.7501 123.26C34.8999 120.9 49.8103 75.3801 49.8103 75.3801C49.8103 75.3801 44.9098 81.5804 41.6598 89.6099C41.6002 90.4802 41.5701 91.36 41.5701 92.2501C41.5701 114.14 59.3203 131.89 81.2103 131.89C98.87 131.89 113.83 120.34 118.95 104.39C111.49 111.05 106.73 98.53 106.72 98.5402Z"   fill="#CECFD6" >
</path>
<path d="M76.99 55.8799C58.0855 55.8799 42.76 71.4829 42.76 90.7299C42.76 109.977 58.0855 125.58 76.99 125.58C95.8946 125.58 111.22 109.977 111.22 90.7299C111.22 71.4829 95.8946 55.8799 76.99 55.8799Z"   fill="#E3E2E0" >
</path>
<path d="M90.6 58.7694C90.6 58.7694 65.1407 47.0092 49.351 69.9092C32.8618 93.8296 52.6513 115.28 52.6513 115.28L90.6 58.7694Z"   fill="#EEEFEF" >
</path>
<path d="M105.863 111.147C124.193 83.2187 97.6118 62.8899 97.6118 62.8899L59.25 120.636C59.25 120.636 88.5418 137.546 105.863 111.147Z"   fill="#EEEFEF" >
</path>
<path d="M69.84 183.04C68.98 174.06 60.7603 167.02 50.7501 167.02C40.7399 167.02 32.5301 174.06 31.6602 183.04C31.61 183.56 31.5801 184.09 31.5801 184.62C31.5801 194.34 40.1602 202.22 50.7501 202.22C61.34 202.22 69.9201 194.34 69.9201 184.62C69.9201 184.09 69.9001 183.56 69.84 183.04Z"   fill="#FEC65E" >
</path>
<path d="M50.7502 167.02C40.2071 167.02 31.6602 174.192 31.6602 183.04C31.6602 191.888 40.2071 199.06 50.7502 199.06C61.2932 199.06 69.8402 191.888 69.8402 183.04C69.8402 174.192 61.2932 167.02 50.7502 167.02Z"   fill="#FED87C" >
</path>
<path d="M60.5869 187.717L61.117 186.696C61.237 186.466 61.147 186.176 60.9169 186.056L42.6235 176.613C42.3936 176.493 42.1034 176.583 41.9834 176.813L41.4533 177.834C41.3333 178.064 41.4233 178.354 41.6534 178.474L59.9468 187.917C60.1767 188.037 60.4669 187.947 60.5869 187.717Z"   fill="#FEFFFF" >
</path>
<path d="M276.62 97.7701C275.97 91.0399 269.82 85.77 262.32 85.77C254.82 85.77 248.67 91.0399 248.02 97.7701C247.98 98.16 247.96 98.5501 247.96 98.95C247.96 106.23 254.39 112.13 262.32 112.13C270.25 112.13 276.68 106.23 276.68 98.95C276.68 98.5599 276.66 98.16 276.62 97.7701Z"   fill="#FEC65E" >
</path>
<path d="M262.32 85.77C254.422 85.77 248.02 91.1427 248.02 97.77C248.02 104.397 254.422 109.77 262.32 109.77C270.218 109.77 276.62 104.397 276.62 97.77C276.62 91.1427 270.218 85.77 262.32 85.77Z"   fill="#FED87C" >
</path>
<path d="M269.691 101.27L270.091 100.5C270.181 100.32 270.111 100.11 269.941 100.02L256.24 92.9493C256.06 92.8593 255.85 92.9293 255.759 93.0994L255.359 93.8695C255.269 94.0495 255.339 94.2595 255.509 94.3496L269.211 101.42C269.381 101.511 269.601 101.441 269.691 101.27Z"   fill="#FEFFFF" >
</path>
<path d="M25.135 143.691C32.5448 140.161 36.1244 131.611 33.1348 124.591C32.9747 124.211 32.7946 123.841 32.5946 123.481C29.2248 117.28 21.3052 114.931 14.2956 118.271C7.28589 121.611 3.70593 129.431 5.86589 136.201C5.98603 136.591 6.12586 136.98 6.2958 137.371C9.28575 144.391 17.7253 147.22 25.135 143.691Z"   fill="#FEAFD0" >
</path>
<path d="M12.6436 119.144C5.65795 123.42 2.92589 131.675 6.54141 137.582C10.1569 143.489 18.751 144.811 25.7366 140.536C32.7223 136.26 35.4543 128.005 31.8388 122.098C28.2233 116.191 19.6292 114.869 12.6436 119.144Z"   fill="#FECFE3" >
</path>
<path d="M24.1348 123.569C24.2848 123.369 24.2547 123.079 24.0648 122.919L23.5048 122.459C23.3148 122.299 23.0348 122.339 22.8848 122.539L13.0952 135.321C12.9453 135.521 12.9752 135.811 13.1652 135.971L13.7252 136.431C13.9051 136.591 14.1852 136.551 14.3452 136.351L24.1348 123.569Z"   fill="#FEFFFF" >
</path>
<path d="M181.925 32.2906C189.335 28.7607 192.914 20.2108 189.925 13.1905C189.765 12.8106 189.585 12.4406 189.385 12.0806C186.015 5.88059 178.095 3.53065 171.086 6.87072C164.076 10.2108 160.496 18.0307 162.656 24.8005C162.776 25.2007 162.916 25.5906 163.086 25.9705C166.076 32.9907 174.515 35.8205 181.925 32.2906Z"   fill="#FEAFD0" >
</path>
<path d="M169.424 7.74454C162.438 12.0203 159.706 20.2752 163.321 26.1821C166.937 32.089 175.531 33.4114 182.517 29.1356C189.502 24.8598 192.234 16.605 188.619 10.698C185.003 4.79111 176.409 3.46877 169.424 7.74454Z"   fill="#FECFE3" >
</path>
<path d="M180.925 12.1784C181.075 11.9784 181.045 11.6886 180.855 11.5286L180.295 11.0687C180.105 10.9087 179.825 10.9487 179.675 11.1487L169.885 23.9258C169.735 24.1257 169.765 24.4156 169.955 24.5756L170.515 25.0355C170.695 25.1855 170.975 25.1555 171.135 24.9555L180.925 12.1784Z"   fill="#FEFFFF" >
</path>
<path d="M86.142 121.272C81.3922 129.522 91.8321 137.963 100.252 135.522C105.522 133.992 106.322 120.852 117.742 123.572C129.162 126.292 132.142 110.941 123.732 108.371C116.832 106.271 109.192 102.301 106.982 96.6507C104.772 91.0005 99.5521 85.0799 92.8522 85.0198C88.6722 84.98 86.0019 90.3802 86.0019 90.3802C79.6119 90.9002 92.7919 109.731 86.142 121.272Z"   fill="#18325C" >
</path>
<path d="M93.9625 249.204C92.662 254.314 87.7304 259.235 87.7304 259.235C87.7304 259.235 94.8927 262.105 99.9743 251.964C99.9743 251.964 101.405 250.534 99.9042 246.773C99.3641 245.393 99.5142 241.934 99.7243 237.283C99.7742 236.143 99.8242 234.923 99.8743 233.653C100.194 224.942 100.184 213.501 96.7332 203.57C96.7332 203.57 90.5013 199.19 86.8001 203.11C86.5602 203.37 90.5413 221.702 92.7319 235.323C92.8621 236.153 92.9921 236.973 93.1121 237.773C93.9324 243.233 94.3625 247.614 93.9625 249.204Z"   fill="#F6B3B3" >
</path>
<path d="M96.97 256.349L97.9 260.029L98.5099 262.45L100.67 262.3L101.06 253.419L101.14 251.689C101.14 251.689 98.41 250.619 96.97 256.349Z"   fill="#E65783" >
</path>
<path d="M96.97 256.359L97.9 260.04C98.79 257.629 99.4399 254.889 101.06 253.419L101.14 251.689C101.14 251.689 98.41 250.618 96.97 256.359Z"   fill="#DE4373" >
</path>
<path d="M87.9827 258.714C87.9827 258.714 87.2029 259.074 86.273 259.594C85.853 259.824 85.4132 260.084 84.9932 260.364C83.6335 261.264 82.5235 262.314 83.5533 262.944C83.9333 263.175 93.372 264.155 94.9818 262.304C95.9516 261.194 96.5317 259.574 97.0916 257.924C97.9914 255.273 98.8413 252.543 101.141 251.693C101.141 251.693 101.251 249.952 100.941 248.612C100.831 248.092 100.651 247.622 100.381 247.332C100.291 247.232 100.191 247.142 100.071 247.092C99.7711 246.952 96.5216 253.273 94.3219 256.733C92.1223 260.184 89.5526 259.774 87.9827 258.714Z"   fill="#E65783" >
</path>
<path d="M100.07 247.082C99.77 246.942 96.5201 253.264 94.3201 256.725C92.12 260.177 89.55 259.766 87.98 258.706C87.98 258.706 87.2 259.066 86.27 259.586C87.33 260.627 90.5101 261.697 93.13 258.926C96.18 255.705 95.79 253.854 100.38 247.322C100.29 247.212 100.18 247.132 100.07 247.082Z"   fill="#ED6890" >
</path>
<path d="M97.089 257.922C97.0893 257.921 97.0896 257.921 97.0899 257.92C97.0896 257.921 97.0893 257.922 97.089 257.922ZM94.8205 261.843C93.2808 263.845 84.4932 263.084 83.8933 262.464C83.2935 261.853 84.993 260.362 84.993 260.362C83.6333 261.263 82.5236 262.314 83.5533 262.944C83.9332 263.174 93.3708 264.155 94.9804 262.304C95.9496 261.193 96.5294 259.573 97.089 257.922C97.0396 258.066 96.3095 259.915 94.8205 261.843Z" fill-rule="evenodd"  fill="#DE4373" >
</path>
<path d="M123.003 254.738C123.003 254.728 123.003 254.728 123.003 254.728C121.623 250.959 119.794 247.7 119.794 247.7L113.625 247.24C113.625 247.24 113.205 252.149 114.675 257.038C114.955 257.958 115.295 258.878 115.725 259.768C117.324 263.067 119.784 265.067 121.173 265.526C122.423 265.947 123.303 265.806 124.103 263.837C125.032 261.567 124.192 257.968 123.003 254.738Z"   fill="#E65783" >
</path>
<path d="M112.009 238.362C113.039 243.993 114.139 250.293 114.618 253.043C114.878 254.573 115.408 256.043 116.208 257.373C117.278 259.154 118.978 260.923 121.178 259.994C125.137 258.333 118.918 248.123 118.458 242.822C118.358 241.753 118.348 240.232 118.368 238.412C118.378 237.152 118.408 235.752 118.418 234.252C118.478 227.092 118.358 217.631 115.918 210.79C112.229 200.42 112.709 197.69 112.709 197.69L103.03 200.18C102.99 200.88 109.089 223.591 110.309 229.401C110.579 230.702 110.959 232.692 111.389 234.982C111.589 236.052 111.799 237.192 112.009 238.362Z"   fill="#F6B3B3" >
</path>
<path d="M118.271 260.662C120.451 262.413 122.881 262.303 123.191 258.612C123.501 254.921 119.811 247.69 119.811 247.69C119.811 247.69 124.121 258.912 121.191 259.992C116.31 261.792 113.79 248.31 113.79 248.31C114.86 256.151 116.09 258.912 118.271 260.662Z"   fill="#ED6890" >
</path>
<path d="M123.012 254.74C123.132 255.12 125.873 264.307 121.641 264.607C117.39 264.907 114.76 257.269 114.68 257.039C114.96 257.959 115.3 258.879 115.73 259.768C117.33 263.067 119.791 265.067 121.181 265.527C122.432 265.946 123.312 265.806 124.112 263.837C125.042 261.568 124.202 257.969 123.012 254.74Z"   fill="#DE4373" >
</path>
<g opacity="0.15">
<path d="M98.06 233.24L92.73 235.308C92.86 236.137 92.99 236.956 93.11 237.755C94.74 237.935 97.61 238.095 99.72 237.266C99.77 236.127 99.82 234.908 99.87 233.639C98.95 233.36 98.06 233.24 98.06 233.24Z"   fill="#6E341D" >
</path>
</g>
<g opacity="0.15">
<path d="M116.1 234.321L111.39 234.991C111.59 236.06 111.8 237.2 112.01 238.37C113.54 238.9 115.8 239.24 118.37 238.41C118.38 237.15 118.41 235.75 118.42 234.251C117.15 234.241 116.1 234.321 116.1 234.321Z"   fill="#6E341D" >
</path>
</g>
<path d="M114.551 237.538C118.22 237.818 120.89 236.159 121.71 235.608C121.23 231.488 120.39 225.208 119.36 217.539C118.11 208.188 116.71 198.208 116.091 195.689C114.861 190.648 119.5 164.318 117.26 165.339C115.011 166.358 102.832 165.339 102.832 165.339L100.992 171.198C100.992 171.198 100.272 193.478 100.862 200.909C101.452 208.328 109.121 235.608 109.121 235.608C109.991 236.208 111.891 237.339 114.551 237.538Z"   fill="url(#linear_fill_O9mwtF6gzG)" >
</path>
<path d="M90.9708 235.695C91.5908 236.775 101.54 237.085 102.96 233.625C102.96 233.625 95.9003 173.578 95.4405 172.968C94.9806 172.359 81.4416 173.018 81.4416 173.018C80.7916 173.569 90.351 234.616 90.9708 235.695Z"   fill="url(#linear_fill_-cuyb5iOCD)" >
</path>
<path d="M52.4499 135.07C50.7654 135.07 49.3999 136.614 49.3999 138.52C49.3999 140.425 50.7654 141.97 52.4499 141.97C54.1344 141.97 55.4999 140.425 55.4999 138.52C55.4999 136.614 54.1344 135.07 52.4499 135.07Z"   fill="#1B1C19" >
</path>
<path d="M52.3441 136.257C51.6898 136.319 51.2247 137.06 51.3053 137.912C51.3859 138.764 51.9816 139.405 52.6359 139.343C53.2902 139.281 53.7553 138.54 53.6747 137.688C53.5942 136.836 52.9984 136.195 52.3441 136.257Z"   fill="#394A80" >
</path>
<path d="M57.5625 141.607C59.4522 142.507 60.9418 142.217 63.4111 141.257C65.7706 140.347 68.1501 140.947 68.5499 140.797L68.27 135.916C68.27 135.916 64.3508 136.216 63.2311 136.006C62.2514 135.826 59.0821 133.576 57.5625 132.786C57.3526 132.686 57.1827 132.596 57.0428 132.555C55.913 132.185 55.403 132.906 55.403 132.906C54.2934 132.655 53.5535 133.556 53.8535 133.796C53.1836 133.446 52.2838 135.036 52.5838 135.426C52.5938 135.426 52.5938 135.436 52.5938 135.436C51.8639 136.156 51.1441 136.596 52.2239 137.046C52.8437 137.296 54.1334 136.006 55.5931 136.166C58.2224 136.466 57.6825 138.786 57.0126 139.076C56.3529 139.366 54.9132 138.586 53.4336 138.426C51.9539 138.266 50.9742 140.087 52.1539 140.187C53.3336 140.287 56.043 140.877 57.5625 141.607Z"   fill="#F6ACAC" >
</path>
<path d="M56.8297 133.447C56.8297 133.447 56.8497 132.936 57.5598 132.796C57.3498 132.696 57.1798 132.606 57.0397 132.566C55.9096 132.195 55.3995 132.916 55.3995 132.916C54.2894 132.666 53.5493 133.567 53.8494 133.807C53.1793 133.457 52.2792 135.049 52.5792 135.44C53.2193 134.949 54.3894 134.368 56.1496 134.649C56.1496 134.649 56.2296 133.827 56.8297 133.447Z"   fill="#F89797" >
</path>
<path d="M62.8991 132.52C61.6189 134.48 61.2591 140.43 62.8991 143.27C63.4289 144.19 63.429 144.535 63.2967 144.65L68.1491 144.65L92.5207 146.16C92.5207 146.16 97.2611 130.34 99.0513 120.69C99.7111 117.1 99.9712 114.36 99.421 113.62C97.671 111.23 94.7007 111.22 94.7007 111.22C93.2806 112.71 91.6208 115.99 90.0305 119.76C89.9406 119.98 89.8507 120.19 89.7605 120.41C86.5305 128.2 83.6402 137.69 83.6402 137.69L62.8991 132.52ZM62.8991 144.65C62.8991 144.65 63.1642 144.765 63.2967 144.65L62.8991 144.65Z" fill-rule="evenodd"  fill="#EDF5FD" >
</path>
<path d="M90.0301 119.76L89.94 119.75C89.9197 119.79 89.86 120.02 89.76 120.41C88.65 124.67 90.16 145.15 90.16 145.15L62.1499 141.15L62.9001 144.65L92.5201 146.16C92.5201 146.16 97.2599 130.34 99.0499 120.69L90.0301 119.76Z"   fill="#D2D9E0" >
</path>
<path d="M106.07 109.46C106.07 109.46 98.8099 113.529 94.8199 110.549C94.6 110.729 92.64 113.349 89.87 122.96C89.8101 123.129 89.7598 123.319 89.71 123.499C89.5299 124.15 89.3397 124.83 89.15 125.549C89.0701 125.83 89.0001 126.12 88.9201 126.419C85.3899 139.89 80.85 164.149 76.9299 207.079C76.9299 207.079 80.2398 208.449 84.66 208.968C86.1999 209.148 87.8601 209.229 89.5701 209.109L90.8998 194.468L90.9602 193.829L94.2001 210.049C94.2001 210.049 116.69 213.659 122.64 207.499C122.64 207.499 120.55 114.69 106.07 109.46Z"   fill="#EDF5FD" >
</path>
<path d="M88.8098 116.23L90.7498 116.87L88.3198 119.94L93.2498 132.5C93.2498 132.5 93.2998 112.22 94.8198 110.53L93.1298 110.69C89.8898 112.84 88.8098 116.23 88.8098 116.23Z"   fill="#EDF5FD" >
</path>
<path d="M102.57 105.06C102.57 104.32 102.44 102.82 102.65 102.26C102.65 102.26 99.4898 104.86 96.7598 105.3C96.7598 105.3 96.7798 106.971 96.3598 108.681C96.1098 109.691 95.7098 110.711 95.0598 111.411C95.0598 111.411 96.3498 118.942 103.74 111.141C103.74 111.141 102.59 107.771 102.57 105.06Z"   fill="#F6ACAC" >
</path>
<path d="M102.65 102.27C102.65 102.27 99.4899 104.87 96.7599 105.31C96.7599 105.31 96.7798 106.98 96.3599 108.69C97.5199 108.43 100.59 107.43 102.58 105.06C102.57 104.32 102.45 102.82 102.65 102.27Z"   fill="#F49897" >
</path>
<path d="M93.3329 132.266C93.3329 132.406 94.5724 128.816 96.8315 126.067C101.44 120.448 103.959 110.29 103.759 110.39C101.56 111.49 99.8804 111.95 98.6009 112.05L97.1414 114.339L97.1414 112C96.1619 111.83 95.9119 111.41 95.5721 111.07C95.5221 111.01 95.4721 110.97 95.4121 110.92C95.1523 110.71 94.8623 110.56 94.8323 110.54C91.7535 111.77 93.3929 131.906 93.3329 132.256C93.3329 132.266 93.3329 132.266 93.3329 132.266Z"   fill="#498DE6" >
</path>
<path d="M99.4599 175.74L110.86 175.74L110.86 161.46C103.15 163.18 98.5999 160.79 98.5999 160.79L99.4599 175.74Z"   fill="#F7FBFF" >
</path>
<path d="M98.99 175.736L109.813 175.736C106.915 175.593 98.9758 174.183 98.6001 163.033C98.59 162.793 98.99 175.736 98.99 175.736ZM110.86 175.736L109.813 175.736C110.463 175.767 110.86 175.736 110.86 175.736Z" fill-rule="evenodd"  fill="#D2D9E0" >
</path>
<path d="M95.4111 110.92C95.1513 110.71 94.8615 110.56 94.8316 110.54C91.754 111.77 93.3927 131.909 93.3327 132.259C93.3327 132.269 93.3327 132.269 93.3327 132.269C93.3527 132.329 94.8815 127.599 96.8299 126.069C91.9439 125.609 94.8715 112.86 95.4111 110.92Z"   fill="#417DCC" >
</path>
<path d="M89.7099 123.51C89.53 124.16 89.34 124.84 89.15 125.56C89.07 125.84 88.9999 126.13 88.9199 126.43L93.3099 132.47L89.7099 123.51Z"   fill="#D2D9E0" >
</path>
<path d="M106.54 118.22L105.92 116.54L106.46 116.33L106.04 114.03L103.76 115.48C103.76 115.49 94.8198 124.68 93.2798 132.52C93.2798 132.52 95.7499 124.68 106.54 118.22Z"   fill="#D2D9E0" >
</path>
<path d="M103.766 110.38C103.766 110.38 103.766 110.69 101.147 114.84C94.5194 125.34 93.2898 132.52 93.2898 132.52C94.3294 128.5 96.5486 126.28 98.7079 123.87C98.7577 123.82 103.466 118.83 105.615 117.46L105.145 115.81L106.845 115C106.845 115 107.435 111.57 105.305 110.23C104.996 110.23 104.246 110.37 103.766 110.38Z"   fill="#EDF5FD" >
</path>
<path d="M93.2799 132.86C91.2799 142.57 86.0399 195.032 84.6699 208.983C86.2099 209.163 87.8699 209.242 89.5799 209.123L90.9099 194.472L90.96 193.822C89.8804 173.23 93.2771 132.883 93.2799 132.86ZM93.2799 132.86C93.2799 132.86 93.2799 132.86 93.2799 132.86C93.2799 132.86 93.2799 132.86 93.2799 132.86Z" fill-rule="evenodd"  fill="#D2D9E0" >
</path>
<path d="M53.5098 140.91L53.0598 140.93C53.0598 141.03 53.0698 141.25 54.45 142.09C55.4198 142.69 56.6497 143.32 57.9296 143.88C60.5298 145.02 64.6 146.43 69.2197 146.7C69.72 146.73 70.2299 146.75 70.7497 146.75C80.5597 146.75 92.42 141.1 96.4898 115.91L96.0399 115.84C93.19 133.56 86.1999 143.65 75.2699 145.85C69.6297 146.98 64.1397 145.69 60.5198 144.41C56.3297 142.93 53.66 141.11 53.4898 140.84C53.4898 140.85 53.5098 140.87 53.5098 140.91Z"   fill="#1B1C19" >
</path>
<path d="M95.8399 147.81L89.35 125.91C89.35 125.91 79.9901 126.88 74.2801 127.5C71.9199 127.75 70.18 127.95 70 128L81.6 154.15L97.53 153.49L95.8399 147.81Z"   fill="#F6C84A" >
</path>
<path d="M83.5777 126.64L83.5378 126.23C83.5277 126.09 83.3978 125.99 83.2579 126L75.8306 126.68C75.6908 126.7 75.5908 126.82 75.6008 126.96L75.6407 127.369C75.6508 127.509 75.7807 127.609 75.9206 127.599L83.3479 126.92C83.4878 126.91 83.5977 126.79 83.5777 126.64Z"   fill="#F5943B" >
</path>
<g opacity="0.38">
<path d="M95.8399 147.81C82.3001 152.77 75.6599 133.04 74.2801 127.5C71.9199 127.75 70.18 127.95 70 128L81.6 154.15L97.53 153.49L95.8399 147.81Z"   fill="#F6B036" >
</path>
</g>
<path d="M95.8399 147.81L89.35 125.91C89.35 125.91 79.9901 126.88 74.2801 127.5C71.9199 127.75 70.18 127.95 70 128L88.7801 126.69L97.53 153.49L95.8399 147.81Z"   fill="#F5A153" >
</path>
<path d="M92.9301 146.171C93.73 146.371 94.74 146.031 95.7601 145.591C97.06 145.021 98.37 144.262 99.25 144.212C100.82 144.112 103.62 144.212 103.62 144.212L103.04 138.833L100.31 139.353C99.9401 139.353 98.4401 139.343 97.68 138.513C96.9201 137.683 96.7001 136.533 94.5801 136.043C92.4601 135.564 93.0502 133.654 92.0301 134.524C91.3502 135.094 92.5001 137.703 93.7701 137.693C95.04 137.683 92.8801 140.962 91.6601 141.352C91.54 141.392 91.3801 141.422 91.2 141.442C89.5601 141.632 85.8301 141.182 85.4601 141.462C85.0502 141.772 84.8902 142.962 88.9102 143.302C88.9102 143.302 89.6501 145.351 92.9301 146.171Z"   fill="#F6ACAC" >
</path>
<path d="M91.2001 141.434C89.5601 141.624 85.8302 141.174 85.4601 141.454C85.0501 141.764 84.8902 142.953 88.9101 143.293C88.9101 143.293 89.6501 145.342 92.9301 146.161C93.73 146.361 94.74 146.021 95.76 145.582C93.1 145.002 91.76 142.714 91.2001 141.434Z"   fill="#F89797" >
</path>
<path d="M111.32 108.316C109.58 105.916 105.78 109.636 105.78 109.636C105.48 122.068 117.03 134.399 117.03 134.399L98.6499 134.149C102.78 139.899 100.9 145.65 100.9 145.65L128.54 143.4C128.54 143.4 124.67 126.768 111.32 108.316Z"   fill="#EDF5FD" >
</path>
<path d="M116.04 133.269C116.11 133.349 98.6599 134.149 98.6599 134.149C98.6599 134.149 113.1 134.649 115.17 134.649C117.557 134.649 121.465 135.56 122.443 135.827C121.512 135.497 118.04 134.149 118.04 134.149C117.712 133.408 120.595 134.269 121.514 134.56C120.731 134.3 118.468 133.5 117.16 132.519C113.16 129.519 107.41 119.02 106.91 117.14C106.91 117.14 109.16 125.649 116.04 133.269ZM121.79 134.649C121.79 134.649 121.687 134.615 121.514 134.56C121.689 134.618 121.79 134.649 121.79 134.649ZM122.67 135.899C122.673 135.894 122.592 135.868 122.443 135.827C122.584 135.878 122.667 135.904 122.67 135.899Z" fill-rule="evenodd"  fill="#D2D9E0" >
</path>
<path d="M98.6599 134.16C101.659 140.03 100.909 145.66 100.909 145.66L102.659 145.53C102.968 143.51 101.529 137.9 98.6599 134.16Z"   fill="#D2D9E0" >
</path>
<path d="M103.359 100.06C104.669 95.0304 103.039 89.7009 98.7179 87.8608C98.7179 87.8608 92.5264 85.261 88.4654 89.3708C86.0948 91.7608 86.5449 93.3806 87.9352 96.2104C88.2353 96.8105 88.5753 97.4704 88.9354 98.2003C89.5156 99.3803 89.7557 100.58 89.8958 101.74C89.9458 102.16 89.9858 102.57 90.0157 102.97C90.2158 105.38 90.3359 107.4 92.8465 108.13C95.9672 109.03 99.6783 106.79 101.849 103.44C102.109 103.05 102.339 102.63 102.549 102.21C102.739 101.83 102.909 101.44 103.049 101.05C103.169 100.72 103.269 100.39 103.359 100.06Z"   fill="#F6ACAC" >
</path>
<path d="M98.7279 87.8509C98.7279 87.8509 92.5363 85.2511 88.4753 89.3606C86.1048 91.7505 86.555 93.3703 87.9453 96.2001C89.1155 96.6299 90.6559 96.16 92.6464 95.31C97.1576 93.3803 97.6876 98.1998 99.4381 100.87C100.158 101.969 101.399 103.269 101.999 103.129C102.669 102.089 103.049 101.249 103.359 100.06C104.669 95.0302 103.039 89.7006 98.7279 87.8509Z"   fill="#F49897" >
</path>
<path d="M89.8498 108.65C89.8298 108.62 87.9505 105.11 86.221 100.83C84.5117 96.6106 83.502 93.6309 83.722 91.8209C83.9318 90.1311 85.8612 90.231 85.9411 90.2411L85.9512 90.0911C85.9312 90.0911 83.8019 89.9811 83.572 91.8111C83.342 93.6509 84.3617 96.6507 86.0811 100.9C87.8205 105.19 89.6999 108.7 89.7198 108.74L89.8498 108.65Z"   fill="#18325C" >
</path>
<path d="M127.3 110.9L127.45 110.87C126.84 107.85 124.8 106.12 120.65 105.07C120.4 105.01 120.14 104.949 119.9 104.9C117.64 104.41 115.69 103.97 113.25 96.879C112.08 93.4689 110.15 92.7188 108.45 92.0488C107.09 91.5188 105.81 91.0188 105.01 89.2787C104.11 87.3084 102.84 86.0084 101.24 85.4185C99.9497 84.9384 98.7996 85.0585 98.2497 85.1185C98.1298 85.1283 97.9996 85.1484 97.9698 85.1384L97.9297 85.2885C97.9796 85.3084 98.0696 85.2983 98.2597 85.2784C99.3797 85.1583 102.79 84.8084 104.87 89.3487C105.7 91.1387 107.01 91.6588 108.4 92.1989C110.15 92.8888 111.96 93.5989 113.11 96.939C115.57 104.109 117.56 104.549 119.87 105.059C120.11 105.11 120.37 105.17 120.62 105.229C124.7 106.259 126.7 107.95 127.3 110.9Z"   fill="#214580" >
</path>
<path d="M91.6398 95.8366C90.2698 96.1064 89.1098 95.8766 88.1998 95.167C86.3497 93.7179 86.1398 90.6799 86.1398 90.6499L85.9897 90.6599C85.9897 90.6899 86.1997 93.7979 88.1097 95.297C89.0497 96.0365 90.2497 96.2763 91.6697 95.9965L91.6398 95.8366Z"   fill="#1D417A" >
</path>
<path d="M91.2197 97.1499C89.8192 97.1099 88.7387 96.6399 87.9984 95.7498C86.4878 93.9298 86.938 90.9198 86.938 90.8898L86.788 90.8699C86.778 90.8999 86.3278 93.9699 87.8784 95.8499C88.6487 96.7799 89.7691 97.2699 91.2197 97.3099L91.2197 97.1499Z"   fill="#1D417A" >
</path>
<path d="M102.56 102.21C102.65 105.66 102.39 110.98 99.7789 113.8C98.6386 115.04 97.128 115.67 95.2973 115.69C93.9569 115.7 92.8465 115.22 92.0061 114.26C89.2851 111.16 89.8653 104.36 90.0154 102.97C89.9854 102.57 89.9454 102.16 89.8953 101.74C89.5553 103.19 88.605 111.19 91.596 114.61C92.5363 115.68 93.7668 116.22 95.2473 116.22L95.3073 116.22C97.298 116.2 98.9286 115.51 100.179 114.16C103.24 110.85 103.23 104.41 103.06 101.05C102.91 101.45 102.75 101.83 102.56 102.21Z"   fill="#000012" >
</path>
<path d="M102.96 99.7297C102.94 99.3797 102.91 99.0797 102.92 98.9997L102.382 98.9597C102.372 99.0697 102.392 99.2997 102.422 99.7597C102.462 100.34 102.522 101.19 102.552 102.2C102.741 101.82 102.91 101.43 103.05 101.04C103.02 100.52 102.99 100.08 102.96 99.7297Z"   fill="#000012" >
</path>
<path d="M110.742 105.851C111.852 106.141 115.752 105.121 119.762 109.481C119.762 109.491 119.772 109.491 119.772 109.491C120.292 110.111 120.772 110.752 121.222 111.422C122.302 113.032 123.632 115.042 125.562 114.812C127.262 114.622 128.242 112.532 127.772 110.902C127.302 109.261 125.812 108.111 124.242 107.431C122.682 106.751 120.982 106.421 119.402 105.761C117.642 105.021 116.022 103.841 115.032 102.211C113.922 100.401 113.282 98.3605 112.372 96.4406C111.402 94.4005 109.892 93.3203 107.522 92.5903C105.431 91.9502 104.981 91.0902 104.052 89.1201C102.841 86.56 101.221 85.6598 99.0214 85.0496C97.1013 84.5196 93.4012 84.3297 91.2814 85.0596C88.7513 85.9299 84.9212 87.6799 85.811 91.6502C85.8409 91.8002 85.9709 92.2603 85.9811 92.2703C86.6011 94.1903 88.8214 95.4505 90.801 94.9804C91.5612 94.8004 92.2615 94.4005 93.0213 94.2102C93.9913 93.9703 95.0511 94.0805 95.9515 94.5303C97.4715 95.2905 98.3815 96.8807 99.0712 98.4407C99.7614 99.9907 100.371 101.651 101.581 102.841C102.741 103.981 104.342 104.581 105.932 104.931C107.522 105.281 109.162 105.431 110.742 105.851Z"   fill="#214580" >
</path>
<path d="M94.7198 97.5891C94.5498 97.8492 94.4198 98.2094 94.3499 98.6796C94.3298 98.7997 94.3198 98.9298 94.3098 99.0599C94.2998 99.1199 94.2998 99.1699 94.2998 99.2299L94.7598 98.9598L96.4298 98.0093L96.4398 98.0093L97.5398 97.379C97.5398 97.379 96.5298 96.8186 95.6298 96.9787C95.3198 97.0388 95.0198 97.1988 94.7798 97.499C94.7598 97.529 94.7398 97.559 94.7198 97.5891Z"   fill="#FFFFFF" >
</path>
<path d="M94.7598 98.96L96.4298 98.01L96.4498 98C96.2998 97.57 96.0098 97.21 95.6298 96.98C95.3198 97.04 95.0198 97.2 94.7798 97.5C94.7598 97.53 94.7398 97.56 94.7198 97.59C94.5499 97.85 94.4199 98.21 94.3499 98.68C94.3299 98.8 94.3198 98.93 94.3098 99.06C94.2998 99.12 94.2998 99.17 94.2998 99.23L94.7598 98.96Z"   fill="#18325C" >
</path>
<path d="M91.0097 99.73L91.4997 99.74L92.5097 99.7599C92.5097 99.7599 92.0197 98.813 91.2497 98.7034C91.0897 98.6735 90.9097 98.6934 90.7197 98.7632C90.6897 98.7732 90.6697 98.7831 90.6397 98.7931C90.4597 98.8828 90.2597 99.0323 90.0497 99.2616C90.0497 99.2715 90.0397 99.2815 90.0297 99.2915C90.0097 99.3114 89.9897 99.3413 89.9697 99.3612C89.8897 99.4609 89.8097 99.5705 89.7197 99.7001L89.9997 99.7101L90.9997 99.73L91.0097 99.73Z"   fill="#FFFFFF" >
</path>
<path d="M89.7197 99.7001L89.9997 99.71L90.9998 99.73L91.0098 99.73L91.4999 99.7399C91.5799 99.3712 91.4999 98.9924 91.2498 98.7034C91.0898 98.6735 90.9099 98.6934 90.7198 98.7632C90.6898 98.7732 90.6698 98.7831 90.6398 98.7931C90.4598 98.8828 90.2597 99.0323 90.0497 99.2615C90.0497 99.2715 90.0397 99.2815 90.0298 99.2914C89.9297 99.411 89.8297 99.5506 89.7197 99.7001Z"   fill="#18325C" >
</path>
<path d="M94.5199 102.329L94.3899 102.239C93.7499 103.168 93.1899 103.048 93.0299 102.988L93.1999 98.99L93.0399 98.98L92.8599 103.078L92.8999 103.098C92.9099 103.108 93.1399 103.228 93.4699 103.158C93.7599 103.088 94.1299 102.878 94.5199 102.329Z"   fill="#F67D93" >
</path>
<path d="M96.5397 96.1111C96.5397 96.1111 94.3597 95.182 93.7297 97.4199C93.7297 97.4199 94.4798 95.4118 96.5397 96.1111Z"   fill="#18325C" >
</path>
<path d="M92.4498 98.2089C92.4498 98.1989 91.0298 96.9007 89.5798 98.3699C89.5798 98.3699 90.9098 97.0919 92.4498 98.2089Z"   fill="#18325C" >
</path>
<path d="M96.0297 103.1L95.8997 103.02C95.1698 104.188 94.3997 104.278 93.9998 104.228L93.9797 104.388C94.1197 104.408 94.3098 104.408 94.5198 104.358C94.9598 104.258 95.5098 103.938 96.0297 103.1Z"   fill="#F6798F" >
</path>
<path d="M91.3029 101.44C90.6458 101.448 90.1162 101.697 90.12 101.995C90.1239 102.293 90.6597 102.528 91.3169 102.52C91.974 102.511 92.5037 102.263 92.4998 101.965C92.496 101.666 91.9601 101.431 91.3029 101.44Z"   fill="#F67D93" >
</path>
<path d="M95.9785 99.7873C95.1601 100.236 94.6494 100.878 94.8379 101.222C95.0264 101.566 95.8427 101.481 96.6611 101.032C97.4796 100.584 97.9903 99.9413 97.8018 99.5975C97.6133 99.2536 96.797 99.3386 95.9785 99.7873Z"   fill="#F67D93" >
</path>
<path d="M197.551 259.947C195.991 257.967 194.961 254.207 195.011 253.307C195.061 252.227 194.741 251.497 194.191 251.017C192.46 249.517 188.47 250.457 186.5 251.057C185.8 251.267 185.36 251.437 185.36 251.437C185.36 251.437 185.78 254.597 186.1 260.248C186.42 265.898 191.44 268.108 194.891 267.188C195.901 266.918 196.681 266.358 197.241 265.648C197.361 265.488 197.481 265.318 197.581 265.148C198.591 263.468 198.551 261.228 197.551 259.947Z"   fill="#636363" >
</path>
<path d="M187.93 262.609C187.2 260.739 186.72 254.44 186.5 251.06C185.8 251.27 185.36 251.44 185.36 251.44C185.36 251.44 185.78 254.6 186.1 260.249C186.42 265.898 191.44 268.108 194.89 267.188C195.9 266.918 196.68 266.358 197.24 265.648C193.46 268.138 188.94 265.198 187.93 262.609Z"   fill="#303030" >
</path>
<path d="M197.56 259.94C196 257.96 194.97 254.2 195.02 253.3C195.07 252.22 194.75 251.49 194.2 251.01L193.03 251.64L193.88 251.64C193.88 251.64 194.08 252.23 194.08 253.83C194.08 255.49 196.18 259.49 197.24 261.25C198.26 262.95 197.63 265 197.58 265.15C198.59 263.47 198.55 261.23 197.56 259.94Z"   fill="#4D4D4D" >
</path>
<g opacity="0.51">
<path d="M195.583 265.497C197.083 265.015 196.083 264.222 195.313 264.653C193.774 265.497 191.724 264.101 191.994 264.653C192.024 264.985 194.084 265.989 195.583 265.497Z"   fill="#7A7A7A" >
</path>
</g>
<path d="M205.049 248.288C205.049 248.288 198.219 251.86 197.379 246.938C197.089 245.268 196.809 252.85 197.109 255.211C197.149 255.561 197.209 255.791 197.279 255.871C197.829 256.481 201.569 257.571 203.828 259.902C205.378 261.502 214.698 264.853 218.968 260.352C219.508 259.782 219.768 259.252 219.788 258.742C219.978 254.88 206.768 252.67 205.049 248.288Z"   fill="#636363" >
</path>
<path d="M207.01 260.622C204.58 259.632 203.38 257.411 200.06 256.1C198.93 255.66 197.91 255.38 197.11 255.21C197.15 255.56 197.21 255.79 197.28 255.87C197.83 256.48 201.57 257.571 203.83 259.902C205.38 261.502 214.7 264.853 218.97 260.352C219.51 259.782 219.77 259.251 219.79 258.741C217.42 263.113 209.87 261.802 207.01 260.622Z"   fill="#303030" >
</path>
<g opacity="0.51">
<path d="M212.89 260.055C214.621 260.796 216.973 260.055 217.574 259.614C218.174 259.173 217.874 258.742 217.423 258.591C216.963 258.441 216.363 258.882 216.363 258.882C214.852 260.195 211.529 259.473 212.89 260.055Z"   fill="#7A7A7A" >
</path>
</g>
<path d="M195.27 199.42C195.35 215.719 195.43 232.028 195.51 248.327C197.93 249.387 201.45 250.497 205.63 250.427C207.19 250.397 209.32 250.337 211.82 249.277C213.51 248.557 214.76 247.637 215.56 246.947C215.56 246.947 205.86 199.86 206.35 199.42L195.27 199.42Z"   fill="#709C89" >
</path>
<path d="M177.342 185.16C178.312 204.42 176.392 232.019 177.362 251.279C179.272 252.469 183.002 254.379 187.751 254.329C189.291 254.309 191.52 254.259 193.94 252.949C195.64 252.029 196.76 250.849 197.41 250.039C197.41 250.039 197 194.73 196.47 194.49L177.342 185.16Z"   fill="#7AA995" >
</path>
<path d="M199.744 113.94C199.744 113.94 199.424 121.72 204.493 132.53C209.562 143.34 212.621 145.39 212.621 145.39C213.481 141.2 214.411 139.62 221.3 137.62C221.3 137.62 206.443 116.61 199.744 113.94Z"   fill="#96CEB6" >
</path>
<path d="M176.821 119.873C174.881 123.993 174.041 130.094 179.361 140.835C187.251 156.767 187.901 154.067 187.901 154.067C187.841 153.057 188.021 150.346 190.211 148.466C191.291 147.536 194.872 146.606 196.732 146.856C196.752 146.856 196.802 146.866 196.852 146.836C198.002 146.126 187.561 126.844 185.961 123.963C184.691 121.673 183.001 119.953 181.571 118.783C180.011 117.503 177.681 118.032 176.821 119.873Z"   fill="#96CEB6" >
</path>
<path d="M198.51 219.388C209.5 218.058 217.91 214.338 222.98 211.608C218.08 203.798 213.17 192.128 208.52 177.748C202.5 158.958 198.84 136.469 208.32 121.609C208.32 121.609 203.42 112.539 195.25 113.259C193.65 113.399 191.91 113.919 190.07 114.959C188.6 115.789 186 113.649 184.08 113.079C183.52 112.909 183.03 112.879 182.63 113.079C182.54 113.129 182.44 113.169 182.35 113.219C177.17 115.939 173.62 119.899 173.58 125.779C173.58 126.028 173.58 126.279 173.59 126.529C173.59 126.619 173.6 126.718 173.6 126.809C173.62 127.088 173.64 127.379 173.66 127.658C173.67 127.759 173.68 127.858 173.69 127.959C174.39 135.349 178.42 143.359 177.03 150.588C175.5 158.538 173.83 180.318 174.09 184.898L174.48 218.068C176.51 218.538 178.95 219.018 181.75 219.357L182.05 219.398C182.05 219.398 182.09 202.078 181.77 198.128C182.57 201.578 186.41 215.238 187.61 219.838C190.94 219.968 194.59 219.867 198.51 219.388Z"   fill="#96CEB6" >
</path>
<path d="M196.16 113.94C196.06 113.6 195.73 113.38 195.27 113.25C193.67 113.39 191.929 113.91 190.089 114.95C188.619 115.78 186.018 113.64 184.097 113.07C183.647 113.72 183.117 115.05 184.237 115.56C185.618 116.19 190.489 116.88 190.489 116.88L191.309 121.28L191.719 116.88C191.719 116.88 196.69 115.69 196.16 113.94Z"   fill="#80C1A7" >
</path>
<path d="M183.67 105.51C183.73 105.83 184.06 107.29 184.34 108.58C184.56 109.58 184.75 110.471 184.77 110.631C185.1 113.771 184.76 114.141 184.76 114.141C191.18 117.262 195.43 114.261 195.43 114.261C194.85 113.321 194.78 113.261 194.41 112.451C194.05 111.681 193.72 110.911 193.45 110.2C192.89 108.72 192.59 107.56 192.59 107.56L183.67 105.48L183.66 105.48L183.67 105.51Z"   fill="#F6ACAC" >
</path>
<path d="M183.15 104.44L181.24 85.6599C181.24 85.6599 175.031 99.67 183.15 104.44Z"   fill="#80C1A7" >
</path>
<path d="M194.41 112.461C194.04 111.7 193.72 110.92 193.45 110.21C192.89 108.73 192.59 107.57 192.59 107.57L183.67 105.49C183.67 105.5 183.67 105.51 183.67 105.52C183.73 105.84 184.06 107.3 184.35 108.59C186.65 111.971 190.84 113.391 194.41 112.461Z"   fill="#F49897" >
</path>
<path d="M183.864 89.797C183.674 90.0569 183.504 90.3369 183.364 90.627C182.314 92.7568 182.424 95.6165 182.644 97.4665C182.784 98.5763 182.964 99.3263 182.964 99.3263C182.964 99.3263 182.844 99.1364 182.634 98.8765C182.384 98.5564 182.004 98.1265 181.574 97.7964C181.534 97.7664 181.504 97.7365 181.464 97.7164C180.654 97.1565 179.694 96.9965 178.994 98.5363C177.543 101.696 181.594 101.956 181.594 101.956C181.774 105.156 184.724 108.836 186.425 109.806C192.005 112.846 197.936 110.416 197.706 106.976C197.586 105.136 197.626 101.366 197.876 97.5966C197.916 97.0265 197.956 96.4667 198.006 95.9066C198.026 95.6867 198.046 95.4766 198.066 95.2567C198.466 90.8069 195.166 88.2572 194.926 87.9271C193.656 86.1073 191.525 85.7372 189.405 86.2273C188.515 86.4371 187.625 86.7972 186.805 87.2571C186.505 87.4272 186.205 87.6171 185.925 87.8172C185.114 88.387 184.394 89.0671 183.864 89.797Z"   fill="#F6ACAC" >
</path>
<path d="M182.636 97.4697C191.236 94.9692 195.826 96.4295 197.876 97.5998C197.916 97.0296 197.956 96.4695 198.006 95.9094C198.026 95.6893 198.046 95.4794 198.066 95.2593C198.466 90.8083 195.166 88.2577 194.926 87.9276C193.656 86.1072 191.526 85.7372 189.406 86.2273C188.566 86.5574 187.686 86.9074 186.806 87.2575C186.506 87.4276 186.206 87.6175 185.926 87.8176C185.116 88.3877 184.396 89.0678 183.866 89.798C183.666 90.0581 183.496 90.3382 183.356 90.6283C182.306 92.7587 182.416 95.6193 182.636 97.4697Z"   fill="#F49897" >
</path>
<path d="M198.778 88.349C198.208 84.9889 190.949 82.2886 185.53 86.0989C185.53 86.0989 185.51 86.0989 185.49 86.0888C185.1 85.9889 181.651 85.2089 180.921 87.3389C180.151 89.5991 179.731 95.3194 181.351 97.6996C181.831 97.9895 182.641 98.8797 183.131 100.23C183.131 100.23 184.92 93.1694 185.18 90.7491C185.18 90.6992 185.19 90.6592 185.19 90.6191C185.19 90.6191 201.268 102.91 198.778 88.349Z"   fill="#18325C" >
</path>
<path d="M198.051 93.3799L197.65 102.32C201.397 97.1499 198.872 93.1499 198.682 92.8499L198.051 93.3799Z"   fill="#18325C" >
</path>
<path d="M188.78 94.8796C184.88 92.1096 184.89 89.4096 184.89 89.3796L184.73 89.3796C184.73 89.4096 184.71 92.1797 188.68 95.0096L188.78 94.8796Z"   fill="#262F59" >
</path>
<path d="M189.39 101.13L190.11 101.32C190.09 101.25 190.07 101.19 190.04 101.13C189.99 100.98 189.93 100.83 189.87 100.69C189.82 100.55 189.76 100.43 189.69 100.311C189.49 99.9609 189.27 99.6911 189.03 99.4913C188.99 99.4613 188.95 99.4313 188.91 99.4013C188.7 99.2515 188.49 99.1515 188.27 99.0916C188.04 99.0316 187.81 99.0017 187.58 99.0117C186.31 99.0416 185.1 99.9908 185.1 99.9908L186.8 100.44L186.81 100.44L187.48 100.62L189.39 101.13Z"   fill="#FFFFFF" >
</path>
<path d="M196.45 99.8905C196.43 99.8805 196.42 99.8606 196.4 99.8506C196.4 99.8406 196.39 99.8406 196.39 99.8406C196.22 99.7106 196.06 99.6107 195.9 99.5307C195.67 99.4008 195.45 99.3209 195.25 99.2709C195.2 99.2609 195.16 99.2509 195.11 99.2409C194.77 99.1809 194.46 99.2109 194.2 99.3009C193 99.7206 192.51 101.37 192.51 101.37L194.07 101.05L194.18 101.03L194.98 100.87L194.99 100.87L196.64 100.53L197.1 100.44C196.92 100.27 196.74 100.11 196.57 99.9805C196.53 99.9505 196.49 99.9205 196.45 99.8905Z"   fill="#FFFFFF" >
</path>
<path d="M192.73 105.16L192.77 105.12L191.59 100.73L191.42 100.78L192.57 105.06C192.42 105.16 191.84 105.43 190.94 104.58L190.82 104.71C191.36 105.22 191.81 105.36 192.13 105.36C192.5 105.36 192.71 105.18 192.73 105.16Z"   fill="#F6798F" >
</path>
<path d="M185.91 98.2812C187.94 97.0246 189.93 98.8198 189.93 98.8198C187.98 96.3663 185.91 98.2812 185.91 98.2812Z"   fill="#18325C" >
</path>
<path d="M192.26 98.9999C193.83 97.4432 196.34 98.461 196.34 98.461C193.45 96.8445 192.26 98.9999 192.26 98.9999Z"   fill="#18325C" >
</path>
<path d="M191.88 106.81L191.82 106.65C191.41 106.8 190.56 106.89 189.5 105.81L189.38 105.93C190.14 106.7 190.81 106.91 191.3 106.91C191.54 106.91 191.73 106.86 191.88 106.81Z"   fill="#F6798F" >
</path>
<path d="M194.531 102.146C193.641 102.34 192.985 102.803 193.068 103.181C193.15 103.559 193.938 103.708 194.829 103.514C195.719 103.32 196.374 102.857 196.292 102.479C196.21 102.101 195.421 101.952 194.531 102.146Z"   fill="#F67D93" >
</path>
<path d="M186.614 102.6C186.492 103.019 187.187 103.591 188.168 103.878C189.148 104.165 190.043 104.058 190.165 103.639C190.288 103.221 189.592 102.648 188.612 102.362C187.631 102.075 186.737 102.181 186.614 102.6Z"   fill="#F67D93" >
</path>
<path d="M190.04 101.13C189.99 100.981 189.93 100.831 189.87 100.691C189.82 100.552 189.76 100.432 189.69 100.312C188.446 98.5962 186.867 100.432 186.801 100.442L186.81 100.442L187.48 100.622L189.39 101.13L190.11 101.32C190.09 101.25 190.07 101.19 190.04 101.13ZM186.8 100.442C186.8 100.442 186.8 100.442 186.801 100.442L186.8 100.442Z" fill-rule="evenodd"  fill="#18325C" >
</path>
<path d="M196.39 99.8298C196.22 99.6998 196.06 99.5998 195.9 99.5198C194.84 99.5698 194.25 100.53 194.07 101.05L194.18 101.03L194.98 100.87L194.99 100.87L196.64 100.53L197.1 100.44C196.92 100.27 196.74 100.11 196.57 99.9698C196.53 99.9398 196.49 99.9098 196.45 99.8798C196.43 99.8698 196.42 99.8498 196.4 99.8398C196.4 99.8298 196.39 99.8298 196.39 99.8298Z"   fill="#18325C" >
</path>
<path d="M182.862 99.6001C183.002 99.8901 183.751 101.51 184.25 102.1L184.4 101.94C183.691 101.13 183.252 100.2 182.972 99.5801C182.972 99.5801 182.842 99.5001 182.862 99.6001Z"   fill="#80C1A7" >
</path>
<path d="M183.27 105.51L183.45 105.42L181.59 101.96L181.25 101.92L183.27 105.51Z"   fill="#80C1A7" >
</path>
<path d="M181.51 101.95L181.24 101.91L181.25 101.92L181.51 101.95Z"   fill="#60A1F5" >
</path>
<path d="M191.782 111.666C195.133 111.916 196.634 110.727 197.274 109.367C197.674 108.528 197.744 107.628 197.714 106.978C197.634 105.279 197.664 102.32 197.664 102.32C197.664 102.32 189.762 105.499 185.231 102.54C185.171 102.5 185.111 102.46 185.051 102.42C184.711 102.18 184.401 101.91 184.101 101.6C184.101 101.6 182.78 105.688 182.8 105.778C184.241 109.667 186.971 111.307 191.782 111.666Z"   fill="#94CCB4" >
</path>
<path d="M199.01 87.4529C197.79 84.8528 195.219 83.1828 192.389 83.1028C189.208 83.0128 184.467 83.3428 181.256 85.6528C181.256 85.6528 177.686 92.6829 181.326 97.713C181.326 97.7229 195.369 91.7128 199.47 98.553C199.61 98.793 201.481 92.7029 199.01 87.4529Z"   fill="#96CEB6" >
</path>
<path d="M191.78 111.666C195.13 111.916 196.63 110.727 197.27 109.367C186.07 113.496 185.17 105.688 185.23 102.54C185.17 102.5 185.11 102.46 185.05 102.42C184.71 102.18 184.4 101.91 184.1 101.6C184.1 101.6 182.78 105.688 182.8 105.778C184.24 109.667 186.97 111.307 191.78 111.666Z"   fill="#80C1A7" >
</path>
<path d="M213.88 163.4L214.34 162.34L214.77 161.33L213.64 160.41L203.35 152.14L197.161 147.17L196.741 146.83C188.591 147.67 187.801 151.65 187.841 153.36C187.851 153.85 187.931 154.15 187.931 154.15L199.651 158.75L212.06 163.62L212.51 163.8L213.54 164.2L213.88 163.4Z"   fill="#F6ACAC" >
</path>
<path d="M218.75 136.356C216.729 137.067 210.729 139.918 211.379 144.94C211.389 144.94 214.069 138.037 221.49 136.697C221.49 136.697 220.78 135.646 218.75 136.356Z"   fill="#80C1A7" >
</path>
<path d="M221.829 136.792C220.749 136.132 214.349 138.192 212.189 141.982C210.029 145.772 212.369 146.262 214.089 144.992L213.329 143.912C213.329 143.912 213.329 143.912 213.329 143.912L213.329 143.912C213.335 143.911 216.245 139.101 221.709 138.742C221.709 138.742 222.909 137.452 221.829 136.792ZM213.329 143.912C213.329 143.912 213.329 143.912 213.329 143.912L213.329 143.912Z" fill-rule="evenodd"  fill="#7AA995" >
</path>
<path d="M190.58 146.893C186.791 149.222 185.871 152.93 186.881 154.05C186.881 154.05 189.69 145.794 196.75 145.674C196.75 145.674 194.37 144.565 190.58 146.893Z"   fill="#80C1A7" >
</path>
<path d="M196.751 145.672C195.382 145.281 191.024 146.492 189.114 149.073C187.205 151.654 185.306 155.565 188.795 154.515L187.925 154.165C187.915 154.155 190.074 147.412 197.421 147.392C197.421 147.392 198.121 146.062 196.751 145.672Z"   fill="#7AA995" >
</path>
<path d="M203.087 129.307C201.206 135.048 202.867 151.77 202.867 151.77C202.547 147.229 203.637 131.827 204.658 133.787C207.519 139.258 210.43 142.899 210.62 143.229C210.62 143.229 204.327 125.536 203.087 129.307Z"   fill="#80C1A7" >
</path>
<path d="M196.75 145.67C194.95 137.63 184.24 121.44 184.24 121.44C188.48 128.36 195.16 145.66 195.16 145.66C196.38 145.49 196.75 145.67 196.75 145.67Z"   fill="#80C1A7" >
</path>
<path d="M195.29 161.06C195.22 161 194 160.04 191.53 159.189C188.98 158.32 185.1 157.56 179.78 158.04C179.78 158.04 183.49 154.81 187.35 155.98C187.2 155.919 183.02 154.1 180.59 154.32C181.82 147.35 180.46 143.74 177.32 133.049C173.56 120.259 180.81 114.32 182.35 113.23C177.17 115.95 173.62 119.91 173.58 125.789C173.58 126.04 173.58 126.29 173.59 126.54C173.59 126.63 173.6 126.73 173.6 126.82C173.62 127.1 173.64 127.39 173.66 127.67C173.67 127.77 173.68 127.87 173.69 127.969C174.4 135.36 178.5 143.38 177.03 150.6C175.5 158.549 173.83 180.329 174.09 184.909L174.48 218.08C176.51 218.549 178.95 219.03 181.75 219.37C179.91 212.51 173.16 184.62 178.5 162.799C178.76 161.74 179.08 160.779 179.3 159.87C179.38 159.569 189.52 157.55 195.29 161.06Z"   fill="#80C1A7" >
</path>
<path d="M233.297 127.827C233.297 127.827 229.187 107.815 211.578 114.415C203.578 117.405 202.548 124.366 204.608 132.157C204.629 132.227 204.648 132.297 204.668 132.367C204.668 132.377 204.668 132.387 204.678 132.397C204.689 132.457 204.708 132.517 204.729 132.577C208.738 147.078 223.117 164.27 223.117 164.27C223.117 164.27 243.576 157.529 254.625 147.598C254.676 147.548 254.736 147.498 254.786 147.448C254.826 147.418 254.856 147.378 254.896 147.348C254.916 147.329 254.935 147.318 254.946 147.298C261.075 141.658 264.125 135.007 258.716 127.997C247.136 112.985 233.297 127.827 233.297 127.827Z"   fill="#F25071" >
</path>
<path d="M249.22 145.65C249.44 145.83 249.71 145.97 250 146.06L254.78 147.44C254.82 147.41 254.85 147.38 254.89 147.34L249.22 145.65Z"   fill="#F25071" >
</path>
<path d="M246.18 144.751L246.36 144.801L248.83 145.54L249.22 145.66C248.83 145.34 248.57 144.901 248.5 144.412L248.31 143.024C248.22 142.444 247.37 142.285 247.12 142.804L246.18 144.751Z"   fill="#F25071" >
</path>
<path d="M244.597 144.28L243.816 148.212C243.746 148.553 244.267 148.733 244.427 148.413L246.2 144.75L246.01 144.7L244.768 144.33L244.597 144.28Z"   fill="#F25071" >
</path>
<path d="M242.28 143.579L244.422 144.22L244.593 144.27L245.664 138.907C245.724 138.637 245.313 138.487 245.173 138.737L243.081 142.579C242.841 143.019 242.46 143.329 242 143.499L242.28 143.579Z"   fill="#F25071" >
</path>
<path d="M230.86 140.19C231.1 140.709 231.59 141.128 232.2 141.288L240.55 143.555C241.05 143.685 241.55 143.665 241.99 143.495L241.67 143.405L231.1 140.26L230.86 140.19Z"   fill="#F25071" >
</path>
<path d="M229.08 139.65L229.26 139.7L230.629 140.11L230.859 140.18C230.719 139.88 230.659 139.549 230.699 139.209L230.998 136.778C231.028 136.468 230.549 136.328 230.419 136.618L229.08 139.65Z"   fill="#F25071" >
</path>
<path d="M227.177 139.09L226.636 142.592C226.546 143.172 227.427 143.432 227.668 142.902L229.1 139.67L228.92 139.62L227.347 139.14L227.177 139.09Z"   fill="#F25071" >
</path>
<path d="M224.26 138.22L224.44 138.27L226.997 139.03L227.177 139.08L228.356 131.402C228.416 131.003 227.796 130.803 227.616 131.183L224.26 138.22Z"   fill="#F25071" >
</path>
<path d="M221.424 137.38L220.755 142.83C220.675 143.461 221.623 143.741 221.893 143.171L224.25 138.22L224.07 138.17L221.603 137.43L221.424 137.38Z"   fill="#F25071" >
</path>
<path d="M217.94 136.34L218.11 136.39L221.236 137.32L221.416 137.37L222.505 128.549C222.585 127.929 221.666 127.638 221.376 128.199L217.94 136.34Z"   fill="#F25071" >
</path>
<path d="M213.51 135.01C214.21 135.37 214.65 136.09 214.58 136.84L214.04 143.373C214 143.833 214.69 144.013 214.87 143.593L217.93 136.34L217.75 136.29L214.07 135.18L213.51 135.01Z"   fill="#F25071" >
</path>
<path d="M204.67 132.39L213.51 135.02C213.39 134.95 213.26 134.9 213.12 134.86L204.66 132.36C204.66 132.37 204.66 132.38 204.67 132.39Z"   fill="#F25071" >
</path>
<path d="M230.59 136.699C230.62 136.629 230.7 136.649 230.72 136.649C230.74 136.659 230.82 136.679 230.81 136.759L230.51 139.189C230.47 139.509 230.52 139.819 230.63 140.108C230.87 140.738 231.43 141.258 232.15 141.458L240.5 143.728C241.12 143.898 241.75 143.828 242.27 143.578C242.67 143.378 243.01 143.068 243.23 142.668L245.32 138.829C245.34 138.779 245.4 138.799 245.42 138.809C245.44 138.819 245.48 138.839 245.47 138.879L244.4 144.228L243.61 148.177C243.56 148.417 243.7 148.647 243.95 148.737C244.2 148.827 244.45 148.727 244.56 148.497L246.34 144.808L247.27 142.888C247.36 142.698 247.56 142.658 247.72 142.678C247.88 142.698 248.07 142.818 248.11 143.038L248.3 144.428C248.36 144.838 248.54 145.228 248.82 145.538C249.11 145.857 249.49 146.107 249.94 146.237L254.61 147.587C254.66 147.537 254.72 147.487 254.77 147.437C254.81 147.407 254.84 147.367 254.88 147.337C254.9 147.317 254.92 147.307 254.93 147.287L250.04 145.877C249.3 145.667 248.76 145.078 248.67 144.368L248.47 142.978C248.42 142.628 248.14 142.358 247.78 142.298C247.42 142.238 247.1 142.398 246.95 142.708L246.01 144.698L244.26 148.327C244.22 148.417 244.11 148.387 244.09 148.377C244.06 148.367 243.97 148.327 243.99 148.237L244.77 144.318L245.84 138.939C245.88 138.729 245.77 138.529 245.55 138.449C245.33 138.369 245.12 138.449 245.01 138.639L242.92 142.478C242.66 142.948 242.21 143.278 241.68 143.398C241.34 143.478 240.97 143.468 240.6 143.368L232.25 141.098L232.22 141.088C231.73 140.948 231.34 140.638 231.1 140.239C230.92 139.939 230.83 139.579 230.87 139.219L231.17 136.789C231.2 136.549 231.05 136.349 230.82 136.279C230.58 136.209 230.35 136.319 230.26 136.529L228.91 139.589L227.49 142.798C227.41 142.988 227.21 143.008 227.07 142.958C226.93 142.918 226.78 142.798 226.81 142.588L227.34 139.119L228.53 131.42C228.57 131.15 228.41 130.89 228.13 130.81C227.85 130.72 227.57 130.83 227.45 131.09L224.08 138.159L221.73 143.078C221.63 143.288 221.41 143.308 221.25 143.268L221.24 143.268C221.08 143.218 220.9 143.078 220.93 142.848L221.6 137.429L222.69 128.581C222.73 128.211 222.51 127.881 222.14 127.761C221.82 127.661 221.42 127.731 221.22 128.111L217.77 136.279L214.72 143.508C214.67 143.638 214.53 143.648 214.44 143.628C214.34 143.608 214.23 143.528 214.24 143.388L214.78 136.859C214.83 136.219 214.56 135.609 214.09 135.179C213.84 134.95 213.53 134.779 213.19 134.67L204.61 132.15C204.63 132.22 204.65 132.29 204.67 132.36C204.67 132.37 204.67 132.38 204.68 132.39C204.69 132.45 204.71 132.51 204.73 132.57L213.07 135.039C213.91 135.289 214.47 136.039 214.4 136.839L213.86 143.368C213.84 143.658 214.02 143.908 214.31 143.998L214.33 144.008C214.63 144.088 214.92 143.948 215.04 143.678L218.11 136.409L221.54 128.291C221.64 128.091 221.87 128.081 222.02 128.131C222.18 128.181 222.35 128.321 222.32 128.551L221.24 137.339L220.56 142.818C220.52 143.188 220.75 143.528 221.13 143.638L221.14 143.638C221.52 143.748 221.89 143.588 222.05 143.258L224.43 138.279L227.78 131.27C227.84 131.13 228 131.18 228.02 131.19C228.05 131.2 228.19 131.25 228.17 131.39L226.99 139.039L226.45 142.558C226.4 142.908 226.61 143.228 226.97 143.338C227.33 143.438 227.68 143.298 227.82 142.968L229.26 139.709L230.59 136.699Z"   fill="#FFFFFF" >
</path>
<path d="M225.458 160.211C226.118 159.741 226.118 158.582 225.318 158.971C225.138 159.061 224.338 159.041 224.098 158.971C222.019 158.392 216.649 160.48 216.649 160.48L214.32 159.021L213.64 160.41L212.3 163.128L212.06 163.618L211.77 164.197C211.78 164.207 211.85 164.217 211.95 164.237C213.09 164.417 219.289 164.917 223.748 165.127C224.878 165.177 226.658 164.657 227.748 163.788C227.948 163.628 228.158 163.468 228.358 163.298C229.148 162.649 229.927 161.979 230.187 161.589C230.457 161.18 230.187 160.63 228.708 161.449C226.538 163.098 224.408 162.788 223.728 162.868C223.068 162.728 222.589 162.449 222.639 161.939C222.798 160.4 224.748 160.71 225.458 160.211Z"   fill="#63B3B8" >
</path>
<path d="M214.34 162.35L216.65 160.5L214.33 159.03L203.359 152.15C202.969 152.29 198.689 153.71 199.349 157.62C199.409 157.98 199.509 158.36 199.659 158.76C199.679 158.82 199.709 158.88 199.729 158.94L211.82 164.24L211.97 164.26L212.52 163.82L213.16 163.3L214.34 162.35Z"   fill="#63B3B8" >
</path>
<g opacity="0.12">
<path d="M223.75 165.136C224.88 165.186 226.66 164.667 227.75 163.797C227.95 163.637 228.16 163.477 228.36 163.307C225.15 164.956 217.26 163.947 213.86 163.397C213.59 163.357 213.35 163.317 213.14 163.277C212.6 163.187 212.29 163.127 212.29 163.127L199.32 157.608C195.69 156.059 192.06 154.519 188.43 152.97C188.33 153.06 188.18 153.22 188.06 153.47C187.93 153.76 187.92 154.009 187.92 154.149L199.64 158.748C199.66 158.808 199.69 158.868 199.71 158.928L211.8 164.227L211.95 164.247C213.09 164.427 219.29 164.927 223.75 165.136Z"   fill="#427A7D" >
</path>
</g>
<path d="M245.999 120.083C245.409 120.183 244.859 120.013 244.199 120.053C243.77 120.073 243.06 120.413 243.06 121.023C243.06 121.143 243.06 121.273 243.06 121.403C243.64 122.273 244.01 123.073 244.289 123.853C244.299 123.873 244.299 123.893 244.309 123.903C244.389 124.113 244.459 124.313 244.519 124.523C244.519 124.523 245.299 127.243 245.369 128.133C245.499 129.283 247.019 129.163 247.109 127.833C247.109 127.833 248.378 129.353 248.998 127.533C249.128 127.703 249.638 127.963 250.068 127.843C250.718 127.443 250.658 126.313 251.207 125.083C251.357 124.763 251.407 124.633 251.427 124.583C250.728 126.623 250.888 127.373 251.027 127.643C251.188 127.773 251.397 127.843 251.687 127.763C251.917 127.703 252.027 127.153 252.187 126.643C252.387 126.013 252.837 125.523 252.997 124.873C253.147 124.273 253.257 122.773 252.977 122.083C252.407 120.713 251.008 120.953 250.968 120.923C250.498 120.473 250.128 120.093 249.008 120.343C248.598 120.433 248.398 120.073 247.439 119.883C246.939 119.783 246.279 120.043 245.999 120.083Z"   fill="#63B3B8" >
</path>
<path d="M246.765 123.605L246.395 123.785C245.736 123.546 244.836 123.466 244.307 123.855C244.287 123.865 244.317 123.895 244.327 123.905C244.406 124.115 244.476 124.315 244.536 124.525C244.536 124.525 245.316 127.244 245.386 128.134C245.496 129.283 247.015 129.163 247.105 127.834C247.105 127.834 248.374 129.353 248.994 127.534C249.014 127.844 249.394 128.034 249.793 127.984C249.844 127.954 249.903 127.924 249.973 127.894C250.003 127.884 250.033 127.864 250.063 127.844C250.713 127.444 250.653 126.314 251.203 125.085C251.353 124.765 251.403 124.635 251.423 124.585C250.723 126.624 250.883 127.374 251.023 127.644C251.183 127.774 251.393 127.844 251.683 127.764C251.912 127.704 252.022 127.154 252.182 126.644C252.382 126.014 252.842 125.525 252.992 124.875C253.142 124.275 252.692 123.426 251.584 123.955C251.583 123.955 251.583 123.955 251.583 123.955C251.583 123.955 251.583 123.955 251.584 123.955C251.709 123.893 251.17 123.545 250.393 123.466C249.624 123.386 249.264 123.635 249.074 123.715C248.075 123.206 246.765 123.605 246.765 123.605ZM251.583 123.955C251.583 123.955 251.583 123.955 251.584 123.955C251.583 123.955 251.583 123.955 251.583 123.955Z" fill-rule="evenodd"  fill="#58A2A6" >
</path>
<path d="M266.729 185.495C265.479 182.665 263.599 180.305 261.33 178.495C259.82 177.285 258.14 176.315 256.36 175.635C251.89 173.915 246.771 173.895 242.051 175.995C232.622 180.185 228.362 191.245 232.552 200.675L248.081 235.644C250.17 240.364 253.99 243.784 258.45 245.505C262.309 246.994 266.659 247.204 270.819 245.885C271.469 245.675 272.119 245.424 272.759 245.144C282.188 240.954 286.448 229.895 282.258 220.465L266.729 185.495Z"   fill="#F0EAF8" >
</path>
<path d="M266.73 185.496C264.641 180.776 260.831 177.356 256.361 175.635C251.891 173.915 246.771 173.895 242.052 175.995C232.622 180.186 228.362 191.247 232.552 200.678L240.142 217.77L274.32 202.588L266.73 185.496Z"   fill="#A875F9" >
</path>
<g opacity="0.07">
<path d="M261.331 178.485C259.821 177.275 258.141 176.305 256.361 175.625C251.891 173.905 246.771 173.885 242.052 175.985C232.622 180.175 228.363 191.235 232.552 200.665L248.081 235.634C250.171 240.354 253.991 243.774 258.451 245.495C262.31 246.984 266.66 247.194 270.82 245.875C240.811 209.215 252.091 187.875 261.331 178.485Z"   fill="#000000" >
</path>
</g>
<g opacity="0.28">
<path d="M260.438 190.607C258.681 191.387 261.051 200.559 265.73 211.093C270.408 221.626 275.625 229.533 277.382 228.753C279.138 227.973 276.769 218.801 272.09 208.267C267.411 197.734 262.194 189.827 260.438 190.607Z"   fill="#FFFFFF" >
</path>
</g>
<path d="M53.4687 81.1147C53.7586 80.2349 53.9185 79.3248 53.9287 78.4148C53.9687 76.1246 53.1387 73.8247 51.4187 72.0547C47.9892 68.5148 42.3298 68.4246 38.79 71.8547L25.6616 84.5748C23.8917 86.2848 22.9918 88.5649 22.9518 90.8449C22.9118 92.825 23.5318 94.805 24.8115 96.4548C25.0117 96.7151 25.2316 96.9649 25.4615 97.205C28.8913 100.745 34.5507 100.835 38.0902 97.4049L51.2189 84.6849C52.2787 83.6647 53.0287 82.4247 53.4687 81.1147Z"   fill="#F0EAF8" >
</path>
<path d="M51.2087 84.6913C52.9786 82.9817 53.8785 80.7022 53.9186 78.4226C53.9585 76.1331 53.1286 73.8338 51.4087 72.0641C47.979 68.5249 42.3193 68.4348 38.7795 71.8641L32.3699 78.0729L44.799 90.8999L51.2087 84.6913Z"   fill="#A875F9" >
</path>
<g opacity="0.07">
<path d="M53.4687 81.1126C53.7586 80.2326 53.9185 79.3228 53.9287 78.413C53.9687 76.1236 53.1387 73.8238 51.4187 72.0544C47.9892 68.5149 42.3298 68.4249 38.79 71.8543L25.6616 84.5719C23.8917 86.2817 22.9918 88.5614 22.9518 90.8408C22.9118 92.8206 23.5318 94.8002 24.8115 96.4498C36.3104 76.9634 47.7392 78.5131 53.4687 81.1126Z"   fill="#000000" >
</path>
</g>
<g opacity="0.28">
<path d="M39.535 88.4675C35.5801 92.2987 32.8911 95.9384 33.529 96.5968C34.1669 97.2553 37.8901 94.6833 41.845 90.8521C45.7998 87.021 48.4888 83.3813 47.8509 82.7228C47.213 82.0644 43.4898 84.6364 39.535 88.4675Z"   fill="#FFFFFF" >
</path>
</g>
<path d="M242.549 208.288C242.069 208.008 241.569 207.748 241.049 207.518C233.398 204.107 224.428 207.547 221.007 215.188L208.356 243.53C207.337 245.83 206.926 248.24 207.066 250.59C207.156 252.16 207.496 253.7 208.046 255.14C209.437 258.761 212.197 261.861 216.027 263.571C223.678 266.981 232.658 263.551 236.069 255.9L248.719 227.548C250.43 223.728 250.419 219.568 249.029 215.948C247.839 212.818 245.609 210.078 242.549 208.288Z"   fill="#F0EAF8" >
</path>
<path d="M208.35 243.55C206.64 247.371 206.65 251.531 208.04 255.151C209.43 258.771 212.19 261.871 216.02 263.581C223.67 266.991 232.65 263.561 236.06 255.911L242.24 242.06L214.54 229.69L208.35 243.55Z"   fill="#F9617D" >
</path>
<g opacity="0.07">
<path d="M207.07 250.591C207.16 252.161 207.5 253.701 208.05 255.141C209.44 258.761 212.2 261.861 216.03 263.571C223.68 266.981 232.66 263.551 236.07 255.901L248.72 227.55C250.43 223.731 250.42 219.57 249.03 215.95C247.84 212.82 245.61 210.08 242.55 208.29C236.729 246.291 217.74 251.071 207.07 250.591Z"   fill="#000000" >
</path>
</g>
<g opacity="0.28">
<path d="M219.165 227.93C215.353 236.468 213.415 243.904 214.837 244.539C216.26 245.174 220.503 238.767 224.315 230.23C228.127 221.692 230.064 214.256 228.642 213.621C227.22 212.986 222.977 219.393 219.165 227.93Z"   fill="#FFFFFF" >
</path>
</g>
<path d="M143.58 107.32C138.73 110.78 126.62 112.32 126.62 112.32C124.65 117.16 126.58 136.8 126.07 148.6C125.81 154.5 125.64 160.63 124.56 168.12C122.66 181.33 119.14 193.079 116.37 200.25C123.12 202.66 133.9 204.41 147.21 204.41C162.77 204.41 176.22 201.61 183.25 198.719C179.71 181.22 167.38 166.88 166.05 149.99C165.01 136.82 167.96 126.96 168.92 115.45C166.27 114.66 158.34 110.92 154.89 109.269C154.36 108.96 151.91 107.78 151.35 107.58C151.35 107.58 149.14 113.369 143.58 107.32Z"   fill="#D2D9E0" >
</path>
<path d="M165.406 254.626C165.406 254.626 157.645 258.446 156.695 253.186C156.365 251.396 156.045 259.496 156.385 262.016C156.435 262.386 156.495 262.636 156.575 262.716C157.205 263.357 161.446 264.527 164.016 267.017C165.786 268.727 176.367 272.307 181.217 267.497C181.828 266.877 182.118 266.307 182.148 265.767C182.368 261.646 167.356 259.286 165.406 254.626Z"   fill="#3F3F3F" >
</path>
<path d="M142.931 266.546C141.151 264.427 139.991 260.417 140.041 259.447C140.101 258.297 139.741 257.508 139.111 256.998C137.151 255.398 132.61 256.408 130.38 257.048C129.59 257.268 129.09 257.448 129.09 257.448C129.09 257.448 129.57 260.827 129.93 266.866C130.29 272.895 135.991 275.255 139.911 274.275C141.061 273.985 141.951 273.395 142.581 272.635C142.721 272.466 142.851 272.296 142.971 272.106C144.121 270.306 144.071 267.906 142.931 266.546Z"   fill="#3F3F3F" >
</path>
<path d="M132.01 269.387C131.18 267.387 130.63 260.659 130.38 257.05C129.59 257.27 129.09 257.45 129.09 257.45C129.09 257.45 129.57 260.829 129.93 266.867C130.29 272.896 135.99 275.255 139.91 274.276C141.06 273.986 141.95 273.396 142.58 272.636C138.28 275.295 133.15 272.156 132.01 269.387Z"   fill="#303030" >
</path>
<path d="M167.63 267.798C164.87 266.738 163.51 264.369 159.74 262.97C158.45 262.5 157.3 262.2 156.39 262.02C156.44 262.39 156.5 262.64 156.58 262.72C157.21 263.359 161.45 264.529 164.02 267.018C165.79 268.727 176.37 272.306 181.22 267.498C181.83 266.878 182.12 266.308 182.15 265.769C179.46 270.437 170.88 269.037 167.63 267.798Z"   fill="#303030" >
</path>
<path d="M170.363 264.681C171.572 266.87 173.791 267.95 176.36 267.95C178.32 267.95 181.268 266.8 180.479 264.841C179.939 263.492 176.54 261.882 173.282 260.793C170.543 260.173 169.003 262.192 170.363 264.681Z"   fill="#4D4D4D" >
</path>
<path d="M142.94 266.55C141.16 264.43 140 260.42 140.05 259.45C140.11 258.3 139.75 257.51 139.12 257L137.79 257.67L138.76 257.67C138.76 257.67 138.99 258.3 138.99 260.01C138.99 261.78 141.37 266.06 142.58 267.94C143.75 269.76 143.02 271.95 142.97 272.11C144.12 270.31 144.07 267.91 142.94 266.55Z"   fill="#4D4D4D" >
</path>
<path d="M137.429 267.522C134.661 267.872 134.011 268.572 134.041 269.891C134.071 271.211 136.939 272.47 138.648 272.78C140.567 273.13 142.076 272.47 142.246 270.601C142.416 268.732 140.967 267.113 140.797 266.983C139.518 266.003 140.187 267.173 137.429 267.522Z"   fill="#4D4D4D" >
</path>
<g opacity="0.51">
<path d="M174.312 267.184C176.283 267.974 178.945 267.184 179.635 266.714C180.325 266.244 179.975 265.783 179.465 265.623C178.955 265.463 178.264 265.933 178.264 265.933C176.543 267.334 172.771 266.554 174.312 267.184Z"   fill="#7A7A7A" >
</path>
</g>
<g opacity="0.51">
<path d="M140.699 272.47C142.399 271.951 141.269 271.113 140.388 271.572C138.638 272.47 136.316 270.984 136.616 271.572C136.657 271.921 138.988 272.989 140.699 272.47Z"   fill="#7A7A7A" >
</path>
</g>
<path d="M169.045 162L127.54 162.44L128.17 218.289L128 221.249C126.97 222.649 128.34 224.829 128.34 224.829L127.79 256.699C132.33 260.488 141.609 257.769 141.609 257.769C142.188 256.398 142.858 251.548 143.468 245.969C144.508 236.489 145.388 224.939 145.388 224.939L145.528 221.119C145.758 220.309 145.708 219.459 145.368 218.679L144.938 217.689L147.988 189.939L148.178 188.25L148.178 188.269L148.238 188.639L148.258 188.75L148.258 188.769L152.437 215.639L152.787 219.619C152.177 221.829 152.297 234.699 153.337 241.879C153.587 243.539 153.777 245.128 153.927 246.589L153.927 246.599C154.457 251.599 154.517 255.149 154.517 255.149C157.737 261.729 168.975 257.699 168.975 257.699L170.015 228.669L169.635 225.059C170.645 223.999 170.725 222.449 169.825 221.329L169.005 220.279C170.645 216.42 170.605 162.84 169.045 162Z"   fill="url(#linear_fill_Ax3Y31ZwfX)" >
</path>
<g opacity="0.24">
<path d="M154.237 218.27C154.077 217.98 148.91 191.92 148.25 188.59C148.25 188.64 148.26 188.7 148.26 188.77L152.438 215.64L152.788 219.62C152.178 221.83 152.298 234.7 153.338 241.88C153.588 243.54 153.778 245.13 153.928 246.59C153.448 238 154.417 218.58 154.237 218.27Z"   fill="#000000" >
</path>
</g>
<g opacity="0.24">
<path d="M143.8 217.6C144.29 220.91 143.49 245.69 143.48 245.96C144.52 236.48 145.4 224.93 145.4 224.93L145.54 221.11C145.77 220.3 145.72 219.45 145.38 218.67L144.95 217.68L148 189.93C147 195.25 143.38 214.72 143.8 217.6Z"   fill="#000000" >
</path>
</g>
<path d="M136.76 162.52L157.34 162.52L157.34 158.31L136.76 158.31L136.76 162.52Z"   fill="#794E29" >
</path>
<path d="M147.719 171.32C155.949 186.26 153.21 201.18 153.21 201.18C153.21 201.18 178.23 193.97 183.25 196.32C183.25 184.06 173.44 169.33 167.85 153.84C162.51 139.06 170.35 121.8 168.93 115.41L153.349 108.68C153.34 108.68 157.459 112.2 149.749 132.93C149.749 132.93 137.659 153.05 147.719 171.32Z"   fill="#EDF5FD" >
</path>
<path d="M126.631 112.32L127.521 119.24C127.521 119.24 128.581 143.41 122.12 170.88C119.03 184.01 116.37 200.25 116.37 200.25C123.37 194.55 139.502 200.26 139.502 200.26C139.502 200.26 142.762 194.099 144.172 181.09C145.512 168.72 148.502 148.07 144.082 132.2C138.922 113.67 143.442 107.65 143.442 107.65L126.631 112.32Z"   fill="#EDF5FD" >
</path>
<path d="M124.4 175.72L124.86 177.311C124.84 177.891 135.668 181.801 135.819 176.531C135.878 174.35 134.019 171.39 133.649 171.2L124.4 175.72Z"   fill="#F6ACAC" >
</path>
<path d="M123.63 175.78L123.25 180.98L122.53 190.92L134.09 192.07L136.12 192.27L138.14 177.91C128.736 178.727 123.648 175.802 123.63 175.78ZM123.63 175.78C123.63 175.78 123.63 175.78 123.63 175.78L123.63 175.78Z" fill-rule="evenodd"  fill="#F7FBFF" >
</path>
<path d="M123.24 180.98L122.52 190.92L134.08 192.07C130.55 191.5 123.63 189.32 123.24 180.98Z"   fill="#D2D9E0" >
</path>
<path d="M134.38 192.07C135.51 192.27 136.26 192.27 136.26 192.27L134.38 192.07Z"   fill="#D2D9E0" >
</path>
<path d="M163.28 190.68L165.3 190.19L176.76 187.42L174.37 177.7L173.12 172.62C173.11 172.62 168.47 176.25 158.83 176.78L163.28 190.68Z"   fill="#F7FBFF" >
</path>
<path d="M176.75 187.43L174.36 177.71C175.36 186 168.75 189.14 165.29 190.2L176.75 187.43Z"   fill="#D2D9E0" >
</path>
<path d="M136.85 119.67C136.85 119.67 138.69 119.69 140.64 121.52L137.3 124.16C137.3 124.16 141.12 136.9 145.93 141.73L141.5 108.75C141.5 108.75 138.08 109.45 136.85 119.67Z"   fill="#D2D9E0" >
</path>
<path d="M139.63 111.073C138.61 113.513 137.71 118.982 137.71 118.982C137.71 118.982 140.94 120.672 141.32 121.852L137.68 124.212C137.68 124.212 138.93 130.921 145.92 141.72C145.93 141.72 140.92 110.474 143.2 108.094C143.44 107.844 140.65 108.634 139.63 111.073Z"   fill="#EDF5FD" >
</path>
<path d="M146.544 140.075C149.157 134.181 157.078 124.55 157.078 124.55L155.078 122.57L158.468 121.86C158.878 109.78 153.439 108.96 153.439 108.96C157.209 110.251 148.923 133.598 146.544 140.075ZM145.93 141.73C145.933 141.72 146.163 141.115 146.544 140.075C146.281 140.669 146.072 141.225 145.93 141.73ZM145.93 141.73C145.93 141.73 145.93 141.73 145.93 141.73C145.93 141.73 145.93 141.73 145.93 141.73Z" fill-rule="evenodd"  fill="#D2D9E0" >
</path>
<path d="M150.488 121.34C145.85 129.83 145.94 141.73 145.94 141.73C145.94 141.73 152.108 128.77 156.246 124.46L154.667 122.41L158.116 120.94C158.106 120.92 159.595 110.38 151.638 107.95C151.638 107.95 155.277 112.58 150.488 121.34Z"   fill="#EDF5FD" >
</path>
<path d="M127.86 145.29C127.86 145.29 136.3 117.421 126.62 112.211C122.38 109.931 115.48 146.93 115.49 146.96C115.62 147.83 119.99 164.14 122.56 174.8C122.66 175.23 122.76 175.66 122.86 176.07C122.86 176.07 134.74 175.44 137.61 171.24C137.61 171.24 129.95 149.18 127.86 145.29Z"   fill="#EDF5FD" >
</path>
<path d="M121.3 147.23C121.3 147.23 126.59 146.74 126.62 146.58C126.65 146.42 137.61 171.23 137.61 171.23L128.7 145.42C128.7 145.42 129.76 141.3 131.12 128.1C132.6 113.78 126.62 112.2 126.62 112.2C134.88 116.21 129.24 139.81 127.5 142.9C125.76 145.99 121.86 145.44 121.86 145.44C123.82 146.29 126.25 145.44 126.25 145.44C125.21 146.46 121.3 147.23 121.3 147.23Z"   fill="#D2D9E0" >
</path>
<path d="M122.56 174.8C122.66 175.23 122.76 175.66 122.86 176.07C122.86 176.07 134.74 175.44 137.61 171.24C134.711 174.647 122.609 174.819 122.56 174.8ZM122.56 174.8C122.56 174.8 122.56 174.8 122.56 174.8C122.56 174.8 122.56 174.8 122.56 174.8Z" fill-rule="evenodd"  fill="#D2D9E0" >
</path>
<path d="M133.262 127.853C130.832 132.412 134.901 142.67 135.071 143.1L135.741 142.87C135.701 142.77 131.612 132.442 133.912 128.123C134.352 127.283 135.001 126.743 135.871 126.483C137.101 126.113 138.121 126.333 138.961 127.173C141.691 129.872 141.691 138.481 139.701 142.69L140.351 142.94C141.341 140.84 141.911 137.561 141.821 134.391C141.731 130.912 140.881 128.123 139.481 126.743C138.451 125.733 137.131 125.433 135.641 125.883C134.591 126.203 133.792 126.863 133.262 127.853Z"   fill="#000000" >
</path>
<path d="M143.24 145.36L143.14 145.23C141.3 146.45 139.69 146.831 138.35 146.36C136.01 145.55 135.26 142.39 135.25 142.36L135.08 142.39C135.11 142.52 135.86 145.66 138.29 146.511C138.59 146.621 138.92 146.691 139.25 146.711C140.43 146.791 141.77 146.34 143.24 145.36Z"   fill="#000000" >
</path>
<path d="M136.17 146.25C138.84 145.8 140.35 142.41 140.41 142.27L140.25 142.21C140.24 142.25 138.72 145.66 136.14 146.1C134.83 146.33 133.46 145.75 132.07 144.4L131.94 144.51C133.09 145.62 134.23 146.22 135.34 146.3C135.62 146.32 135.89 146.31 136.17 146.25Z"   fill="#000000" >
</path>
<path d="M142.821 146.096C143.251 146.347 143.9 145.986 144.309 145.626C144.539 145.425 144.699 144.984 144.579 144.714C144.459 144.443 144.309 144.283 143.72 144.243C143.221 144.203 142.352 144.553 142.272 144.944C142.242 145.105 142.222 145.746 142.821 146.096Z"   fill="#000000" >
</path>
<path d="M131.657 143.417C131.056 143.377 130.885 143.517 130.725 143.766C130.565 144.016 130.645 144.475 130.845 144.705C131.196 145.115 131.777 145.554 132.248 145.364C132.899 145.105 132.989 144.465 132.979 144.306C132.969 143.916 132.168 143.447 131.657 143.417Z"   fill="#000000" >
</path>
<path d="M143.58 108.01C143.58 108.01 143.59 108.03 143.6 108.04C143.61 108.03 143.62 108.03 143.63 108.03C143.75 107.77 143.9 107.52 144.06 107.29C143.08 107.48 142.121 107.7 141.181 107.99C136.943 109.21 134.604 112.82 134.404 118.43C134.254 122.61 135.363 126.48 135.373 126.52L136.053 126.36C136.043 126.32 134.964 122.52 135.104 118.44C135.293 113.05 137.403 109.74 141.381 108.6C142.111 108.38 142.84 108.2 143.56 108.05C143.57 108.04 143.57 108.02 143.58 108.01Z"   fill="#000000" >
</path>
<path d="M138.36 108.17C138.37 108.16 138.39 108.16 138.4 108.16C138.39 108.15 138.39 108.14 138.38 108.13C138.38 108.15 138.37 108.16 138.36 108.17Z"   fill="#000000" >
</path>
<path d="M157.614 110.63C156.573 109.28 154.042 108.09 150.87 107.42C151.07 107.69 151.26 107.97 151.36 108.2C154.232 108.9 156.263 109.99 157.044 111C161.216 116.4 151.8 138.14 151.71 138.36L152.371 138.6C152.771 137.69 162.017 116.32 157.614 110.63Z"   fill="#000000" >
</path>
<path d="M152 135.74C150.511 135.64 149.142 136.27 148.322 137.3C147.893 137.849 147.613 138.509 147.553 139.229C147.373 141.298 149.092 143.108 151.381 143.268C152.9 143.378 154.289 142.718 155.099 141.658C155.508 141.118 155.768 140.489 155.828 139.789C155.998 137.71 154.279 135.9 152 135.74Z"   fill="#000000" >
</path>
<path d="M151.59 137.97C150.612 137.97 149.82 138.691 149.82 139.58C149.82 140.469 150.612 141.19 151.59 141.19C152.567 141.19 153.36 140.469 153.36 139.58C153.36 138.691 152.567 137.97 151.59 137.97Z"   fill="#6C7078" >
</path>
<g opacity="0.34">
<path d="M151.99 135.75C150.501 135.65 149.132 136.28 148.312 137.31C148.242 137.55 148.192 137.81 148.172 138.07C147.992 140.279 149.811 142.199 152.25 142.369C153.3 142.439 154.299 142.169 155.099 141.659C155.509 141.119 155.768 140.489 155.828 139.789C155.998 137.71 154.279 135.9 151.99 135.75Z"   fill="#6C7078" >
</path>
</g>
<path d="M151.11 105.22C150.81 103.39 150.78 102.75 150.78 102.68C150.78 102.67 150.77 102.67 150.77 102.67L144.34 102.72C144.33 102.72 144.33 102.73 144.33 102.73C144.32 103.07 144.3 103.42 144.26 103.76C143.97 106.59 142.86 108.95 142.86 108.95C142.86 108.95 144.07 111.99 147.14 111.99C150.85 111.99 152.41 109.59 152.42 109.53C151.79 108.14 151.34 106.69 151.11 105.22Z"   fill="#F6ACAC" >
</path>
<path d="M150.78 102.82L144.34 102.87C144.33 103.22 144.31 103.57 144.27 103.91C145.36 105.041 147.83 106.752 151.14 105.381C150.92 104.151 150.78 102.82 150.78 102.82Z"   fill="#F49897" >
</path>
<path d="M139.438 93.7907C139.438 93.7907 136.079 91.1305 135.439 93.7907C134.799 96.4509 136.089 98.3211 139.438 96.7009C139.438 96.7009 141.408 104.542 148.307 103.892C155.206 103.242 156.416 96.5709 156.416 96.5709C156.416 96.5709 158.555 97.281 159.485 95.6009C160.415 93.9208 157.635 91.5204 155.636 92.9407C155.626 92.9507 149.137 90.2903 148.307 83.8499C148.307 83.8499 140.158 83.8199 139.438 93.7907Z"   fill="#F6ACAC" >
</path>
<path d="M156.17 92.63C152.23 92.2499 150.2 89.8299 149.19 87.8699C148.09 85.7399 147.93 83.6799 147.93 83.6599L147.86 83.6599C147.86 83.6799 148.02 85.7499 149.12 87.8899C149.76 89.1499 150.6 90.1799 151.61 90.9599C152.87 91.9399 154.4 92.5199 156.16 92.6899L156.17 92.63Z"   fill="#85483C" >
</path>
<path d="M142.84 93.4406L142.98 93.4806L143.59 93.6405L144.83 93.9502L145.76 94.19L146.57 94.3999C146.54 94.3299 146.52 94.26 146.51 94.1701C146.45 94.0002 146.39 93.8403 146.32 93.6904C146.05 93.1008 145.72 92.6912 145.36 92.4014C145.35 92.3914 145.33 92.3814 145.32 92.3714C145.29 92.3514 145.26 92.3314 145.23 92.3114C145 92.1516 144.76 92.0516 144.51 91.9817C144.25 91.9118 143.98 91.8818 143.72 91.8918C143.52 91.8918 143.31 91.9217 143.11 91.9617C141.92 92.2015 140.91 92.951 140.91 92.951L142.83 93.4406L142.84 93.4406Z"   fill="#FFFFFF" >
</path>
<path d="M153.9 92.9704C153.85 92.9304 153.8 92.9005 153.76 92.8705C153.74 92.8605 153.72 92.8405 153.7 92.8305L153.69 92.8305C153.33 92.5805 152.99 92.4106 152.68 92.3006C152.59 92.2707 152.49 92.2407 152.4 92.2207C152.34 92.2107 152.29 92.2007 152.24 92.1907C151.85 92.1307 151.51 92.1607 151.21 92.2607C150.94 92.3506 150.69 92.4906 150.48 92.6705C149.64 93.3603 149.29 94.4899 149.29 94.4899L150.82 94.19L151.18 94.12L152.09 93.9401L152.11 93.9401L152.92 93.7802L153.98 93.5702L154.5 93.4703C154.29 93.2803 154.09 93.1104 153.9 92.9704Z"   fill="#FFFFFF" >
</path>
<path d="M149.53 98.5598L149.57 98.5198L148.24 93.7898L148.05 93.8398L149.35 98.4498C149.18 98.5598 148.53 98.8498 147.5 97.9298L147.37 98.0698C147.99 98.6198 148.49 98.7698 148.85 98.7698C149.27 98.7698 149.51 98.5698 149.53 98.5598Z"   fill="#F6798F" >
</path>
<path d="M141.8 91.1385C144.1 89.7751 146.36 91.7199 146.36 91.7199C144.15 89.0534 141.8 91.1284 141.8 91.1385Z"   fill="#18325C" >
</path>
<path d="M149 91.9099C150.79 90.2319 153.64 91.3306 153.64 91.3306C150.35 89.5826 149 91.9099 149 91.9099Z"   fill="#18325C" >
</path>
<path d="M148.58 100.32L148.51 100.14C148.04 100.3 147.08 100.4 145.88 99.2397L145.74 99.3698C146.6 100.21 147.36 100.43 147.92 100.43C148.19 100.43 148.41 100.38 148.58 100.32Z"   fill="#F6798F" >
</path>
<path d="M151.659 95.335C150.652 95.5386 149.904 96.0371 149.987 96.4485C150.07 96.8599 150.954 97.0284 151.961 96.8249C152.967 96.6213 153.716 96.1228 153.633 95.7113C153.55 95.2999 152.666 95.1314 151.659 95.335Z"   fill="#F67D93" >
</path>
<path d="M142.643 95.8112C142.52 96.2642 143.323 96.877 144.437 97.18C145.551 97.4831 146.553 97.3615 146.677 96.9086C146.8 96.4556 145.997 95.8427 144.883 95.5397C143.769 95.2366 142.767 95.3582 142.643 95.8112Z"   fill="#F67D93" >
</path>
<path d="M143.09 91.9617C142.92 92.2015 142.81 92.5012 142.81 92.8209C142.81 93.0607 142.87 93.2805 142.97 93.4803L143.58 93.6402L144.82 93.9499C145.15 93.7101 145.37 93.3005 145.37 92.8309C145.37 92.681 145.35 92.5312 145.3 92.3713C145.27 92.3514 145.24 92.3314 145.21 92.3114C144.98 92.1515 144.74 92.0516 144.49 91.9817C144.23 91.9118 143.96 91.8818 143.7 91.8918C143.5 91.8918 143.29 91.9217 143.09 91.9617Z"   fill="#18325C" >
</path>
<path d="M152.24 92.1707C151.85 92.1107 151.51 92.1407 151.21 92.2406C150.94 92.3306 150.69 92.4705 150.48 92.6505C150.4 92.8104 150.35 93.0003 150.35 93.1903C150.35 93.5801 150.53 93.93 150.82 94.1699L151.18 94.0999L152.09 93.92L152.11 93.92L152.92 93.7601C153.01 93.5901 153.06 93.4002 153.06 93.1903C153.06 92.8404 152.91 92.5205 152.68 92.2806C152.59 92.2506 152.49 92.2206 152.4 92.2007C152.34 92.1907 152.29 92.1807 152.24 92.1707Z"   fill="#18325C" >
</path>
<path d="M171.14 179.24C171.25 178.83 171.36 178.41 171.47 177.97C174.25 167.351 178.94 151.122 179.09 150.252C179.1 150.222 172.93 113.124 168.65 115.324C158.87 120.374 166.75 148.372 166.75 148.372C164.59 152.242 156.49 174.17 156.49 174.17C159.28 178.41 171.14 179.24 171.14 179.24Z"   fill="#EDF5FD" >
</path>
<path d="M168.35 148.57C168.35 148.57 170.76 149.46 172.74 148.64C172.74 148.64 168.83 149.13 167.15 146C165.47 142.87 160.31 119.2 168.65 115.33C168.65 115.33 162.64 116.81 163.83 131.15C164.93 144.37 165.9 148.51 165.9 148.51L156.48 174.17C156.48 174.17 167.93 149.55 167.96 149.7C167.99 149.86 173.26 150.44 173.26 150.44C173.26 150.44 169.37 149.61 168.35 148.57Z"   fill="#D2D9E0" >
</path>
<path d="M171.14 179.24C171.25 178.83 171.36 178.41 171.47 177.97C171.426 177.998 159.321 177.629 156.49 174.17C159.28 178.41 171.14 179.24 171.14 179.24ZM171.47 177.97C171.47 177.97 171.47 177.97 171.47 177.97C171.47 177.97 171.47 177.97 171.47 177.97Z" fill-rule="evenodd"  fill="#D2D9E0" >
</path>
<path d="M146.25 146.84C145.521 146.84 144.93 147.377 144.93 148.04C144.93 148.703 145.521 149.24 146.25 149.24C146.979 149.24 147.57 148.703 147.57 148.04C147.57 147.377 146.979 146.84 146.25 146.84Z"   fill="#00D5DF" >
</path>
<path d="M145.9 154.29C145.171 154.29 144.58 154.827 144.58 155.49C144.58 156.153 145.171 156.69 145.9 156.69C146.629 156.69 147.22 156.153 147.22 155.49C147.22 154.827 146.629 154.29 145.9 154.29Z"   fill="#00D5DF" >
</path>
<path d="M145.75 161.74C145.021 161.74 144.43 162.277 144.43 162.94C144.43 163.603 145.021 164.14 145.75 164.14C146.479 164.14 147.07 163.603 147.07 162.94C147.07 162.277 146.479 161.74 145.75 161.74Z"   fill="#00D5DF" >
</path>
<path     fill="#85483C"  d="M139.544 89.6932C144.214 92.7193 148.114 84.0551 148.882 82.5978C145.975 83.447 135.185 86.8684 139.544 89.6932Z">
</path>
<path d="M3.23999 185.09L21.8599 200.99L22.59 200.09L3.23999 185.09Z"   fill="#DBEFFF" >
</path>
<path d="M20.8788 199.347C20.8388 199.377 20.8089 199.397 20.7788 199.427C20.5789 199.697 20.5588 200.117 20.7689 200.667C21.2289 201.888 23.9992 203.348 24.3392 205.729C24.6693 208.11 27.5696 208.41 27.5696 208.41C27.5696 208.41 27.4195 207.79 28.7297 206.489C29.8597 205.029 30.4999 205.109 30.4999 205.109C30.4999 205.109 30.1998 203.778 29.2297 202.918C28.7896 202.528 28.2097 202.238 27.4596 202.208C25.0594 202.158 23.2791 199.577 22.009 199.267C21.5089 199.137 21.1289 199.177 20.8788 199.347Z"   fill="#D6351C" >
</path>
<path d="M29.2297 202.92C27.3295 207.5 22.309 201.59 21.4788 200.82C20.9788 200.38 20.8788 199.79 20.8788 199.35C20.8388 199.38 20.8089 199.4 20.7788 199.43C20.5789 199.7 20.5588 200.12 20.7689 200.67C21.2289 201.89 23.9992 203.35 24.3392 205.73C24.6693 208.11 27.5696 208.41 27.5696 208.41C27.5696 208.41 27.4195 207.79 28.7297 206.49C29.8597 205.03 30.4999 205.11 30.4999 205.11C30.4999 205.11 30.1998 203.78 29.2297 202.92Z"   fill="#C9321A" >
</path>
<g opacity="0.31">
<path d="M3.24804 183.943C3.24804 183.943 2.01765 182.914 1.44771 183.614C1.09764 184.034 2.21778 185.083 2.21778 185.083L20.9315 200.969C20.9815 200.969 21.7117 201.009 22.1317 200.419C22.4418 200 22.3818 199.54 22.3616 199.44L3.24804 183.943Z"   fill="#89C0ED" >
</path>
</g>
<path d="M30.3725 203.402L26.6927 207.892C25.6027 209.212 25.9827 211.311 27.5227 212.571L51.3804 232.11L58.9398 222.811L35.1219 203.302C33.5823 202.032 31.4523 202.082 30.3725 203.402Z"   fill="#D9EEFF" >
</path>
<path d="M57.8298 223.289L36.5467 205.958L34.5463 204.328C33.2963 203.307 31.556 203.387 30.656 204.487L27.5854 208.238C26.6752 209.338 26.9553 211.058 28.1954 212.078L39.147 220.899L51.599 230.94L57.8298 223.289Z"   fill="url(#linear_fill_bkSiDFG74d)" >
</path>
<path d="M59.8198 220.39L54.9599 226.361L53.8499 227.721L49.1499 233.493C49.2898 233.603 49.4399 233.703 49.58 233.783C50.1599 234.103 50.8299 234.203 51.46 234.103C52.1299 233.993 52.7698 233.633 53.2398 233.062L56.0999 229.552L57.2099 228.202L60.2399 224.481C60.6798 223.961 60.8899 223.311 60.8999 222.68C60.8999 222.4 60.86 222.11 60.7799 221.83C60.67 221.47 60.4898 221.12 60.2399 220.81C60.1198 220.66 59.9799 220.52 59.8198 220.39Z"   fill="#3B92DB" >
</path>
<path d="M61.4098 235.54L62.8898 236.44L65.3198 233.45L64.1797 232.18L58.2398 225.5L53.7798 230.9L61.4098 235.54Z"   fill="#3B92DB" >
</path>
<path d="M65.1098 234.63L64.6698 234.26L63.5598 235.62L64.0098 235.99L65.1098 234.63Z"   fill="#5CA1DB" >
</path>
<path d="M68.1399 231.823C67.65 231.412 66.9199 231.492 66.51 231.993L64.6699 234.253L63.56 235.613L61.72 237.883C61.55 238.103 61.46 238.353 61.46 238.603C61.46 238.953 61.6 239.283 61.89 239.523C62.3799 239.923 63.12 239.853 63.53 239.333L68.31 233.463C68.4799 233.253 68.57 232.993 68.57 232.743C68.57 232.393 68.43 232.062 68.1399 231.823Z"   fill="#5CA1DB" >
</path>
<path d="M29.3266 206.029L28.8379 206.624L54.0831 227.361L54.5718 226.766L29.3266 206.029Z"   fill="#5CA1DB" >
</path>
<path d="M51.7528 221.895L48.8965 225.373L49.1669 225.595L52.0232 222.117L51.7528 221.895Z"   fill="#5CA1DB" >
</path>
<path d="M48.1727 218.945L45.3164 222.422L45.5869 222.645L48.4431 219.167L48.1727 218.945Z"   fill="#5CA1DB" >
</path>
<path d="M44.5428 216.065L41.6865 219.542L41.957 219.765L44.8133 216.287L44.5428 216.065Z"   fill="#5CA1DB" >
</path>
<path d="M40.9727 213.125L38.1165 216.603L38.3869 216.825L41.2432 213.347L40.9727 213.125Z"   fill="#5CA1DB" >
</path>
<path d="M37.3829 210.175L34.5266 213.652L34.7971 213.874L37.6534 210.397L37.3829 210.175Z"   fill="#5CA1DB" >
</path>
<path d="M33.7528 207.295L30.8965 210.772L31.1669 210.995L34.0232 207.517L33.7528 207.295Z"   fill="#5CA1DB" >
</path>
<g opacity="0.24">
<path d="M48.3461 218.296C47.8659 218.881 49.1303 220.713 51.1702 222.389C53.2102 224.064 55.2532 224.949 55.7335 224.364C56.2137 223.779 54.9493 221.947 52.9094 220.271C50.8695 218.596 48.8264 217.711 48.3461 218.296Z"   fill="#FFFFFF" >
</path>
</g>
<g opacity="0.24">
<path d="M41.9949 213.075C41.7355 213.391 42.7049 214.616 44.1602 215.812C45.6155 217.007 47.0055 217.72 47.2649 217.404C47.5243 217.088 46.5549 215.863 45.0996 214.668C43.6443 213.473 42.2543 212.76 41.9949 213.075Z"   fill="#FFFFFF" >
</path>
</g>
<g opacity="0.24">
<path d="M59.8522 221.745C59.5609 221.773 59.3685 222.242 59.4225 222.792C59.4765 223.341 59.7564 223.764 60.0477 223.735C60.339 223.706 60.5314 223.238 60.4774 222.688C60.4234 222.138 60.1435 221.716 59.8522 221.745Z"   fill="#FFFFFF" >
</path>
</g>
<path d="M49.5799 233.79L60.2399 220.81C60.1199 220.66 59.98 220.52 59.8199 220.39L54.96 226.36L53.85 227.72L49.1499 233.49C49.2899 233.6 49.4399 233.7 49.5799 233.79Z"   fill="#FFFFFF" >
</path>
<path d="M62.8899 236.44L65.3199 233.45L64.1799 232.18L61.4099 235.54L62.8899 236.44Z"   fill="#3583C4" >
</path>
<path d="M77.31 31.4399L77.31 25.71L72.3899 25.71L72.3899 31.4399L66.24 31.4399L66.24 36.02L72.3899 36.02L72.3899 41.74L77.31 41.74L77.31 36.02L83.46 36.02L83.46 31.4399L77.31 31.4399Z"   fill="#8EB9F5" >
</path>
<path d="M44.46 20.9599L44.46 24.7999L49.62 24.7999L49.62 29.5999L53.7399 29.5999L53.7399 24.7999L58.89 24.7999L58.89 20.9599L53.7399 20.9599L53.7399 16.1599L49.62 16.1599L49.62 20.9599L44.46 20.9599Z"   fill="#8EB9F5" >
</path>
<path d="M68.7898 9.18989L65.4998 9.18989L65.4998 6.12988L62.8698 6.12988L62.8698 9.18989L59.5898 9.18989L59.5898 11.6399L62.8698 11.6399L62.8698 14.6999L65.4998 14.6999L65.4998 11.6399L68.7898 11.6399L68.7898 9.18989Z"   fill="#8EB9F5" >
</path>
<defs>
<linearGradient id="linear_fill_O9mwtF6gzG" x1="123.896484375" y1="240.038330078125" x2="117.392333984375" y2="215.645263671875" gradientUnits="userSpaceOnUse">
<stop offset="0.00534759322181344" stop-color="#3A5A92"  />
<stop offset="0.3012000024318695" stop-color="#334A7D"  />
<stop offset="0.7387999892234802" stop-color="#293663"  />
<stop offset="1" stop-color="#262F59"  />
</linearGradient>
<linearGradient id="linear_fill_-cuyb5iOCD" x1="96.32568359375" y1="240.339111328125" x2="92.73486328125" y2="208.588623046875" gradientUnits="userSpaceOnUse">
<stop offset="0.00534759322181344" stop-color="#3A5A92"  />
<stop offset="0.3012000024318695" stop-color="#334A7D"  />
<stop offset="0.7387999892234802" stop-color="#293663"  />
<stop offset="1" stop-color="#262F59"  />
</linearGradient>
<linearGradient id="linear_fill_Ax3Y31ZwfX" x1="151.877685546875" y1="268.325927734375" x2="146.139892578125" y2="163.7607421875" gradientUnits="userSpaceOnUse">
<stop offset="0.00534759322181344" stop-color="#3A5A92"  />
<stop offset="0.3012000024318695" stop-color="#334A7D"  />
<stop offset="0.7387999892234802" stop-color="#293663"  />
<stop offset="1" stop-color="#262F59"  />
</linearGradient>
<linearGradient id="linear_fill_bkSiDFG74d" x1="48.371337890625" y1="232.029052734375" x2="37.435791015625" y2="200.63916015625" gradientUnits="userSpaceOnUse">
<stop offset="0.2858000099658966" stop-color="#90D0EC"  />
<stop offset="1" stop-color="#13ACED"  />
</linearGradient>
</defs>
</svg>
