<svg xmlns="http://www.w3.org/2000/svg" xmlns:xlink="http://www.w3.org/1999/xlink" width="1433" height="993" viewBox="0 0 1433 993" fill="none">
<path d="M1271 928C1189 946 1130.5 933.7 1148 757C1159 646 1090.1 600.2 1047 611C971 630 870 674 792 487C659.6 169.5 287 337 273 484C261.9 600.7 357 774 199 768C41 762 0 992 0 992L1423 992C1423 992 1353 910 1271 928Z"   fill="url(#linear_fill_802733A5-CE15-4312-BBA4-8CB303B61ECF)" >
</path>
<rect x="828" y="0" width="402.6" height="462"   fill="url(#linear_fill_02C9820A-E069-432B-A4E2-565B6A08F9B3)" >
</rect>
<path d="M1078 250C1023.5 279.7 1020.2 281.3 936.1 230.2C892.3 203.6 854.4 227.9 828 257.3L828 462L1230.6 462L1230.6 167.4C1163.4 169.3 1126.6 223.5 1078 250Z"   fill="url(#linear_fill_EF172515-16B1-46EC-A42D-F6C03B1ADF18)" >
</path>
<rect x="1030.10009765625" y="0" width="28" height="462"   fill="url(#linear_fill_673C1390-443E-4585-B585-BE1FD4969069)" >
</rect>
<rect x="1019.39990234375" y="0" width="23.1" height="462"   fill="#FCFDFF" >
</rect>
<rect x="828" y="0" width="21.5" height="462"   fill="url(#linear_fill_1D843450-44E5-42D2-B912-8D26F4CF9C7C)" >
</rect>
<rect x="828" y="28.10009765625" width="402.6" height="18.1"   fill="#FCFDFF" >
</rect>
<rect x="828" y="66.800048828125" width="402.6" height="18.1"   fill="#FCFDFF" >
</rect>
<rect x="828" y="106.39990234375" width="402.6" height="18.1"   fill="#FCFDFF" >
</rect>
<rect x="828" y="146" width="402.6" height="18.1"   fill="#FCFDFF" >
</rect>
<path d="M346.1 359.8C191.7 317.8 239.8 635.8 239.8 635.8C422.3 394.9 346.1 359.8 346.1 359.8Z"   fill="url(#linear_fill_5B2F557F-C0C9-4785-8D76-71D6D8C26E46)" >
</path>
<path d="M460.7 514.2C353.1 460.4 279.6 635.8 279.6 635.8C497.1 556.3 460.7 514.2 460.7 514.2Z"   fill="url(#linear_fill_AF1E7F41-606D-4590-88F9-45E5844ACE0D)" >
</path>
<path d="M89.1 516.1C71.8 561.1 208.7 643.4 208.7 643.4C139.9 460.7 89.1 516.1 89.1 516.1Z"   fill="url(#linear_fill_3FEDBA6E-E7A3-4C6F-B9FE-1ED3FA8450DA)" >
</path>
<path d="M73.0999 687.4C72.9999 687.4 69.3999 720.2 186 707.3C186 707.3 78.8999 647.4 73.0999 687.4Z"   fill="url(#linear_fill_83AA7BCB-D919-4A1F-B84E-60B4A52F3141)" >
</path>
<path d="M369.5 663.2C312 633.7 256.6 751.6 262.7 749C404.5 688.4 369.6 663.1 369.5 663.2Z"   fill="url(#linear_fill_852F19E2-33CA-4FFB-8E3F-3297887F22DA)" >
</path>
<path d="M218 729.2C179.8 688.3 99 685.6 95.6 685.5L95.5 690.2C96.4 690.3 177.8 693 214.7 732.5C227.3 746.1 233.4 762.7 232.6 781.7L237.3 781.9C238.1 761.5 231.6 743.9 218 729.2Z"   fill="#0C2F3D" >
</path>
<path d="M359.4 674L357.3 669.8C357.1 669.9 327.9 684.9 298.7 709.3C259.8 741.8 238.6 776.1 237.4 808.5L242.1 808.7C245 733.3 358.3 674.5 359.4 674Z"   fill="#0C2F3D" >
</path>
<path d="M249.3 795.7C232.6 691.7 284.3 624.3 330.7 586C381.2 544.4 436.3 527.2 436.9 527L435.5 522.5C434.9 522.7 379 540.1 327.8 582.3C297.7 607.1 275.1 635.5 260.6 666.8C242.5 705.9 237.2 749.5 244.7 796.4L249.3 795.7Z"   fill="#0C2F3D" >
</path>
<path d="M253.7 828.3C223.7 706.8 244.2 593 266.8 518.9C291.3 438.5 323.3 386.2 323.6 385.7L319.6 383.2C319.2 383.7 286.9 436.4 262.3 517.3C247.8 564.8 238.7 612.7 235.3 659.5C231.1 718.1 235.7 775.2 249.1 829.3L253.7 828.3Z"   fill="#0C2F3D" >
</path>
<path d="M176.3 585.5C143.8 541.5 111.6 524.6 110.2 523.9L108.1 528.1C108.5 528.3 140.9 545.3 172.8 588.6C202.2 628.6 237.1 699.7 236.3 811.6L241 811.6C241.9 698.3 206.4 626.1 176.3 585.5Z"   fill="#0C2F3D" >
</path>
<path d="M166.6 780.8L192.2 964.7L192.3 965.5L295.2 965.5L320.9 780.8L166.6 780.8Z"   fill="url(#linear_fill_559C0E7B-02B3-4C25-A974-80F45ED67F8B)" >
</path>
<g opacity="0.1">
<path d="M320.886 780.9L320.9 780.9L320.9 780.8L320.886 780.9ZM319.2 780.9C302.6 886.2 229 942.7 192.2 964.8L192.3 965.6L295.2 965.6L320.886 780.9L319.2 780.9Z" fill-rule="evenodd"  fill="#000000" >
</path>
</g>
<rect x="73" y="879.800048828125" width="1360" height="112.9"   fill="#8B969F" >
</rect>
<rect x="73" y="836.5" width="1360" height="63.5"   fill="url(#linear_fill_27EB3920-18B4-4315-963D-850FEBE47792)" >
</rect>
<circle cx="287" cy="142" r="93"   fill="url(#linear_fill_FD10E02F-B1E5-4A9D-ABC3-9CBAFF3DBB77)" >
</circle>
<circle cx="287.0001953125" cy="141.999951171875" r="78.3"   fill="url(#linear_fill_223E002D-C015-40D3-A057-708457AF4C29)" >
</circle>
<path d="M334.7 177.9C336.1 176.2 335.7 173.7 334 172.4L291.3 139.6L291.3 90.9C291.3 88.8 289.6 87 287.4 87C285.3 87 283.5 88.7 283.5 90.9L283.5 143.5L329.2 178.7C331 180 333.5 179.7 334.7 177.9Z"   fill="#FFFFFF" >
</path>
<path d="M595.5 588.5L617 708L637.5 879L675.5 879L663 690L660.5 583.5L595.5 588.5Z"   fill="#FFAAAD" >
</path>
<path d="M601.5 304.9L500 286L488.8 334.1C488.8 334.1 463.6 351.2 498.1 381.1L492.5 473.5L561.4 476.2L560.1 447.6L559.3 430.7L559.2 429.6C559.2 429.6 590.4 445.2 602.5 393.7C606.9 375.2 607 344.5 601.5 304.9Z"   fill="#FFAAAD" >
</path>
<path d="M480.4 356.094C480.402 334.9 491.501 334.8 498.3 338.6C505.1 342.4 505.9 348.4 505.9 348.4L515 352L529.7 309.5C535.7 344.7 574.7 340.7 574.7 340.7L572.7 327C631.3 366 644.9 303.5 644.9 303.5C633.2 307.4 619.5 297.7 619.5 297.7C629.2 293.8 629.2 278.2 629.2 278.2C603.9 288 580.4 258.7 580.4 258.7C549.1 237.3 511.3 273.1 511.3 273.1C457.835 268.321 480.301 355.235 480.4 356.094ZM480.4 356.1C480.401 356.1 480.401 356.097 480.4 356.094C480.4 356.096 480.4 356.098 480.4 356.1Z" fill-rule="evenodd"  fill="#0C2F3D" >
</path>
<path d="M496 777.1L582.9 890.1L628.5 992.6L737 992.6L759 885.5C759 870.3 751.1 856.2 738.1 848.4L590 790L496 777.1Z"   fill="url(#linear_fill_415FF9BE-339C-45D2-8CA7-2EFD9362D0A1)" >
</path>
<path d="M665 877.6L561.8 808L538 792L384 790C379.5 816.7 382.5 838.6 390.4 856.7C425.8 937.3 560 940 560 940L557.5 992.5L675 992L677.7 903.9C675.9 894.2 671.5 885.1 665 877.6Z"   fill="url(#linear_fill_0E6ED806-27C2-437F-BA23-9A0EE747312C)" >
</path>
<g opacity="0.2">
<path d="M538 792L384 790C379.5 816.7 382.5 838.6 390.4 856.7L561.8 808L538 792Z"   fill="#000000" >
</path>
</g>
<path d="M405.5 476.8C390.2 481.9 378.5 494.3 374.1 509.8L354.1 606L412.1 614L410.1 807L629.1 806L612.1 609C627.1 607 670.1 599 670.1 599L655.4 523.3C652.6 509.1 643.8 496.9 631.2 489.9L562 448C529 486 491 450 491 450L405.5 476.8Z"   fill="url(#linear_fill_CAF79D82-E1B6-4A34-BABA-CCB7F0326451)" >
</path>
<path d="M417.5 881.5L421 708L430.2 617.2L430.5 614.5L368.5 606.5L367.5 623.5L363 701L375.3 881.4L365.8 909.1L371.2 942.5C371.6 944 373 945.1 374.5 945.1C376.4 945.1 377.9 943.6 377.9 941.7L377.9 923.1L381.4 947.9C381.6 949.7 383.2 951.1 385.1 951.1C387.2 951.1 388.9 949.4 388.9 947.3L388.9 920L394.3 949.4C394.7 951.5 396.5 953 398.6 953C401 953 403 951 403 948.6L403 913L407.6 942.2C407.8 943.8 409.2 945 410.9 945C412.6 945 414.1 943.7 414.2 941.9L417 902C417 902 425 909 432 905L417.5 881.5Z"   fill="#FFAAAD" >
</path>
<rect x="430.50439453125" y="614.64404296875" width="64.40162607947101" height="3.00007574904368" transform="rotate(-83.7597762343 430.50439453125 614.64404296875)"   fill="#301F0A" >
</rect>
<g opacity="0.1">
<path d="M368.5 606.5L367.5 623.5L430.2 617.2L430.5 614.5L368.5 606.5Z"   fill="#000000" >
</path>
</g>
<g opacity="0.1">
<path d="M559.3 430.7C541.6 422.9 524 407 524 407C532.6 436.6 548.9 445.3 560.1 447.6L559.3 430.7Z"   fill="#000000" >
</path>
</g>
<path d="M859.8 390.1C848.2 373.6 852.5 327.2 852.5 326.7L847.3 326.2C847.1 328.2 842.9 375.1 855.5 393.1L859.8 390.1Z"   fill="#A0A0A0" >
</path>
<path d="M969.7 286.5C970.5 239.9 946.4 198.8 946.4 198.8C861 154.6 816 215.9 816 215.9C830.7 389 909.9 342.4 909.9 342.4C909.9 342.4 909.9 342.6 910.1 343C911.2 345.7 916.1 357.6 920.6 368.8C924.9 379.4 928.9 389.4 929.3 390.5L996.4 362.1L969.7 286.5Z"   fill="#FCB9C0" >
</path>
<path d="M714.2 511.5L703.9 506.6L685.7 488.7C682 484.1 676.8 480.8 671 479.2L632.6 468.9C628.3 467.7 623.8 467.6 619.5 468.5L598.9 471.1C598.9 471.1 635.8 491.2 645.9 504.1C649.1 508.1 651.2 512.4 652.6 515.9C654.6 520.8 658.4 524.8 663.1 527.3L699 546L721.8 557.9L736.2 521.8L714.2 511.5Z"   fill="#FCB9C0" >
</path>
<g opacity="0.1">
<path d="M910.1 343C911.2 345.7 916.1 357.6 920.6 368.8C944.2 340.9 951 308 951 308C936.6 326.2 921.3 336.9 910.1 343Z"   fill="#000000" >
</path>
</g>
<g opacity="0.1">
<path d="M714.3 511.3L699 545.9L721.8 557.8L736.2 521.8L714.3 511.3Z"   fill="#000000" >
</path>
</g>
<path d="M970.4 289.8C970.4 289.8 1004.2 189.9 933.6 158.1C933.6 158.1 893.2 139.5 839.7 166.6C839.7 166.6 814 185 796 183C780.4 181.3 792 286 889.4 207C889.4 207 893.3 247.4 924.3 244.2L926.6 259.7L935.9 253.5C935.9 253.5 936.2 231.2 951 232C959.3 232.4 970 262 953.8 279.1C953.8 279.1 956.1 288 970.4 289.8Z"   fill="#0C2F3D" >
</path>
<path d="M711 611L878.2 653.8L894 530.7L890.9 413.5L852.9 575.2L716 512L711 611Z"   fill="url(#linear_fill_D64BA4EF-9DDF-43F8-ABCD-AD473D04D9C7)" >
</path>
<circle cx="594.1" cy="595.299951171875" r="23.1"   fill="#0C2F3D" >
</circle>
<path d="M730.7 601.6L698.4 598L649.5 579.7L602.1 583.5C597.9 583.8 594.7 587.5 595.1 591.7L595.3 594.6C592.5 594.6 590.1 596.9 590.1 599.8L590.1 601C590.1 603.7 592.2 606 595 606.2L616.3 607.6C608.5 615.5 623.3 621.6 623.3 621.6C619.8 625.1 625 630.3 625 630.3C644.2 648.7 691.4 644.3 691.4 644.3C696.7 644.3 704.9 645.2 712.8 646.2C724.2 647.7 735 649.5 735 649.5L737.6 602.4L730.7 601.6Z"   fill="#FCB9C0" >
</path>
<g opacity="0.1">
<path d="M730.6 601.6L712.8 646.2C724.2 647.7 735 649.5 735 649.5L737.6 602.4L730.6 601.6Z"   fill="#000000" >
</path>
</g>
<path d="M991.7 335.1L992 326.7C966.1 335.7 920.9 384.6 920.9 384.6C904.3 421.3 884.7 584.8 884.7 584.8C910 562.1 991.7 335.1 991.7 335.1Z"   fill="url(#linear_fill_47328A94-55A7-433F-A287-BA3400347AA5)" >
</path>
<path d="M953.7 257.1L948.5 256.8C948.5 257.6 944 336.6 903.2 379.9L907 383.5C949.1 338.7 953.6 260.4 953.7 257.1Z"   fill="#A0A0A0" >
</path>
<path d="M950.8 260.3C953.5 260.3 955.8 258.3 956.2 255.6L956.9 250.1C957.3 247.1 955.1 244.3 952 244.1C948.9 243.8 946.3 245.9 946 248.8L945.4 254.3C945 257.5 947.5 260.3 950.8 260.3Z"   fill="#123245" >
</path>
<path d="M853 993L1157 993C1157 993 1122.7 554.2 1110.5 485.2C1110.5 485.2 1113.1 426.7 1045.9 379.6C1045.9 379.6 1002 345.6 992 326C992 326 908 473.5 891.4 573C891.4 573 906.3 449.6 922 385C922 385 898.3 396.2 888.7 418C879.1 439.9 869 581 869 581C869 581 798 600 732 595L722 691C722 691 821.6 692.8 869 685L867.7 710.6L853 993Z"   fill="url(#linear_fill_A58B5D1D-C04D-4C28-AB8C-CFD40960257D)" >
</path>
<path d="M905 379.2C903.5 378.9 902 379.8 901.7 381.3C897.8 397.9 885.9 432.8 867.4 432.8L866.9 432.8C866.9 432.8 863.3 433.2 860.4 429.9C857.4 426.4 853.5 416.8 860.3 391C860.7 389.5 859.8 387.9 858.3 387.5L856.2 386.9C854.7 386.5 853.1 387.4 852.7 388.9C846.9 411.3 847.5 426.8 854.5 434.9C857.6 438.5 861.5 440 864.5 440.4C863.3 455.3 857.9 510.1 841.6 566.7C830.4 605.4 816.4 637.2 800 661.4C779.6 691.3 755.4 709.4 728.1 715.2C669.2 727.7 608.7 679.9 593.2 608.8L588.1 609.9C595.6 644.3 614.3 675.8 639.6 696.5C660.4 713.6 684.3 722.5 708.5 722.5C715.4 722.5 722.3 721.8 729.2 720.3C757.9 714.2 783.2 695.4 804.4 664.3C821.2 639.7 835.4 607.3 846.7 568.1C863.3 510.6 868.7 454.9 869.9 440.4C894.8 437.8 906.7 394.6 909.5 382.9C909.6 381.5 908.7 379.9 907.1 379.6L905 379.2Z"   fill="#0C2F3D" >
</path>
<rect x="921.9814453125" y="385.498291015625" width="3.0000243436272" height="41.70033837641808" transform="rotate(-89.76918279289629 921.9814453125 385.498291015625)"   fill="#0C2F3D" >
</rect>
<path d="M860.3 314.4C856.5 322.9 881.3 335.9 881.8 301.4C881.8 301.4 864 306 860.3 314.4Z"   fill="#FFFFFF" >
</path>
<path d="M998.2 442.5L982.6 414.6L1018.7 415.5L1009.5 345.8L1006.5 346.2L1015.3 412.5L977.4 411.4L994.8 442.5L922.2 568.8L924.8 570.2L998.2 442.5Z"   fill="#0C2F3D" >
</path>
<g opacity="0.1">
<path d="M933 565C986 546 1000 530 1022 490C1028.2 478.8 1048 421 1086 437C1086 437 1046.9 404.7 1012.5 476.5C992.2 518.9 988 550 858.6 584.8C858.6 584.8 913.6 572 933 565Z"   fill="#000000" >
</path>
</g>
<path d="M894.9 683.8L892 683.2C862.3 834.4 861 872 861 872.4L864 872.5C864 872.2 865.3 834.8 894.9 683.8Z"   fill="#0C2F3D" >
</path>
<path d="M907.4 681.3L906.7 678.7C860.4 690.6 723.4 689.7 722 689.7L722 692.4C722.2 692.4 724.6 692.4 728.9 692.4C757.5 692.4 866.8 691.7 907.4 681.3Z"   fill="#0C2F3D" >
</path>
<g opacity="0.1">
<path d="M869 685L867.7 710.6C898.1 706.8 1021 687.5 1069 615C1069 615 963 685 869 685Z"   fill="#000000" >
</path>
</g>
<path d="M657.5 596.6L645.2 592.5L595 593.5L595 596.5L644.8 595.5L656.5 599.4L657.5 596.6Z"   fill="#301F0A" >
</path>
<path d="M648.8 608L637.8 606L616.5 606L616.5 609L637.4 609L648.2 611L648.8 608Z"   fill="#301F0A" >
</path>
<path d="M647.7 622L635.7 620L623.5 620L623.5 623L635.4 623L647.3 625L647.7 622Z"   fill="#301F0A" >
</path>
<defs>
<linearGradient id="linear_fill_802733A5-CE15-4312-BBA4-8CB303B61ECF" x1="710.9033203125" y1="1046.87939453125" x2="718.9033203125" y2="310.879638671875" gradientUnits="userSpaceOnUse">
<stop offset="0" stop-color="#D3E9FE"  />
<stop offset="1" stop-color="#E9F6FF"  />
</linearGradient>
<linearGradient id="linear_fill_02C9820A-E069-432B-A4E2-565B6A08F9B3" x1="1029.2997999999998" y1="0" x2="1029.2997999999998" y2="462" gradientUnits="userSpaceOnUse">
<stop offset="0" stop-color="#E6F5FF"  />
<stop offset="1" stop-color="#F5FAFF"  />
</linearGradient>
<linearGradient id="linear_fill_EF172515-16B1-46EC-A42D-F6C03B1ADF18" x1="1030.95947265625" y1="263.940185546875" x2="1027.62548828125" y2="456.201171875" gradientUnits="userSpaceOnUse">
<stop offset="0" stop-color="#D3E9FE"  />
<stop offset="1" stop-color="#E9F6FF"  />
</linearGradient>
<linearGradient id="linear_fill_673C1390-443E-4585-B585-BE1FD4969069" x1="1044.14999765625" y1="-4.926500000000033" x2="1044.14999765625" y2="464.05709999999993" gradientUnits="userSpaceOnUse">
<stop offset="0" stop-color="#D3E9FE"  />
<stop offset="1" stop-color="#E9F6FF"  />
</linearGradient>
<linearGradient id="linear_fill_1D843450-44E5-42D2-B912-8D26F4CF9C7C" x1="839.2856000000002" y1="-1.643999999999778" x2="838.1854999999996" y2="454.8560000000002" gradientUnits="userSpaceOnUse">
<stop offset="0" stop-color="#D3E9FE"  />
<stop offset="1" stop-color="#E9F6FF"  />
</linearGradient>
<linearGradient id="linear_fill_5B2F557F-C0C9-4785-8D76-71D6D8C26E46" x1="239.74365234375" y1="589.851318359375" x2="336.10595703125" y2="338.86181640625" gradientUnits="userSpaceOnUse">
<stop offset="0" stop-color="#1C59EB"  />
<stop offset="1" stop-color="#6AF2ED"  />
</linearGradient>
<linearGradient id="linear_fill_AF1E7F41-606D-4590-88F9-45E5844ACE0D" x1="279.6025390625" y1="569.86181640625" x2="463" y2="569.86181640625" gradientUnits="userSpaceOnUse">
<stop offset="0" stop-color="#1C59EB"  />
<stop offset="1" stop-color="#6AF2ED"  />
</linearGradient>
<linearGradient id="linear_fill_3FEDBA6E-E7A3-4C6F-B9FE-1ED3FA8450DA" x1="207.93017578125" y1="630.263916015625" x2="87.34521484375" y2="505.212890625" gradientUnits="userSpaceOnUse">
<stop offset="0" stop-color="#1C59EB"  />
<stop offset="1" stop-color="#6AF2ED"  />
</linearGradient>
<linearGradient id="linear_fill_83AA7BCB-D919-4A1F-B84E-60B4A52F3141" x1="169.115234375" y1="702.01953125" x2="61.37939453125" y2="684.0634765625" gradientUnits="userSpaceOnUse">
<stop offset="0" stop-color="#1C59EB"  />
<stop offset="1" stop-color="#6AF2ED"  />
</linearGradient>
<linearGradient id="linear_fill_852F19E2-33CA-4FFB-8E3F-3297887F22DA" x1="262.25732421875" y1="703.7021484375" x2="373.37255859375" y2="703.7021484375" gradientUnits="userSpaceOnUse">
<stop offset="0" stop-color="#1C59EB"  />
<stop offset="1" stop-color="#6AF2ED"  />
</linearGradient>
<linearGradient id="linear_fill_559C0E7B-02B3-4C25-A974-80F45ED67F8B" x1="166.583984375" y1="873.153564453125" x2="320.92529296875" y2="873.153564453125" gradientUnits="userSpaceOnUse">
<stop offset="0" stop-color="#E3356F"  />
<stop offset="1" stop-color="#E882AC"  />
</linearGradient>
<linearGradient id="linear_fill_27EB3920-18B4-4315-963D-850FEBE47792" x1="73" y1="868.25" x2="1433" y2="868.25" gradientUnits="userSpaceOnUse">
<stop offset="0" stop-color="#1C59EB"  />
<stop offset="1" stop-color="#6AF2ED"  />
</linearGradient>
<linearGradient id="linear_fill_FD10E02F-B1E5-4A9D-ABC3-9CBAFF3DBB77" x1="194" y1="142" x2="380" y2="142" gradientUnits="userSpaceOnUse">
<stop offset="0" stop-color="#E6F5FF"  />
<stop offset="1" stop-color="#F5FAFF"  />
</linearGradient>
<linearGradient id="linear_fill_223E002D-C015-40D3-A057-708457AF4C29" x1="208.73309531250015" y1="142.0353511718754" x2="365.2672953125002" y2="142.0353511718754" gradientUnits="userSpaceOnUse">
<stop offset="0" stop-color="#D3E9FE"  />
<stop offset="1" stop-color="#E9F6FF"  />
</linearGradient>
<linearGradient id="linear_fill_415FF9BE-339C-45D2-8CA7-2EFD9362D0A1" x1="607.01123046875" y1="884.75" x2="870.01123046875" y2="884.75" gradientUnits="userSpaceOnUse">
<stop offset="0" stop-color="#2B233C"  />
<stop offset="1" stop-color="#635C70"  />
</linearGradient>
<linearGradient id="linear_fill_0E6ED806-27C2-437F-BA23-9A0EE747312C" x1="381.849609375" y1="891.25" x2="677.68994140625" y2="891.25" gradientUnits="userSpaceOnUse">
<stop offset="0" stop-color="#2B233C"  />
<stop offset="1" stop-color="#635C70"  />
</linearGradient>
<linearGradient id="linear_fill_CAF79D82-E1B6-4A34-BABA-CCB7F0326451" x1="440.63232421875" y1="792.5439453125" x2="584.32958984375" y2="473.21630859375" gradientUnits="userSpaceOnUse">
<stop offset="0" stop-color="#E3356F"  />
<stop offset="1" stop-color="#E882AC"  />
</linearGradient>
<linearGradient id="linear_fill_D64BA4EF-9DDF-43F8-ABCD-AD473D04D9C7" x1="952.07568359375" y1="640.468505859375" x2="839.68505859375" y2="545.106689453125" gradientUnits="userSpaceOnUse">
<stop offset="0" stop-color="#DCE9FF"  />
<stop offset="1" stop-color="#B6D2FF"  />
</linearGradient>
<linearGradient id="linear_fill_47328A94-55A7-433F-A287-BA3400347AA5" x1="884.68896484375" y1="455.730224609375" x2="992.01220703125" y2="455.730224609375" gradientUnits="userSpaceOnUse">
<stop offset="0" stop-color="#588AFD"  />
<stop offset="1" stop-color="#4D71D9"  />
</linearGradient>
<linearGradient id="linear_fill_A58B5D1D-C04D-4C28-AB8C-CFD40960257D" x1="939.5" y1="466.005615234375" x2="939.5" y2="967.055908203125" gradientUnits="userSpaceOnUse">
<stop offset="0" stop-color="#DCE9FF"  />
<stop offset="1" stop-color="#B6D2FF"  />
</linearGradient>
</defs>
</svg>
